<svg viewBox="0 0 200 200" xml:space="preserve" xmlns="http://www.w3.org/2000/svg"><path style="fill:#000;stroke-width:.264583" d="M19.1 264.6 19 242v-2.5l-.8-.3-.7-.3.5-.1c1-.2 1-.6.3-.8-.7-.3-1-1.4-.5-1.4.4 0 1-1.8 1-2.8v-.9l-.3.4-.7.5-.5.2v-.7c0-.3 0-.7-.2-.8-.2 0-.3-.4-.3-.7v-.5h.6c1 0 1.4-.4 1.3-1.4-.1-1-.5-1.5-1.2-1.5H17l.3.3.2.4-.3.8c-.5 1-.8 1-1-.1 0-.4-.4-1-.7-1.4l-.5-.6-.3.6-.3.6.3.1c.4.2.3.6-.2.6-.4 0-1.1-.7-1.1-1 0-.2.4-.5.9-.7.6-.2 1-.5 1-.8 0-.3 0-.7.2-.9l.3-.4.2.4.3.4.3-.5.4-.5-.6-.6c-.6-.7-1.5-.8-2.6-.4l-.7.3.1-.3v-.3c-.2 0-.4.2-.4.4 0 .3-.1.4-.3.4-.2 0-.5.3-.7.7l-.4.6.3.4.4.4-.4.3-.4.3-.2-.3-.8-.2h-.6v.6c0 .6-.6 1-1 .7-.3-.3 0-1.6.5-2l.6-.4-.3-.5-.4-.6.3-.4.3-.4-.4-.3c-.7-.5.4-2.6 1.3-2.5 1 0 1.3-.4.2-.7l-.7-.2.8-.7c.4-.4.7-.8.7-1 0 0 .1-.2.4-.3.7-.3 1.2-.8 1-1.2-.1-.1-.4-.2-.6 0-.2 0-.4 0-.4-.2l.3-.3c.1 0 .2-.2.2-.6l.1-1 .1-.3h-.5c-1.8.4-2.5.4-2.7.1 0-.2.2-.3.9-.3h1l-.5-.3c-.2-.2-.4-.7-.4-1.1v-.7l.6.2.9.3c.2 0 .3 0 .3-.2s-.1-.3-.3-.3c-.5 0-.2-.7.5-1l.7-.3.2.3.2.3.5-.2c.6-.5.6-1.1 0-1.8-.8-.8-.7-1 .2-.8l.6.1.5-.7.5-.7-.5-.3-.9-.6-.5-.4.5-.4.8-.5.3-.1-.3-.2c-.7-.3-.3-.6.8-.8 1.3-.2 1.6-.4.8-.7-.4-.2-.5-.9 0-1 .4-.2.4-1.6 0-2.3l-.5-.7.7.2 1 .2c.1 0 .4.3.7.8l.4.8-.3.4-.3.3h.9v1.6c0 1.7.4 1.6.5-.1l.1-1h.7c.9 0 3.2-2 3-2.4a5.3 5.3 0 0 0-2.4-1.6H21l.2-.5c.2-.2.5-.6.8-.7l.6-.3-.2-.5v-.6l.5-.2 1-.6.3-.5h-1c-.5 0-1-.1-1-.3-.1-.4-.7 0-1 .8l-.3.7-.3-.3c-.4-.5-1.8-.4-2.5 0-.9.7-1.4.4-1.4-.7 0-1-.6-2.4-1.1-2.6l-.3-.1.4-.6c.6-.6.6-1.5 0-1.8l-.4-.3.3-.2.7.1.4.3.5-.2c.6-.4.7-1 .2-1.2-.2 0 0-.3.4-.6l1-1 .6-.4v1.9h.5c.2 0 .5-.2.6-.4 0-.2.3 0 .5.4l.3.7h.8c1.1 0 2-.3 1.9-.5-.3-.4.4-.6.9-.3.6.4 1.3.1 1.3-.5s-.6-1.2-1.2-1l-.4.2v-.7c0-.7-.2-.8-1.2-.2l-1.7.5c-.6.1-1 .4-1.1.6-.3.6-.7.1-.7-.7 0-.9-.3-1.2-1-1.4-1.4-.4-2.4-1.8-1.2-1.8.2 0 1-.3 1.7-.8l1.3-.7-.4-.3a1 1 0 0 1-.3-.7c.1-.2-.4-.7-1.1-1.2-1.8-1.1-2-1.9-.7-1.9.8 0 1.7-.4 1.7-.8 0-.1-.2-.2-.5-.2-1 0-2.5-.6-2.6-1-.1-.3-.3-.7-.6-1-.4-.5-.3-.5 1.1-.1.7.2 1.1.2 1.3 0 .2-.1.7-.3 1.1-.3l.8-.1.4-.7c.6-1 .2-1.3-.9-.7l-.8.5-2.5-1-2.5-1.1v-1.4h1.5c.9-.1 1.5-.3 1.6-.5.1-.2.6-.4 1-.4l1.3-.2.4-.3-.4-.6c-.3-.7-.2-1.3.4-1.3 1.2 0 1.2-2.3 0-2.5-1.2-.2-1.2-.6.1-.6 1.2 0 1.7-.5 1-1-.3-.2-.8-.5-1-.8l-.5-.4-.9.1-.9.2-.4-.5c-.5-.6-1.3-2.6-1-2.8.4-.2 4 .7 4.6 1.2l.7.5.2-.4c0-.2 0-.6-.3-.9l-.4-.5.6-.4 1.5-.6c.5 0 1-.3 1-.5s.3-.4.5-.4l.8-.5.4-.5h2c1 0 2 0 2.3-.3l.5-.3h-.6a5 5 0 0 1-1.6-.5 5 5 0 0 0-1.9-.5h-.8l-1-1c-.6-.7-1.3-1.2-1.5-1.2l-.8-.4-.4-.5.3-.3.3-.3-.9-.7-.8-.8 1-.3c.5-.2 1-.6 1-1l.2-.4.5.1c.7.3 1.7-.4 1.8-1.2 0-.3.2-.8.4-1l.4-.4 3.8-.1c5.9-.2 5.7-.9-.3-1.6-.8 0-1.6-.2-1.6-.4-.1-.1-.4 0-.8.1l-.6.4-.8-1a9.4 9.4 0 0 0-3-2c-2.3-1-2.5-1.3-1.5-1.5.4-.1.6-.3.5-.6v-.5l1.4-.1c.7 0 1.5-.3 1.6-.4l.3-.3-.5-.5c-.8-.7-.7-1.1.1-1.3 1.3-.3 1.5-.4 1.3-.7l-1-.2h-.7l-.4-.7c-.3-.4-.5-1.1-.5-1.7v-.9l.4-.2c.6-.4.6-1.2 0-2.4l-.6-1.4v-.5l2.6.2 2.6.2.2-.3c.3-.5.7-.3.7.2v.5l1 .2.9.2v.6c0 1 .4 1 1.3.3.5-.4 1-.7 1.4-.7 1 0 1.7-.8 2.1-2.1.2-.7.5-1.2.8-1.3h.4l.6 1.4.5 2v.5h-.8c-.7 0-1.5.6-1.1 1h1c1 0 1.3.4 2 2.5l.7 1.6 1.1-1 1.1-.9.4.3c.2.2.4.8.4 1.4v1l.5-.9.8-1.2.4-.3v2.6l-.6.6a4 4 0 0 0-.7 1l-.1.5-.6-.1c-.3-.1-.5 0-.5.1 0 .2-.2.3-.5.2-.8 0-.7.8.2 1.8l.9 1-.3.3-.4.4.8.4c.4.2.9.7 1 1 0 .5.8.7 1 .2l1.1-.2h.9l1.5 1c1 .7 1.7 1 1.8.8.4-.4 1.2-.3 1.3.2l.6 1 .4.6-1.3 1.3c-1.5 1.3-1.7 1.8-.8 2 .6.2.7 1 .2 1.5l-.3.3.3.3c.8.8-.6 1.3-3.5 1.3-1 0-2 .1-2.3.3l-.4.2.5.4c.6.5.6.8-.2 1l-.7.2.1.6.2 1.2c0 .9.7 1 5.4 1.3l4.2.3.7.5c1.1.9 1.5.3.7-1l-.3-.5.6-.6c.6-.6 1.1-.5 2.4.6l1 .7-.3.7-.4.7h1.7c1.6.1 2.2 0 1.5-.2-.4-.2-1.3-1.2-1.3-1.5h1c3.7.5 4 .5 3-.6-.8-.6-.7-1.1 0-1.1.9 0 1.2-.7.8-1.4l-.3-.5H67v-.4c0-.4-1-1.4-1.8-1.7-.4-.2-.1-.2.7-.1 1.8.1 1.8-.3.1-1.1l-1.5-.7v-.4c0-.3-.3-.8-.6-1.2-.9-.7-.6-1 .7-.7 1.6.4 2.8 2.4 3.2 5.2l.3 1.4c.2.3 1.2-.2 1.2-.7 0-.4.2-.5.7-.2l.4.2-.8.6c-.5.4-.8.9-.8 1.2v.6l.2-.4c.2-.3.7-.6 1.2-.8l1.4-1c.7-.9 1.1-.6 1.1.9v1.2H72c-1.3 0-3.3.5-3.3 1 0 .2.3.3.8.3 1 0 1.7.4 1.7 1 0 .2.1.3.2.2.2 0 .3-.2.3-.4v-.3l.3.3c.2.2.7.2 1 .1.9-.2.9 0 0 1.3l-.7 1 .4.2.3.3-.4.2-.6.4c-.2 0 0 .3.2.4l.4.8c0 .6 1 1.2 1.7 1 .5-.1.7 0 3.1 1l1.2.7h-.7c-1.8 0-2 .5-.5 1.3l1.2.5.3-.3.4-.3v.9c0 .4 0 .8.2 1 .2 0 .2.3 0 .7-.2.4-.2.8-.2 1 .2.6 1 .6 1 .1 0-.3.5-.7 1-.7.2 0 .3.3.3.7 0 .8 0 .8 1.1.2l.9-.4-.2.5-.4 1-.1.5.3-.2 1.1-.5.8-.3v-.8c0-.4 0-.7.2-.7s.3.1.3.3l.8.2c.8 0 1-.2.5-.7l-.3-.3.3-.1c.2-.1.6 0 .8.3.3.3.8.6 1.1.6h.6l-.2-.6-.4-1.4-.2-.8-1.2-.2-1.3-.3.6-.6c.3-.5.4-.9.3-1.3l-.1-.5.3.3.8.4h.5v-.7c0-.7-.4-1-1.6-1h-.7l-.1-.7-.4-1.2-.2-.4h.5c.5 0 .5-.6-.1-1.4-.3-.3-.6-.9-.6-1.2-.1-.8-.6-.9-.7-.2l-.2 1-.1.3-.3-.3c-.5-.5-1.2-.4-1.6.1l-.2.5-.3-.4c-.1-.2-.2-.7-.1-1 .1-.7-.2-1.1-1-1.1-.1 0-.2.2-.1.5l.2.5-.9.3c-.5.1-1 .2-1.4 0-.7-.3-1-.6-.3-.5h1l-.6-.7c-.3-.3-.5-.7-.4-.8 0-.1 0-.5-.3-.9l-.4-.6 1.3.2 1.3.2 1 1c.6.5 1 1.1 1 1.5 0 .7.5.8 1.1.1.6-.7.6-1-.1-1h-.6l-.1-.5-.1-.6h.7c.3 0 .6 0 .6.2l1 .5.9.3V154h-1.5l-.2-1.4-.2-1.3.4-.5.5-.5-.6-.6-.5-1c0-.2-.1-.3-.3-.3-.1 0-.2-.2-.2-.5s-.2-.5-.3-.4c-.2 0-.3 0-.3-.2 0-.3.3-.5.6-.6l.6-.2-.6-.2c-.3 0-.6-.2-.6-.3v-.6c0-.3.1-.4.3-.4.1 0 .3.1.3.3 0 .2.3.6.6 1 .7.6.9 1.2.4 1.5l-.3.2.4.2c.2.1.4.4.4.6 0 .3.2.4.5.3.3 0 .5-.3.5-.6s0-.6.2-.5c.3 0 .3-.1 0-1.3l-.2-.5.5.3c.2.2.4.8.4 1.3 0 .9.4 1.4.7.9 0-.2.4-.1.8.2.4.3.8.6 1 .6.2 0 .5.3.6.6l.1.7.5-.1.7.1c0 .2.2.2.4.1.5-.3.2-.8-.7-1.3l-1-.5.2-.5c0-.3 0-.5-.3-.5-.2 0-.4.2-.4.3 0 .5-.4.3-.7-.4l-.3-.7.2-.3.3-.3v.6c0 .3.2.6.4.6.5 0 1-.8 1-1.6 0-.7.4-.7.9.1l.5.7-.3 1.1-.3 1.1.3.2c.4.3.6.3 1-.2.2-.2.5-.3.6-.2.3.3.1 1.5-.3 1.9l-.4.4.2 1.2.1 1.3-.6 1.2c-1 1.7-.9 1.8 1.2 1.2l1-.3-.1-.5-.2-.5h.6c.7 0 .7 0-.4 2-1 1.8-1.5 2.3-1.5 1.6 0-.3-.1-.4-.3-.3-.2 0-.3.5-.3 1 0 .6 0 1.2-.2 1.4-.4.5-.1 1 .6 1s.6.2-.6 1.4c-1 1-1.2 2-.2 1 .2-.2.7-.4 1-.3l1-.1.5-.2-.6.5a4 4 0 0 1-1.7.7c-.6 0-1 .3-1 .4l-.4.2c-.3 0-.4.2-.4.3 0 .2.1.3.4.3.2 0 .4.1.4.3 0 .2.5.5 1 .6 1.3.3 1.7.8.8 1-.7.2-.7.7 0 1l.6.2-.7.5-1.1.8-.5.3h.5a3 3 0 0 0 1.2-.3c.7-.5 1.3-.3 1.3.2 0 .2.3.5.7.7 1 .4.5 2-.6 1.8-.5-.1-2 1-2 1.6 0 .2 0 .6-.2.7l-.3.4.2.3c.5.4 1 0 1-.8v-.7l.7.8c.5.6.7 1 .6 1.3 0 .3-.2.4-.3.2 0-.2-.3-.3-.6-.3H92l.5.5.5.5-1 .5-1 .4v2.1h.9c1.1-.1 1.7.4 1.5 1.4-.2.8.2 1.1.4.4.2-.5 1.1-.7 1.7-.2l.3.2v-.5c0-.7.2-.7 1-.2.4.2 1.1.4 1.6.4 1 0 1.3.4.7.8l-.5.3.4.2c.6.4 1.3.3 1.6-.2l.2-.4v3.6h.4c1.4.4 1.9.7 2 1 0 .3-.1.5-.3.5-.3 0-.6.3-.7.5-.4.7-.4.9 0 .9.3 0 .7.3 1 .6l.5.7h.8c.4 0 .5-.1.3-.2-.5-.2-1.3-1-1.1-1.3l-.2-.1c-.1 0 .3-.5 1-1.1a7 7 0 0 0 1.4-1.8c.2-.6 1.2-.8 1.8-.2l.3.3v-.4c0-.6-2.4-2.4-3.4-2.6l-1-.2v-.5c-.2-.6.6-1.4 1.3-1.4 2.2 0 4.7-3.3 2.6-3.4l-1.4-.1v-.8c0-.8-.4-1-1-.5l-.3.4-.4-.5c-.6-.5-.3-.9 1-1 2-.4 3.9-1.6 2.4-1.6-.3 0-.2-.1.4-.5 1.3-.8.8-1-1.6-1h-2.2l.6-.6c.4-.3 1.1-.6 1.7-.8l1.2-.5c0-.2.5-.2 1-.1 1.5.2 1.4-.7-.1-1l-.7-.2.1-1.3.1-1.2.5-.1c.8-.2.5-1-.5-1.5-1.2-.5-1.3-1.1-.2-1h2.8l-.1.9c-.2.7.1 1 .5.5 0-.2.6-.3 1.1-.3.6 0 1.3-.2 1.6-.4l.7-.4.6.2c.3.2.6.5.6.7 0 .2.3.4.6.5l.5.2-.3.8a2 2 0 0 0-.1 1.3l.2 1c0 .3.1.6.5.7.6.3 1 1.5.5 1.5-.2 0-.3.2-.3.4 0 .5 1.5 1.2 2.5 1.2.8 0 1.7 1 2.8 3.2l.9 1.6 1.3.7 1.4.7.5 1c.2.5.6 1 .8 1 .2 0 .1 0 0 .2l-.4.2.8 1 .9 1-.4.4-.3.4.4.4c.7.8.6 1.2 0 1.4-1 .2-1 .7-.1.9 1 .1 1.4 0 1.2-.7l-.2-.6 1.3-.7a5 5 0 0 1 1.9-.7c.3 0 .6-.2.6-.4 0-.3-.1-.4-.3-.4-.3 0-1.1-1.6-1-1.8.2-.1.7 0 1.3.1 1.5.5 2 .4 2.5-.3l.5-.7h1c.7 0 1.3-.1 1.5-.3l.3-.3.4.3.3.3.2-.5c.1-.6 1-.7 1.6-.1l.6.3h-2.1l.6.7.6.7h-.4c-.6 0-1.6 1-1.4 1.5l.1.3h-.9c-1 0-1.1.2-.5.9.6.6.4.8-.8.5-1.1-.3-1.2 0-.3.9l.6.6.6-.1.6-.2.8.8c.8.8 1 1.3.3 1l-1-.3-.7-.2v.5c0 .3.1.7.3.8.2.2.3.5.3.7.1.7 2.3 2.6 2.8 2.5.9-.3 3.9 1.7 3.2 2-.3.3-1.4 0-2.6-.5l-.9-.4-.2.4-.2.8.1.6.6-.1c.3 0 .6 0 .6.2 0 .1.3.3.7.3.4 0 1 .3 1.4.6l.8.6-.8.3c-.4.2-.8.4-.8.6 0 .1-.3.3-.7.3-.9 0-.8.3.4.8 1.6.7 2 .9 1.8.5-.3-.4 0-1 .8-1.2.3 0 .6-.3.6-.5 0-.3 3.1-1.5 4.8-1.9l.8-.1v-.5c0-.3-.3-1-.7-1.4-.4-.4-.6-.8-.4-.8.2 0 .4-.3.6-.7l.2-.7-.4-.4c-.5-.6-.2-.9.5-.5l.5.3.4-.5c.6-.5.3-.7-1.1-.7-1.5 0-2.3-.3-2.3-1.1 0-1-.2-1.5-.6-1.5a.7.7 0 0 1-.6-.3l-.2-.3 1 .2 1 .2-.1-.4c0-.2-.5-.4-1-.4h-.9l-.3.3c-.2.3-.6.4-1 .4h-.8l-.1-.8c0-.4-.2-.7-.4-.7l-.2-.4c0-.2-.2-.5-.5-.7-1.1-.6 1-2 2.4-1.7.5.1.7 0 .7-.1 0-.2.3-.3.6-.3s.5-.2.5-.4l.4-.7.4-.3-.2-1.2-.1-1.1h.5a5 5 0 0 1 2.7 1.1c.4.6 1 .6 1 0 0-.4 1.6-1.4 2.4-1.4.8 0 .7-.4-.2-.9l-1.6-1.2-1-.7.8-1 1.3-1.3 1-.6c.2-.2.5-.4.8-.4l.7-.2c.2-.4.6-.1 1 .7l.2.6.7-.1 1.2-.2.6-.1-.1 1c-.1 1.1.3 2 .9 2 .2 0 .4.1.4.3 0 .1.4.3.9.3h.9v-.6c.2-.3.4-.4.6-.4h.6c.2-.5.6-.2 1 .6l.2.7.6-.2 1.5-.3.9-.2.6.7c.4.4 1 .7 1.3.7 1 0 1 .6.3 1.2-.6.5-.8 1-.7 1.6 0 .4 1.8 1.6 2 1.3l-.1-.8-.3-.7 2.3.2c1.3.1 2.7.4 3.2.5l.8.4v1.3h.6c.8 0 3.4 1.8 3.9 2.7.2.4.6.8.8.8l.3.2c0 .2-.2.3-.4.3-.5 0-2 1.3-1.8 1.6 0 .2.9.3 1.9.3 1.1 0 2 .1 2.3.4.2.2.7.4 1 .4.9 0 1.5.6 1.5 1.5v.8h-.7c-.8.2-2.9 0-4.1-.4l-.8-.2v1.3l1 .4c.6.1 1.2.4 1.4.7.2.2.7.4 1 .4.4 0 .9 0 1 .2.2.2.8.3 1.4.4.7 0 1.1.1 1.1.3 0 .2.7.5 1.5.8 1.7.5 4.2 1.8 4.4 2.3l.1.4-.6-.1c-.8-.2-.8.3-.1.7l.5.3-.3.5-.3.5.3.6.4.7-.5.9-.4 1 .3.5c.4.7.3.9-.2.7-.2-.1-.6 0-1 .4l-.6.5-.2-.3-.5-1c-.2-1-.5-1-1-.3l-.2.5-.7-.1-.6-.2v2l.7.4.7.4-.2 1.8c-.2 2 0 2.8.6 3 .3.1 1 .7 1.7 1.3l1.2 1.2v.7l.3 1.7.3.9-.5.5-.5.5-.7-.1-.7-.2.1-.6c.2-.5-.2-1.3-.7-1.3l-.6 1c-.2.5-.5 1-.7 1-.5.4-.2 1 .6 1.2l.9.2v1.4c0 1.8-.2 2.4-1 2.2-.2 0-1 0-1.8.3l-1.4.5-.3-.5c0-.2-.6-.6-1.1-.8-1-.4-1.1-.9-.5-2 .5-.8.5-1 0-1-.2 0-.4-.2-.5-.5a1 1 0 0 0-.7-.6l-.4-.2-.2-1.8-.1-1.8.3-.2.3-.2-.6-.5c-.3-.2-.6-.7-.7-1-.1-.4-.5-.8-.9-1l-.6-.2-.8.8c-1 1-1.5 1-1.4 0l.1-.7-.7-.1c-.5 0-.9-.3-1-.7-.2-.3-.4-.5-.5-.4-.1.1-.2 0-.2 0 0-.2.1-.5.3-.7l.4-.3-.7-.5c-.6-.6-1.9-.7-1.9-.2v.3l-.4-.4-.4-.3-.2.4a1 1 0 0 0-.1.7v1c0 .4.2.6.5.6.2 0 .4.2.4.4s.1.4.3.4c.2 0 .8.5 1.4 1l1 1-.5.2-1 .2c-.4 0-1 .3-1.5.8-.4.4-.8.6-1 .5-.2-.5-.6-.2-.5.3.2.7-.4.7-1-.2-.6-1-2.5-2.2-3.4-2.2-1 0-.8.5.4 1.1 1.2.6 2.1 1.6 2.1 2.5 0 .4.2.6.5.7.3 0 .2 0-.2.2l-.6.3.4.6.6 1 .4 1 .4.7.8-.1c.8-.1 1.4.4.9.7-.4.3 0 .8.7.9 1 .1 1 .7 0 .9l-.7.1v.5c0 .3 0 .6.2.7.2.1.1.4-.3.8l-.6.7.4.2c.2.1.2.3 0 .4-.3.2-.4 0-.6-1l-.2-.7h-.5c-.3 0-.6 0-.6.2s.2.3.4.3c.3 0 .4.2.4.4v.4l-.6-.2a2 2 0 0 1-.8-1c-.4-1-.9-1.7-1.4-1.7-.5 0-.4.4.1.7l.5.3-.3.3-.3.3-.6-.5a2 2 0 0 1-.5-1.4c0-.6 0-.8.2-.5 0 .2.3.4.4.4l1 .3.9.2-.4-.5-.8-.4c-.7 0-.7-.5-.1-1.1.6-.7.2-1-.4-.4l-.5.5-.5-.7c-.2-.4-.3-.8-.2-1 0-.1 0-.2-.3-.2h-.3l-.2 1.3c-.2 1.6 0 4.8.4 4.6.2 0 .1.1 0 .4l-.3.6v4l.1 4 .4.1c.2.2.3.3 0 .4-.2.2-.4 10 0 10.3l.2 19.9.2 19.7h-2.2v-40.6l-.4-.5-.3-.5.3-.3.3-.4v-4.5a47.7 47.7 0 0 0-.4-6.9c.3-1.1.2-1.4-.6-2-1-.5-1.3-.5-2 .5l-.6.9v3.5c0 2 0 3.5.2 3.6l.3.2-.3.5c-.3.5-.3 2.6 0 2.6v3.5l.6-.2.6-.1-.6.3-.6.3v40.1h-1v-52.8c0-4.8-.1-7.7-.3-8l-.3-.6h.3c.2 0 .3-.7.3-1.7V220l-.4.4-.4.3-.8-.7c-.8-.8-1.2-.9-1.4-.3-.1.2-.5.4-.9.5h-.7l-.1 2.7c0 1.5 0 2.8.2 2.9l-.2 1-.3 1 .2 1 .2 1h.6c.7 0 .7.1 0 .8l-.5.4v2.7l.8-.2.8-.2-.3.4a2 2 0 0 1-.8.6l-.5.1v1.7l.8-.8.8-.8-.8 1.2-.8 1.2v3.1h.6l-.3.3c-.4.4-.4 5.6 0 5.9l.2.1-.3.5-.3.4V266l.1 18.8h-2.2v-23a1184.2 1184.2 0 0 0 .2-25.6c.3-.4.3-3.2 0-4.4l-.2-.7-.6.1-.7.2 1-.9c1-1 1.2-1.8.3-1.8-.8 0-1.1.6-.7 1l.3.4h-.4c-.5 0-1.8 1-1.8 1.3 0 .2.2.2.5.2h.4l.3.7.3.8-.7.9c-.7.8-1.5 1-2 .5-.6-.6-.7 0-.1.8.8 1.2.7 1.6-.3 1.1l-.5-.3v.4c0 .3-.1.4-.3.4l-.2.5c0 .7-2.6 1.6-4.6 1.7h-.7v-1.2l-1-.8c-.5-.3-.8-.8-.8-1l-.1-.7c-.2-.3-.2-.5 0-.5s.3-.2.3-.5c0-.7.6-1 1.8-1h1.2l-.3-.3-.4-.3.4-.1.5-.2-.8-.8-1-.7c-.2 0-.3-.2-.3-.4 0-.3-.3-.4-.6-.4h-.5l.2-1.3.1-1.2-.5-.4-.5-.4.5.2c.6.2.8-.1.4-.6l-.3-.3h.4l.8.4c.4.5 1 .5 1.2 0l.3-.4.4.6.4.7h.8c.5 0 1-.2 1.2-.5.3-.6 1-.7 1-.3 0 .4 1.4.3 2-.1l.6-.5 1 .3c.7.2 1.4.3 1.6.2l.5-.2.1-1V224l-.1-.6-.4.3-.3.3v-.3c0-.6-1-.3-1.1.3l-.1.5-1.1.4c-1.3.5-1.5.4-1.2-.5l.2-.6-.3-.9-.4-.8h-.6c-.3 0-.9-.3-1.2-.7-.4-.4-.8-.7-1-.7-.2 0-.5-.2-.7-.5l-.4-.5-.8.7-.8.8.3.4 1 .7c1 .3 1 1 .2.7a2 2 0 0 1-1-.6c-.3-.4-.8-.5-.8 0l.4.8c.3.2.4.5.3.6-.3.3-1.8-.7-2.5-1.6l-.6-1-1.2.1-1.3-.1-.7-.2h-.6l.2.8-.1.8c-.4 0-.3 2.8 0 3l.4.1h-.3c-.5 0-.4.6.1 1.2l.5.6-.5-.4-.5-.2-.2 2.8-.2 2.7h1.1l-.5.3-.5.3.2 26 .2 26h-1.1v-31.3c.1-17.2.3-31.8.4-32.5l.2-1.3-1.2.1c-1.4.2-1.8 0-1.6-1 .1-.6 1.3-1.6 1.6-1.3l.8-1.1.6-1.2-.3-.7c-.3-.6-.6-.8-1-.3 0 .2.1.5.4.7l.5.3h-.9c-1.1 0-2-.4-1.7-.9.1-.4-.3-.5-.6-.1-.3.5-1 .3-1-.4v-.7l.5.1c.2.1.4 0 .4-.3 0-.6.5-1 1-1s.8-.8.8-1.9c0-.3.2-.6.5-.7.7-.2.7-.7 0-.7-.2 0-.5-.1-.6-.3l-.2-.3.7.2c1.3.4 1.6.3 1.7-.3v-.6l-.7.2-.9.1.2-.4c.1-.4.2-.4.3-.2l.1.3.4-.3c.5-.4.5-.8 0-.7-.2.1-.4.1-.4 0 0-.4-1.4 0-1.5.4-.2.5-.9.4-.9 0v-.5l-.5.2-.4.1.5-.5c.6-.7 1-.7.8 0l-.2.6.3-.3.4-.3-.4-1.5-.3-1.8h-.7l-.8.1-.3-.5-.2-.5.5-.4.6-.4h-.4c-.8 0-2 .7-2 1.2 0 .4.2.5.7 0 .2-.2.1 0-.2.5-.4.6-.5.9-.3.9h.3l-.3.4c-.3.4-.3 2.7 0 3.2.2.2.1.4-.1.5h-.4v4l.2 4c.2 0 0 .5-.1 1a5 5 0 0 0-.4 2.2c0 7-.3 20.7-.5 25.3-.2 3.6-.2 12.5-.1 23.2l.1 17.4h-2.5l.2-13.4a474.4 474.4 0 0 1 .8-26c0-2.6.2-5.8.3-7.2l.1-2.6-.6-.6-.7-.7h1.5v-.7c0-.4-.2-1-.4-1.4l-.4-.5.4.1.5.2-.2-.8.1-1c.9-.6 0-3.3-1-3-.2.1-.3.1-.2 0 .1-.2.4-.3.7-.3l.6.1v-1l.1-1-.3.1c-.6.2-.5-.2 0-.5l.4-.3.2-2.4.1-2.4-1-.4c-.5-.2-1.5-.4-2.2-.4h-1.2l.7.6.7.6.3 1.8.3 1.8-.3.4c-.2.2-.6.3-1 .3h-.6v-.6c0-.7-1-1.6-1.4-1.3l-.2.9v.8h-1.4l-.4-.8-.8-1-.4-.4-.3.3a1 1 0 0 1-.7.3h-.4l.3-.4.4-.4-.7-.7-.7-.6-.5.2c-.7.4-.8.4-.8-.1 0-.2-.2-.4-.4-.3-.2 0-.3.4-.3.9 0 1.1-1.4 2.2-1.9 1.4 0-.2-.3-.2-.5 0h-1c-.5 0-.8.4-.4 1 .2.2.2.7.2 1.2v1.2l.3.2-.4.7c-.2.3-.4 1.2-.4 2l-.1 1.2h.4l.7.1c.7 0 .3.8-.5 1-.8.2-1 .6-.5 1.1l.3.3-.2.4-.3.3v5l.1 5.5v20.8l.2 20.4h-2.2l.1-25.5.2-25.5h-.4c-.5 0-1-1-1.1-1.7 0-.3-.3-.7-.6-1l-.5-.3.6.2.6.2-.1-.5c-.1-.2-.5-.4-.8-.5-.8-.2-.8-.2-.2-1 .4-.8.3-.9-.5-.4l-.5.3-.4-.5a2 2 0 0 1-.4-1v-.4l-.8.1c-2.2.4-4 2-3.8 3l.2.6h-.5l-.5-.2v6.2h.3c.1 0 .4-.1.6-.4l.6-.4c.2 0 .7-.1 1-.3.5-.3.9-.3 1-.2 0 .2.3.3.6.3.2 0 .4.2.4.5v.5l-.9.2c-.5.1-1 0-1.2-.1-.6-.6-1.4-.4-2 .6l-.5.9v3.4c0 2 0 3.5.2 3.6l.3.2-.3.5c-.3.6-.3 2.6 0 2.6 0 0 .1.8 0 1.6v1.6h1.2l-.6.3-.6.2.2 16.2.2 16.1h-1.7l.1-28.4.2-28.5h-.3c-.1 0-.3-.1-.3-.4 0-.2.1-.3.3-.3.1 0 .2-.6.2-1.3v-1.2l-.6-.3c-.3-.2-.5-.4-.5-.6.1-.2 0-.4-.2-.4h-.3l.2 2.6c.3 3.3.3 3.2 0 4.8l-.2 1.4h.9l-.3.3c-.3.4-.4 3.8-.4 12.2v3.4l.5.3.4.4-.3.2c-.2.3-.4 2-.3 4.9v16l-.2 15h-1.3v-10.6c0-5.8.2-12.3.3-14.5l.2-4-.5-.5-.5-.6.5-.1.6-.2-.2-5a107.8 107.8 0 0 1 0-11.5v-11.6l-.2-2.8-.7.8-.7.8-.5-.4-.6-.5.5-1c.3-.5.5-1.2.5-1.5v-.6l-.5.2c-.6.1-.8.6-.3.6h.3l-.3.4-.3.4-.2-.3-.2-.3-.5.5c-.8.7-1.4.9-2 .5-.8-.6-1.3-.6-1.1 0 .3.8-.7.3-1.2-.6-.6-1-.9-.7-.8.8v1.5h.8l-.4.3-.4.3.3.8.6 1.3.2.6.2-.6c.1-.4.4-.6.5-.5.1.1.3 0 .3-.2s.1-.5.3-.7c.3-.2.5-.6.5-.9l.2-.6.2.6c.2.8.2.8 1.1 0 .9-.5 1.4-.4 1.4.4 0 .2 0 .5.2.6.2.1.3 0 .3-.2s.2-.4.4-.4h.3l-.3.6c-.1.4-.4.7-.6.7-.5 0-.4.5.1 1 .6.7.3 1-.6.6l-.7-.3.2.8c.2 1-.3 1.8-1.2 2-.8.2-1 .6-.5 1.1l.4.3-.6.7c-.7.7-.8 1-.2.8.2 0 .4 0 .3.1-.4.6-1 .3-1-.4l-.1-.8h-.6c-.3 0-.6 0-.6.2l.4.2c.2 0 .4.2.4.4 0 .5-.8.3-1.3-.3l-.3-.4v52h-1v-10l-.3-26.2-.1-16.5-.5-.5c-.5-.5-.6-1.6-.2-1.6.1 0 .2.1.1.4-.1.2 0 .4.2.4h.4V229l-.3.1c-.4.2-1.3-.9-1.1-1.4l.2-.4-1 .2c-2.1.4-3.8 1.6-3.8 2.8v.8l-.5-.1H84v3l.1 3.1c.1 0 .9-.3 1.7-.8 1-.4 1.7-.6 1.7-.5 0 .2.3.3.5.3.3 0 .5.2.5.5v.5l-.9.2c-.5.1-1 0-1.2-.1-.6-.6-1.4-.4-2 .6l-.6 1 .1 3.4a468.6 468.6 0 0 0 0 5.5l.1 1.3.2 1.6-.1 1.6h1.2l-.6.3-.6.2.2 16.2.2 16.1h-1.1l-.2-13.7-.2-28.4a233.5 233.5 0 0 0-.3-15.5c.3 0 .4-1.8.2-2.5 0-.2-.4-.5-.7-.5h-.5l.3-.4.3-.4h-.4a.6.6 0 0 1-.5-.3c-.1-.3-.4-.4-.6-.4-.4 0-.5.4-.2.5.2 0-.1.5-.6 1l-.8.8-.6-.4-.6-.4.3-.3.5-1 .3-.9-.4.4-.4.3v-.4c0-.2.2-.4.4-.4s.4-.2.4-.4v-.4l-.5.2c-.2 0-.6.4-.9.7l-.5.5v9.1l.5-.1.3-.2v.7c0 .4 0 .7-.2.6-.2-.1-.3 0-.3.4v.6l.5-.2.5-.1-.5.7-.6.8.2 6.2a35.3 35.3 0 0 0 .4 7.5v9.3c.2 4.8.3 12.8.3 17.8v9.2H76v-33l-.6-.6-.5-.5h.4c.7 0 1-5 .3-6-.2-.3-.2-2.7-.2-5.4l.1-5h-.4c-.3 0-.4-.2-.4-.6 0-.8-.5-1.3-1-1-.5.1-.4.5.2.6.3.1.5.3.4.4-.4.7-1.7-.4-1.8-1.4 0-.4-.2-.8-.6-1l-.6-.5.7.2.6.2-.3-.6c-.2-.3-.5-.5-.7-.5-.5 0-.5-.6 0-1 .4-.5 0-.8-.5-.4-.2.2-.5.3-.7.2-.1-.1-.2 0-.2.5 0 .4 0 .7.2.7s.2.1.1.4c0 .2 0 .4.3.4.2 0 .3.1.3.3-.1.3 0 .5.4.6l.5.2-.3.3c-.4.6-.6.5-1-.4l-.4-1-.1 1 .2 9.6c.2 4.9.4 16.6.5 26L71 285h-2l.1-16.7-.1-24-.2-7.2-1 .2c-.6.1-1 0-1.2-.1-.3-.6-1.3-.3-1.9.4l-.5.7v3.5a136.8 136.8 0 0 0 0 6v1.1h.3l.4-.1-.3.5c-.1.3-.3 1-.3 1.7v1.2h1.2l-.6.3-.6.3.2 16.1.2 16.1H63l.2-26.3.1-26.3-.3-.6-.3-.5.3.1.3.2v-1.7c0-1-.2-1.8-.4-2l-.3-.3.3-.2c.7-.5.4-3-.5-3H62l.3-.4.3-.4h-.4a.6.6 0 0 1-.5-.3c-.2-.5-1-.6-1-.2 0 .2.2.3.3.3.4 0-.5 1.3-1 1.6l-.5.2-.6-.4-.6-.4.5-.5c.2-.3.5-1 .5-1.6l.2-1-.6.2-.7.7c-.1.2-.3.4-.5.4-.7 0-.9 2-.3 3.5.2.5.3 1 .1 1l-.2 2v2.2l.5.3.4.2h-.9v10a2157.5 2157.5 0 0 1 .3 26.9V285H56v-45.6l-.3-.4-.4-.3h.7v-8l-.8-.8c-.5-.5-.7-1-.6-1.2 0-.3 0-.6-.2-.6s-.2.2-.1.4c0 .1 0 .2-.1 0-.4-.1-.5-.8-.1-1 .2 0 1-1.7 1-2.2 0-.2.2-.3.3-.3l.4-.6c.2-.8-.6-1.6-1.3-1.4a2 2 0 0 1-1.2-.6l-1.2-.6c-.4 0-.5-1 0-2l.2-.6-.6-.7c-.4-.4-.8-.7-1-.7-.5 0-.8-3.8-.2-4l.3-.2-.5-.4c-.6-.4-1.5-.5-2.2-.2l-.5.3v5.5h1l.9-.1-.9.4-.8.4v2.4c0 1.3-.2 3-.3 3.8v1.6c.2 0 .2.5.2 1-.6 3.8.3 14.7 1 14.1.3-.2.3 0-.1.5l-.6.8.1 6.4c.1 3.6.3 12.9.3 20.7l.2 14.2h-2.2v-12.1l.2-12.2-.4-.3-.3-.4.3-.3c.7-.7.6-5.5-.1-6.2l-.3-.3.2-1.7a585 585 0 0 0 0-32.6c.3-.1.2-1.3-.2-1.4l-.3-.2h.7v-2.4c0-1.3-.1-2.4-.3-2.5-.2-.1-.2-.4-.2-.7v-.6l-.6-.1a2 2 0 0 1-.9-.3c-.1-.2-.5-.3-.7-.3H43l.2-.4c0-.3.3-.6.4-.7.2-.2 0-.2-.3-.1-.3 0-1 0-1.4-.3-.8-.5-1-.4-1.2.7v.8h.8c-.2 0-.3.2-.3.3 0 .2-.2.5-.4.6l-.4.3.2 2.9v2.8h.9l-.4.4-.5.3.3 11.9.4 33.5.2 21.6h-2.4v-22.1c0-12.2 0-27.3-.2-33.5l-.2-11.3-.3.2c-.5.4-1.7.6-1.9.3 0-.2-.3-.2-.5-.1l-1-.3c-.7-.6-1-.2-.2.5l.7.5-.6-.1-.6-.2v3.5c0 2.1 0 3.4.2 3.4h.3l-.3.5-.2.5.1 3.9.4 4c.1 0 .1.4 0 .8-.2.4-.2.9-.1 1l.1 4.8a466.5 466.5 0 0 1 .5 24l.1 19.7h-2.5l.2-18.8c.2-19 0-21.9-.6-22.6l-.4-.4h.9l-.1-5.2-.3-5.6.2-7.6c.2-7.8.2-8.3-.7-8.3-1 0-1-.3-.1-.8l.8-.4.1-2v-1.8l-1-.6-1.2-.5h.8c.4 0 1 .2 1.3.5l.5.4-.1-.9-.1-1h-1c-1.6-.1-2-.3-2-.8v-.6h-.6l-1.4-.4-.7-.5.1-.7c.1-.5 0-.7-.1-.6-.2.1-.4 0-.4-.4-.2-.7-1-1-1.3-.4-.5.6-.8.5-.6-.2.2-.7 0-1.3-.7-1.5l-.6-.3h.7c.9 0 1.1-.3.8-.8l-.2-.3-.9.3c-.4.2-1 .6-1.3 1-.3.3-.6.6-.8.6-.4 0-.3.5.1.7.3.1.4.4.4.9 0 1.3 0 1.8.4 1.8.5 0 1 .7.8 1.2 0 .2-.4.4-.7.4-.5 0-1 1-.8 1.4 0 .1.4.2.9.2h.8v.4c0 .2.1.4.4.4.2 0 .3.2.3.3l.3 1.4.3 1 .5-.2.4-.1-.3.3-.3.3-.7-.3-.6-.4-.6.3c-.6.4-.7 1-.2 1.2.2 0 0 .1-.3.2h-.6l.1.4c.1.2 0 .5-.2.6-.4.4-.2 1.6.3 2 .3.3.4.5.3.6-.3.2-1.8-.4-2.2-.9l-.3-.5-.4.4-.3.3.5.2c.6.2 1.4 1 1.4 1.5s1 1 1.5.8c.2 0 .4-.3.4-.5 0-.5.4-.5.8 0l.7.4h.4l-.3.4c-.2.2-.3.5-.2.8.1.2 0 .5-.4.6l-.5.3.8 1c1.6 2 2.7 2.7 2.2 1.5l-.1-.4h.7c.5 0 1 .2 1.3.5l.4.6-.4.9-.4 1-.6-.4c-.4-.1-.9-.2-1.1-.1l-.5.2.5.5 1 .6c.8.2 1 .7.3.7-.2 0-.4.2-.4.4s.1.4.3.4c.3 0 1.3.8 1.3 1.1 0 .2-.1.2-.3 0l-.3-.1.2.4-.1.5c-.2 0-.3 0-.3.2s.3.3.9.2c.4-.1 1 0 1.2.1l.4.3-.3.1c-.5.2-.4.6 0 .6.9 0 .1.6-.9.7l-1 .2-.3.7c-.2.3-.2.8-.1 1 .2.5-.1.4-.8-.3l-.6-.7-.5.3c-.3.2-.5.5-.4.7 0 .2 0 .4-.1.3-.2 0-.5 0-.9.2l-.6.2v.7c0 .9.5 1.4 1.3 1.2l.6-.2v.6c-.1.6-1 1.8-1.4 1.7v3.1c.5 15.2.8 41.2.4 41.2-.1 0-.3-7.3-.4-16.2-.2-13.7-.4-22.9-.8-27.8 0-.6-.2-1.1-.5-1.3l-.4-.2-1.2.5c-.7.3-1.6.6-2 .6h-.8l.1 2.4c.3 5.3.7 25.9.7 33.8v8.2h-1.1zm6.4-24.5v-.1h-.2l.1.2.1-.1zm-1.3-2c.2-.3.2-.7.1-.8l-.1-1.3v-1.1l-.9.1c-1 .2-1.1.4-.7 1l.3.5H22c-.5 0-1-.1-1.2-.3l-.3-.3v.3c0 .2.1.3.3.3.1 0 .2.2 0 .4 0 .2-.2.4-.3.4-.1 0-.2-.2 0-.4 0-.2 0-.4-.2-.5H20l-.1.7v.3c.2 0 .4 0 .5.2l.8.2c.4 0 .9.2 1 .4.6.6 1.7.5 2-.1zm-4.5-.1-.1-.2-.1.2v.1l.2-.1zm128-.7c0-.2-.2-.4-.4-.5-.2 0-.3.1-.2.4.2.4.8.5.6 0zm-81.5-1c.8-.5 1.6-.7 1.6-.6 0 .2.4.3.6.3h.5v-4.2l-.1-4.1h-.7a5 5 0 0 0-1.7.8l-1 .8-.2.7c0 .5-.3.8-.5.8h-.4v3.1l.1 3.1c.1 0 1-.3 1.8-.8zm-1.1-2.4c0-.2.2-.3.3-.3v.3l-.3.2c-.1 0 0 0 0-.2zm.4-.8.4-.6.5-.4-.3.6c-.4.7-.6.8-.6.4zm3.4 3.3-.1-.2-.1.2.1.1.1-.1zm-43.6-.4c0-.2-.1-.3-.3-.3-.1 0-.3.1-.3.3l.3.2c.2 0 .3 0 .3-.2zm127.9-.3-.4-.2c-.1 0-.3 0-.3.2s.2.3.5.3c.2 0 .3-.1.2-.3zm-1.5-.3c0-.2-.3-.4-.4-.4-.2 0-.3 0-.2.3.2.5.7.6.6.1zM22 234.1c1-.5 2.1-2 1.2-1.7-.2 0-.5 0-.6-.2-.2-.1-.4 0-.6.2l-.7.4c-.2 0-.6.3-.9.6l-.5.6v-.7c0-.4.2-.8.4-1 .3-.1.4-.3.3-.5-.5-.4-1.1.4-1.2 1.6v1.2h1c.5 0 1.2-.3 1.6-.5zm5.3 0-.4-.3c-.6-.3-.7-.2-.7.2 0 .2.3.4.6.4s.5-.1.5-.2zm48-.5c0-.3 0-.2-.1.1l.1.4v-.5zm79.4.3-.1-.3c-.1 0-.5 0-.7-.2-.3 0-.4 0-.4.3 0 .5 1 .6 1.2.2zm-129-.7c-.2-.1-.3 0-.3.1 0 .2.1.3.2.2v-.3zm87.8-.1c0-.2 0-.3-.2-.3s-.3.1-.3.3c0 .1.1.2.3.2.1 0 .2 0 .2-.2zm-88.7-.2a.3.3 0 0 0-.3 0c-.1.1 0 .2.1.2.2 0 .3-.1.2-.2zm2.5-1.4c0-.2-.2-.3-.4-.3s-.4.1-.3.3l.4.3c.2 0 .3-.2.3-.3zm47-.2c.4-.3.6-.7.5-.8-.3-.5-.8-.4-.6 0v.3c-.2 0-.4.1-.6.4-.4.7 0 .7.8 0zm16.4 0s-.2 0-.2.2.1.3.2.2c.1-.1.1-.3 0-.4zm3 0c0-.2.2-.3.3-.2.1 0 .2 0 .2-.4 0-.8-1.2 0-1.3.9 0 .3.6.2.7-.2zm19.8 0c0-.2 0-.3-.2-.2-.2 0-.3.3-.3.4 0 .1.1.3.3.3.1 0 .2-.2.2-.5zM24 231c-.1 0-.2 0-.2.2s0 .3.2.2v-.4zm-1.3-.7s0-.2-.2-.3l-.3.1c0 .2.1.3.3.3h.2zm-1.8-.4c0-.3-1-1.2-1.3-1 0 .1 0 .2.2.2h.4l-.4.4-.3.3.4.2c.5.2 1 .2 1 0zm3.2 0-.2-.3-.2.3v.3c.2 0 .4-.2.4-.3zm1.4-.3-.1-.5-.3.1-.2.6-.1.4h.3c.2-.1.4-.4.4-.6zm49 0c0-.1 0-.2-.2-.2-.1 0-.2 0-.1.2 0 .2.2.3.3.3v-.3zm-57.6-.5c0-.1-.1-.3-.3-.3l-.2.3c0 .2.1.3.2.3.2 0 .3-.1.3-.3zm149 0a5 5 0 0 1 1.4-1l1-.4.2-4v-4l-.9.7-.9.5-.1-.4-.2-.5-.3.3-.3.3.3.4c.2.2.2.5 0 .7-.1.2-.2.6 0 .9v.4h-1v3.2c0 3.2.1 3.5.7 2.8zm0-3 .1-.2.1.2-.1.1-.1-.1zm.5-1 .6-.6-.2.5c-.5.8-.8.9-.4.2zm-81 3.3c0-.4-.4-.5-.6 0-.2.3 0 .8.4.6l.2-.6zm20.1 0c0-.4-.4-.5-.6 0-.2.3 0 .8.4.6l.2-.6zm-39.6 0c0-.2-.2-.3-.4-.3-.4.2-.5.7 0 .7.2 0 .4-.1.4-.4zm-49 0c0-.2.3-.4.6-.5l.6-.1-.4-.3c-.5-.3-1.3.1-1.3.7l.2.4c.2 0 .3-.1.3-.3zm57.4 0c0-.2-.1-.4-.3-.4-.1 0-.2.2 0 .3 0 .2.1.3.2.3l.1-.3zm39.4-2v-1.8l-1 .4c-.8.4-.8.6-.1 1.5l.5 1c.3 1.4.6.8.6-1zm-92 1.4c.2 0 .2-.1.1-.3-.2-.3-1.2-.3-1.2 0 0 .1-.2.2-.5.1-.3 0-.5 0-.5.2s.3.2 1 .1l1.2-.1zm45.4-.1.6-.5c.2 0 0-.3-.5-.7l-.8-.6v1c0 1.1.3 1.5.7.8zm19.4 0s.2-.3.5-.4l.6-.2-.8-.6-.8-.6v1c0 .7 0 1.1.2 1.1s.3 0 .3-.2zm20.1 0s.2-.3.5-.4l.6-.2-.8-.6-.8-.6v1c0 .7 0 1.1.2 1.1s.3 0 .3-.2zM74 227c0-.3.1-.6.4-.8l.4-.8c0-.7.4-.7.6 0l.1-.6c0-.7-.1-1.3-.4-1.6-.5-.5-1-.6-.7 0 .2.4 0 .4-.6.2-.2-.1-.4-.3-.4-.5 0-.3-1-1.5-1.4-1.5 0 0-.4-.1-.6-.4-.5-.5-1.4-.5-1.4 0 0 .2.4.6 1 1 1 .6 1.7 1.8 1.5 2.5l-.2.4h1l-.5.2c-.7.1 0 2.4.8 2.4.2 0 .4-.2.4-.5zm-5.3-.2c0-.2-.2-.3-.3-.2-.1 0-.2.3-.1.4.2.4.4.3.4-.2zm20 .2c0-.3-.7-.6-.8-.3-.1.1 0 .3 0 .4.3.2.9.2.9 0zm20.2 0c0-.3-.8-.6-1-.3l.1.4c.3.2.9.2.9 0zm-91.2-.4c-.1-.5-.8-.5-1 0l-.2.4h.6c.4-.1.6-.3.6-.4zm7.8.2a.3.3 0 0 0-.4 0c-.1.1 0 .2.2.2s.3 0 .2-.2zm.6-.3c0-.2-.2-.3-.3-.3-.2 0-.2.1-.1.3l.3.2v-.2zm-3.3-.2h-.5c-.2 0-.1.1.2.1.3 0 .4 0 .3-.1zm-4.4-.9c-.1 0-.3-.3-.2-.4 0-.5 0-.7-.3-.5l-.3.1.3.6c.1.2.4.5.6.5h.3zm48 0c.1-.1 0-.3-.2-.3-.3 0-.4.2-.4.3 0 .1 0 .3.2.3l.4-.3zm19.5 0-.3-.3-.3.3.3.3.3-.3zm20 0c0-.1 0-.3-.2-.3l-.3.3.3.3c.2 0 .3-.2.3-.3zm-94-.6c.7-.6.9-1.2.4-1.2-.1 0-.3.1-.3.3 0 .2-.2.5-.5.6-.3 0-.5.3-.5.5 0 .5.3.5 1-.2zm6.2-1.1-.4-.2h-.5l.4-.2.3-.2-.7-.7c-.9-.8-1.5-.9-2-.3l-.2.3.3.3.7.4c.2 0 0 .2-.3.2-1 0-.9.6.1.7.4 0 .8.3 1 .5l.3.3.5-.5.5-.6zm2.4 0c0-.4-.7-.9-1-.6v.7c.3.6 1 .5 1-.2zm-6.9.1c0-.1 0-.2-.2-.2s-.3 0-.4.2c-.1.2 0 .3.2.3s.4-.1.4-.3zm161.3-.4c.1-.2.3-.3.4-.2.2 0 .3-.1.3-.4 0-.8-.4-.7-1 .2-.2.5-.3.8-.1.8.2 0 .4-.2.4-.4zm-74.3-.6c-.1 0-.2 0-.2.2s.1.3.2.2v-.4zm12.3-.2c0-.5-2.3-2-3-2-.4 0-.8 0-.9-.2 0-.2-.4-.3-.7-.3h-.5l.3.4c.2.3 1 .8 1.9 1.2a5 5 0 0 1 1.6 1.2c.2.4 1.3.2 1.3-.3zm-88.9-.8c0-.4 0-.7-.2-.7l-.4-.2v1.6H23c-.3 0-.5.1-.5.2 0 .6 1.5-.3 1.6-.9zm42 .8c0-.2 0-.4-.2-.4-.4 0-.6.4-.4.7.3.2.6.1.6-.3zm1.3 0c0-.2-.1-.4-.4-.4-.4 0-.5.3-.2.6s.6.2.6-.2zm18.3.2c0-.3-.5-.7-.7-.5-.2.2.1.7.5.7 0 0 .2 0 .2-.2zm1.3-.3c0-.2-.2-.3-.4-.3-.4 0-.5.3-.2.6.2.2.6 0 .6-.3zm18.8.3c0-.3-.5-.7-.7-.5-.2.2.1.7.5.7.1 0 .2 0 .2-.2zm1.3-.3c0-.2-.1-.3-.4-.3-.4 0-.5.3-.2.6.2.2.6 0 .6-.3zm50.3.3c0-.3-.7-.2-1 0 0 .1.1.2.4.2.3 0 .6 0 .6-.2zM15 222c.6-.5.4-.8-.4-.8H14l-.2.6c-.2 1 .2 1.1 1.2.2zm75.8-1c0-.2-.5-.4-1-.4-.4 0-.8 0-.9-.2 0-.2-.4-.3-.7-.3h-.5l.3.4c.2.3.9.7 1.6 1l1.2.7v-.4c.1-.2 0-.6 0-.8zm25.5 1c0-.2-.2-.2-.4-.1l-.4.2.4.1c.2 0 .4 0 .4-.2zm30.4 0c.2-.1.3-.4.2-.5-.3-.5-1.2-.4-1.3 0-.3.7.4 1 1 .5zm28.6-.3c0-.1-.1-.3-.3-.3l-.2.3c0 .1 0 .3.2.3s.3-.2.3-.3zm-156.6-1v-.6l-.6.1c-.3.2-.6 0-.7-.2-.3-.8-1.6-.8-1.6 0 0 .2-.2.4-.3.4-1.4 0 .8 1 2.3 1h.9zm-2 .2c-.2-.2-.1-.3 0-.2l.4.4c0 .2-.3 0-.4-.2zm136-.2c.3 0 .7-.4.8-.7 0-.4.2-.7.4-.7l.2-.6c0-.8 1-1.5 1.8-1.5.6 0 .8-.4.4-1l-.2-.4-1.2.3a8 8 0 0 0-2.1 1.3l-1 1-.7-.3c-.4 0-.7 0-.7.2l-.4-.1c-.2-.2-.7-.4-1.2-.4l-1.2-.1c-.1 0-.6.2-1 .6-.4.4-.7.8-.5.8.2 0 .4-.2.4-.3 0-.5 1.4-.3 2.1.2 2.3 1.8 3 2 4.1 1.7zm-128.5-.2-.1-.1-.1.1v.1h.2zm37-.2c.9 0 1.4-.7 1.3-1.7v-1l-1-.2H59l-.5-.2v-1.7h-1l-.2 1.3c-.2.8-.1 1.3 0 1.5l.3.3.8-.3.8-.3.2.9.2 1.3-.1.5.6-.2 1.2-.2zm7.4-.1c-.1-.1-.2 0-.2.2s0 .2.2.2v-.4zm11.3.2c.1-.2.4-.3.7-.2.3 0 .7 0 1-.3l.5-.3v-2h-1l-.8-.4c0-.1-.2-.3-.5-.4-.2 0-.6-.4-.7-.8l-.4-.7.5-.5.4-.5h-.3c-.2 0-.3-.2-.2-.4 0-.2 0-.4-.3-.5l-.3-.1v.5c0 .4-.1.7-.5.9a1 1 0 0 0-.3 1.6c.3.4 0 .9-.4.9-.3 0-.4.3-.4.7 0 .7.1.7 1.1.4l.7-.3v.6c0 .4.1.8.3.9.1 0 .2.4.1.6l-.1.5h.4c.2 0 .4 0 .5-.2zm20.3 0 .8-.4-.2-1.2c-.2-1.6-.4-1.9-1-1.9-.2 0-.5-.1-.6-.3-.3-.5-1-.7-1-.2 0 .4-2 1.2-2 .8 0-.2-.3-.3-.5-.3-.7 0-.7.5-.1.6.2.1 0 .2-.6.2-.5 0-1.2 0-1.5-.2-.3-.2-.5-.2-.5 0s.4.3 1.8.6c.5.1.9.4.9.6 0 .2 0 .3.2.2l1.6-.5 1.3-.3v.6c0 .3.2.7.3.8.2 0 .2.4.1.6-.2.6 0 .7 1 .2zm43.5-.2c.8-.9.4-1.1-1-.5l-.8.3.5.3c.7.4.8.4 1.3 0zm24.4-.6c.5 0 .2-.6-.4-1l-.6-.4v2.3l.4-.5.6-.4zm-19.5-.3c0-.1-.2-.3-.4-.3l-.4-.2v1.4l.4-.4.4-.5zm-89.6.2c.1-.4 0-.7-.4-.7-.2 0-.3.2-.3.5 0 .6.5.7.7.2zm19.5-.3c0-.2-.2-.4-.4-.4-.4 0-.6.5-.3.9.3.2.7 0 .7-.5zm20-.3-.2-.5-.3.3c-.2.2-.2.5-.1.8l.2.4.2-.3c.2-.1.3-.5.2-.7zm3.5-.2-.3-.3v1.6l.3-.5.3-.5-.3-.3zm39.3 1a.3.3 0 0 0-.3 0l.2.1c.2 0 .2 0 .1-.1zm4.6 0s0-.2-.2-.3c-.2 0-.3 0-.3.2 0 .1.1.2.3.2h.2zm18.2-1.3c0-.8 0-1.2-.2-1-.4.2-.3 2.2.1 2.2l.1-1.2zm-146.5.4c0-.2-.1-.3-.3-.3l-.2.4c0 .3 0 .4.2.3.2-.1.3-.3.3-.4zm2 .3a.3.3 0 0 0-.3 0c-.1.1 0 .2.2.2s.2 0 .1-.2zm-4-.4c1.5-.6 1.9-1.2.9-1.2-1 0-2 .6-2 1 0 .6.2.7 1.2.2zm5 0-.4-.2c-.1 0-.2.1 0 .3l.2.3.1-.3zm48-1.5c0-.3-.2-.5-.5-.6-1-.3-1-.2-1 .4v.5l-.5-.1c-.8-.2-.7 0 .2.9l.7.6.6-.6c.3-.3.6-.8.6-1zm0 1.1c-.3-.2-.5.2-.3.5l.2.4.1-.4v-.5zm20-.3c.4 0 .7.1.6.2-.3.5.3.6 1 .3l.6-.4v-3.5l-.6.2c-.7.1-1 .8-.5 1.1 1.2.7.1 1.4-1.4.9-1.4-.5-1.6-.5-1.6.2v.5l-.6-.1c-.7-.2-.6 0 .2.9l.8.6.3-.4c.2-.3.7-.5 1.1-.5zm0 .8c0-.3-.6-.6-.8-.5-.2.2.2.8.5.8l.2-.3zm20-.8c.4 0 .8.1.7.2-.2.4.4.7.6.4.3-.4 2.6-1.1 3.2-1l.5.2v-2.9l-.5-.5-.5-.4-.2.4c0 .2-.3.4-.5.4s-.4.2-.4.5v.4l-.3-.6-.3-.6-.5.2c-1 .3-1.2 1-.6 1.4l.4.6c0 .3-1 .6-1.4.3-.2-.2-.8-.3-1.3-.4h-.9l.1.4.1.5-.5-.1c-.8-.2-.7 0 .1.9l.8.6.2-.4c.2-.3.5-.5 1.1-.5zm-.1.7c-.2-.5-.7-.6-.7-.2 0 .3.3.6.6.6.1 0 .1-.2 0-.4zm24.2-.8c0-.6-.2-1.3-.4-1.5l-.4-.5.5.2.6.1v-10c1-1-.7-3-1.9-2.2h-.5c-.1-.2-.6-.1-1.1.2l-.9.4.5.1c.5.1.5.4.2.8l-.3.2.3.9.3.8-.3 1-.4 1 .3.2.3.6v.4l-.6-.2c-.8-.2-.8-.1-.4.8s.6.9 1.3 0c.8-1.1.9-1 1.4.2.5 1.3.6 1.2-.4 1.6-.8.3-1 1-.3 1.2l.4.2-.6.3c-.4.2-.5.4-.4.4v.3c-.3.3-.5 1.6-.4 2.5 0 .3 1.9 1 2.7 1.1h.5zm-60-.2c.4 0 1.1 0 1.7.2l1.1.3v-2.9h-.7c-.4 0-1-.2-1.2-.5l-.5-.5-.6.3-.7.6c-.1.2-.3 0-.4-.2l-.1-.5-.4.3c-.2.2-.4.2-.4.1l-.3.3-.3.4.4.4.3.4-.3.6-.3 1.2v.5l1.1-.5a5 5 0 0 1 1.7-.5zm72.1.6c0-.2 0-.2-.3-.1-.2 0-.4.2-.4.4 0 .3.6.1.7-.3zm-16.6 0c0-.3-.3-.6-.6-.4-.2.2 0 .6.4.6 0 0 .2 0 .2-.2zm-26.2-.6-.3-.4.2.5c0 .3.2.4.3.3.1 0 0-.3-.2-.4zm17.2.3c0-.4-.3-1-.6-1 0 0-.2.2-.2.6 0 .4.2.7.4.7s.4-.2.4-.3zm-101-.5c.2-.2.1-.3 0-.3-.2 0-.3.1-.3.3v.2c.1 0 .3 0 .4-.2zm37.5 0c0-.2-.1-.3-.3-.3-.1 0-.2.1 0 .3l.2.2.1-.2zm71.8-.2.5-.5.2.4.3.3.4-.8.4-.6-.3-.4c-.4-.5-1.4-.5-1.9 0-.1.3-.5.4-.8.4-1.3 0-1.7.8-.7 1.3.9.4 1.3.4 1.9-.1zm39.6.2c0-.2-.1-.3-.3-.3-.1 0-.2.1-.2.3 0 .1 0 .2.2.2s.3 0 .3-.2zm24.3 0c0-.3-.3-.6-.5-.4-.3.2 0 .6.3.6.1 0 .2 0 .2-.2zM38.6 217c.3-.2 0-6-.4-6v.7l.1.4-.3-.3-.3-.3.4-.8.4-.8H38c-.4 0-1 .1-1.4.3l-.8.3v-.3c-.1-.2-.3-.3-.6-.3h-.4l.2.5c0 .3 0 .7-.3.8-.2.2-.3.9-.3 1.8v1.5h1l1.2-.1c.2-.1.5-.1.8 0l.5.2h-.5c-.5 0-1.4.9-1.4 1.3l-.7.9-.6.6h1.9c1-.1 2-.2 2.1-.4zm26.5 0c0-.4-.5-.3-.6.2 0 .3 0 .4.2.3.2 0 .4-.3.4-.4zm19.5.2c.2-.4 0-.7-.4-.7 0 0-.2.2-.2.5 0 .6.4.7.6.2zm20 .2-.2-.2h-.3c0 .2.1.4.3.4.1 0 .3 0 .3-.2zm35.2 0v-.1l-.2.1.1.2.1-.2zm12.8-.4c.4-.3.7-.6.7-.8 0-.4-1.7-.3-2.2.2l-.5.4.5.4c.6.5.7.5 1.5-.2zm-137-.2c.1-.2 0-.3-.1-.3-.2 0-.3.1-.3.3l.1.2c.1 0 .2 0 .3-.2zm2.6-.3c.3-.3.4-.5.2-.6h-.3c0 .2-.2.3-.5.3-.5 0-.7.3-.3.7.2.2.5.2 1-.4zm48.5.3c.2-.4-.3-.6-.7-.2l-.3.4h.4c.2 0 .5 0 .6-.2zm19.4-.2c0-.2-.1-.3-.4-.2-.2 0-.4.3-.4.4l.4.2c.3 0 .4-.1.4-.4zm20.1 0v-.4l-.4.3-.4.4.4.1c.3 0 .4-.2.4-.4zm51.3-.2c-.1-.2-.3-.4-.5-.4h-.2l.3.5c.3.6.6.5.4-.1zm-140.8 0-.1-.4h.5c.4 0 .9-.2 1.1-.4l.5-.4-.5-.1c-1-.3-2.7.3-2.7 1l.5.1c.3 0 .5.2.5.3 0 .2.1.3.2.3 0 0 .1-.2 0-.4zm101.4 0c0-.1 0-.4-.2-.6l-.4-.5.4.3 1 .7.8.5.1-.4c.1-.2.4-.4.6-.4 1 0 .3-2.5-.9-2.8-.7-.2-.7-.6-.2-1.3 1-1.2 0-1.7-.8-.6l-.6.7-.4-.5c-1.1-1.3-2.5-.3-2.5 1.8v1.1l.6.3c.4 0 .7.3.7.3 0 .5-.4 1-.7 1-.5 0-.5.4.1.6.4.1 2.2 0 2.4-.3zm-1-1 .1-.2.2.1-.2.1h-.1zm-81.8.4c0-.4-.7-.5-.9 0v.4c.2.4 1 0 1-.4zm33 .3-.2.1c0 .2.1.3.2.2v-.3zm12-.1-.4-.5c-.3.3 0 1 .4 1h.3zm8.4.2c0-.2-.3-.4-.5-.4-.1 0-.4.2-.4.4s.1.3.4.3c.4 0 .6-.1.5-.3zm11.7.2-.1-.2-.1.2v.1l.2-.1zm8.5-.1c0-.3-.7-.6-1-.4-.2.3 0 .6.5.6l.5-.2zm-54.5-.9c0-.1-.1-.2-.3 0l-.2.3c0 .2 0 .2.2.1.2 0 .3-.2.3-.4zm88-.8-.3.1c-.2.3-.5.5-.7.5-.2.1-.2.3-.1.5l.2.4.5-.6.5-.9zm47.7.8c0-.1-.1-.2-.3-.2l-.2.4c0 .2.1.3.2.2.2 0 .3-.2.3-.4zm-170.4-.2c-.2-.1-.2-.4-.1-.5 0-.2 0-.3-.3-.3-.2 0-.4.1-.4.3 0 .4.7 1 1 .8 0 0 0-.2-.2-.3zm1.5.2-.5-.2c-.1 0-.1.1 0 .2 0 .2.2.3.4.3.1 0 .2-.1 0-.3zm131.9-.2v-.6l.5.2.5.2v-.5c0-1.4-1.5-1.4-2.2-.1l-.4.7.6.3c.8.4 1 .4 1-.2zm-63.5-.6-.4-.2c-.4 0-.6.3-.3.6.3.2.7 0 .7-.4zm20 0c0-.1-.1-.2-.3-.2-.4 0-.5.3-.2.6.2.2.6 0 .6-.4zm19.9.1c0-.2-.2-.3-.6-.3-.5 0-.7.1-.7.4v.4h.6c.3-.1.6-.3.7-.5zm38.6.2c-.2-.5-.7-.6-.7-.1 0 .2.1.4.4.4.2 0 .3-.2.3-.3zm-75-.4c0-.2-.6-.4-.7-.1-.1.1 0 .3.2.3l.4-.2zm3.9-.2c.5-.7 0-.9-.6-.2l-.6.6h.4c.3 0 .6-.2.8-.4zm-79.7-.2c0-.3-.7-.5-1.1-.3-.3 0-.4.2-.3.3.1.3 1.4.2 1.4 0zm46.3-.4c0-.2 0-.4-.2-.4s-.3.3-.3.6.1.4.3.4l.2-.6zm19.6 0-.2-.4c-.2 0-.3.3-.3.6s.1.4.3.4l.2-.6zm55.6-.1c0-.6-.4-.7-.6-.2-.2.5 0 1 .3.8.2 0 .3-.3.3-.6zm-118.6.2c.4-.4.4-1 0-1l-.2.4c0 .2-.1.4-.3.4-.1 0-.2-.2 0-.4v-.4l-.3.2-.4.1.3.5c.3.6.5.6.9.2zm122.6 0c-.3 0-.3-.2-.1-.2.1 0 .4.1.5.3.2.3 1 0 2-.6l.6-.6-.5.2-1 .3-.5.2.2-.4c.3-.8-2-1.4-2.8-.7-.4.5-.4 1.1 0 1 .3-.1.7 0 1 .3.2.3.5.5.7.5l-.1-.2zm.5-.3.1-.2.1.2v.1l-.2-.1zm-82.4 0-.4-.4c-.2 0-.2 0-.1.3.1.5.7.6.5.1zm19.7.1c0-.3-.5-.6-.7-.4-.2.1.1.7.4.7.2 0 .3-.2.3-.3zm47-.7c.8-.8.8-1.2 0-1.8-.5-.3-.7-.7-.7-1 0-.9-.2-.9-1-.2l-.6.6-.5-.3-.6-.3v.5c0 .8-.2.7-1.3-.4-.5-.5-1.2-.9-1.4-1h-.6v1l.9.2a8 8 0 0 1 2.4 1.8c1.8 1.8 2.3 2 3.3 1zm-75.1-1.3-.1-.7-1-.4c-1.3-.4-1.6-.2-.8.3.3.3.6.6.6.8l.6 1.1.6.8v-1.9zm135.7 1.1-.2-1.3v-.7h-.6l-1-.3c-.1-.2-.3-.3-.5-.1 0 0 0 .3.4.5.3.3.5.6.5.8 0 .4 1 1.7 1.3 1.7v-.6zm-110.4 0c.2-.6.2-.7-.3-.7-.2 0-.4.2-.4.5 0 .7.4.7.7.1zm51.8-.2c0-.1-.2-.2-.4 0v.3c0 .2.2.2.3.1.2 0 .2-.2.1-.4zm-67.5.2-.4-.6c-.7-.6-.5-1.4.2-1.6l.7-.1-.3-.3-.3-.3-.5.3-.5.3v-.4c0-.2-.1-.4-.3-.4l-.2.3v.3l-.4-.3-.4-.3v.7l.3 1.1c.1.2.2.5 0 .6-.2.5.2.8 1.1.8l1-.1zm19.2-.4c-.3-.2-.5-.7-.5-1v-.6l.7-.2c.4 0 .7-.2.7-.4 0-.3-1-.3-1.2 0l-.2.4-.2-.4c-.2-.2-.5-.3-.8-.3h-.6l.2.3c0 .2 0 .5-.2.7l-.3.4.5.2c.2 0 .3.3.3.5-.3.7 0 .9 1 .9h1zM16 212c0-.6-.7-.5-.8.1l-.1.5.5-.1c.2 0 .4-.3.4-.5zm33.3 0-.9-.8-.6-.3-.3.4c-.5.8-.2 1.2 1 1.2h1l-.2-.5zm13.4 0c0-.1-.1-.3-.3-.3-.5 0-.6.4-.3.7.2.2.6 0 .6-.4zm19.4 0c-.3-.4-.7-.1-.4.3 0 .1.3.2.4 0h.3zm5.5.3c.2-.1.3-.4.2-.5l-.2-.3-.5.3c-.3.1-.5.3-.4.5.2.3.4.3.9 0zm3.2-.9v-.8l-.4.7c-.3.9-.3 1.4.1 1 .2 0 .3-.4.3-.9zm16.9.9c.2-.1.3-.4.2-.5l-.2-.3-.5.3c-.3.1-.5.3-.4.5.2.3.4.3.9 0zm4.4-.8c.4 0 .7.1.7.4 0 .2.1.4.4.4h.3v-1.8c0-1.1 0-1.6-.2-1.5-.2 0-.5 0-.7-.2-.5-.4-.8 0-.4.4l.4.4-.5.4c-.3.2-.6.3-.6.1-.1-.3-.9-.3-.9 0 0 .2.2.3.4.3s.2.1 0 .2c-.4.3-.9 1.6-.7 1.8.1 0 .4 0 .6-.4.3-.3.8-.5 1.2-.5zm43.1.7-.5-.4.3-.3.3-.4.4.4c.5.3.7 0 .6-.8v-.7h-1c-1.3.2-1.7.5-2 1.5l-.1.8.7-.3.6-.2-.1.4-.2.3h1.5zm-135.8-1 .3-.3-.4.2c-.3.1-.5.4-.5.7v.6l.2-.4.4-.7zm120.9.8c0-.1-.2-.3-.4-.3s-.4.2-.4.3c0 .2.2.3.4.3s.4-.1.4-.3zm-118.6-.3c0-.1 0-.2-.2-.2s-.3.1-.3.2c0 .2.1.3.3.3.1 0 .2-.1.2-.3zm141.5 0s0-.5-.2-.8l-.3-.5.3.1h.3c0-.6-.5-.6-.8 0-.2.2-.2.5 0 .5l-.2.2c-.2.1-.3.4-.2.5.2.4.8.4 1 0zm-142.4-.2c.1-.2 0-.3-.2-.3-.3 0-.5.1-.5.3l.3.2c.1 0 .3 0 .4-.2zm29.8.1-.4-.4-.4-.3v.4c0 .3.2.4.4.4h.4zm36-.1c.2-.2.1-.3 0-.3-.2 0-.3.1-.4.3-.1.1 0 .2 0 .2.2 0 .4 0 .5-.2zm20 0v-.3l-.3.3c-.1.1 0 .2 0 .2.2 0 .4 0 .4-.2zm79.4 0c0-.3-.3-.6-.5-.4-.3.2 0 .6.3.6.1 0 .2 0 .2-.2zm-111-.4-.2-.2-.1.2v.1l.2-.1zm40.7-1a.7.7 0 0 0-.7-.1l-.4.1.3.6.3.6.4-.4.4-.5zm27.9 0c.2 0 .4 0 .4-.2s-.5-.2-1.4-.1c-1.7.2-1.7.2-1.2.8l.3.6.7-.5c.4-.3 1-.5 1.2-.5zm25 0c0-.4-.2-.7-.4-.8-.2-.1-.4 0-.4 0 0 .2-.3.3-.7.3h-.7l.3.3c1 1 1.9 1 1.9.1zm2.2.6c0-.2-.3-.3-.4-.3-.2 0-.2.1 0 .3.5.3.6.3.4 0zm-153.3-.3c0-.1-.1-.2-.3-.2-.1 0-.2 0-.2.2s0 .3.2.3.3-.1.3-.3zm40-.1c0-.2-.2-.4-.3-.4-.2 0-.3.2-.3.4s.1.4.3.4c.1 0 .3-.2.3-.4zm82.4.2c.4-.2.5-1.4.1-1.4-.1 0-.4.3-.5.7-.4 1-.4 1 .4.7zm-49.2-.5c0-.1-.2 0-.2.2 0 .1.1.2.2.1v-.3zm60.4 0c0-.3.3-.8.7-1 1.5-1.2 1.8-1.7 1-2.3l-.4-.3-.3.3-.9.3-.7.2c-.1.2-.5.3-.9.3h-.6l-.2-.8c0-.4-.2-.8-.4-.8-.4 0-.2.6.5 1.5.7 1 .6 1.2-.3 1.2-.8 0-1.5.2-1.3.5 0 .2.6.3 1 .3a3 3 0 0 1 1.7.5c.8.7 1.1.7 1.1 0zm21.6 0c1.1-.3 3.2-2 2.9-2.5-.3-.4-2-.3-3.3.2l-1.2.5v.5c.1.2-.1.5-.5.7-.8.3-.9.7-.2.8.8.2 1.2.2 2.3-.1zm-97.5-.1c0-.2-.1-.3-.3-.3-.2 0-.2.1-.1.3l.3.3v-.3zm-30.4-.3-.3-.2c-.2 0-.2 0-.1.2 0 .2.2.3.2.3.1 0 .2-.1.2-.3zm29.8-.7h-.8l-.6.3.5.3.5.4.3-.4v-.6zm85.3.4c-.4-.4-.7 0-.5.3.1.2.3.2.5.1l.3-.1zm-76.5 0c.5-.3 0-1-.7-1-.8 0-1.6.6-1.3 1 .2.4 1.5.4 2 0zm78 0s-.1-.2-.4-.2c-.2 0-.3.1-.2.3l.4.2c.1 0 .2 0 .2-.2zm4.3 0s-.1-.2-.3-.2c-.1 0-.3.1-.3.3l.3.2c.2 0 .3 0 .3-.2zm14.8 0c0-.3-.1-.5-.3-.5l-.2.4c0 .2 0 .4.2.4s.3-.2.3-.4zm-142-.2c0-.1-.2-.3-.4-.3-.1 0-.2.2 0 .3l.2.3.1-.3zm46.7-.6c0-.1-.2-.2-.4 0h-.5l-.1.5v.4l.5-.3c.3-.2.5-.4.5-.6zm-63.5.3v-.2c-.1 0-.3 0-.4.2 0 .2 0 .3.2.3.1 0 .2-.1.2-.3zm53.7.2v-.2c-.2 0-.2 0-.2.2l.1.1.1-.1zm17-.2c0-.1-.1-.2-.3-.2-.1 0-.2 0-.2.2s0 .3.2.3.3-.1.3-.3zm1.6.2c0-.1 0-.2-.2-.2l-.1.2.1.1.2-.1zm10.8 0-.2-.3-.3.1c0 .2.1.3.3.3l.2-.1zm20.3-.3c0-.2 0-.5-.2-.7l-.4-.5-.6.5c-.3.3-.5.7-.4.8.2.4 1.5.3 1.6-.1zm-108.7-.3c.1-.5-.4-.4-.6 0 0 .3 0 .4.2.4l.4-.4zm127 0-.3-.6h1.4l1.3.2v-.4c0-.6-.7-.8-2-.7-1.7.2-2 .5-1.2 1.3s1 .8.7.1zm45.1 0c.3-.6.2-.6-.5-.6s-.8.2-.3.7c.4.4.6.4.8 0zm-46.4-.2c-.2-.5-1-.5-1 0 0 .2.2.4.5.4s.5-.2.5-.4zM17.3 208v-.2c-.1 0-.3 0-.4.2 0 .2 0 .3.2.3.1 0 .2-.1.2-.3zm6.3 0c0-.2-.2-.4-.4-.4s-.4.2-.5.4c0 .2.1.3.5.3.3 0 .5-.1.4-.3zm55-.2c.2 0 .4-.1.4-.3 0-.1-.4-.2-.9-.2l-.8.3.1.5v.3l.3-.3c.2-.2.5-.3.8-.3zm5.1.1c0-.2-.1-.4-.3-.4-.7 0-.5.5.3.8v-.4zm1.1-.2h-.3l-.2.4c0 .1.1.2.2 0 .2 0 .3-.2.3-.4zm-63.6-.1c0-.1-.2 0-.2.2s.1.2.2.2c.1-.1.1-.3 0-.4zm52.5.2c0-.4-.3-.5-.7-.4-.5.2-.4.6.2.6.3 0 .5 0 .5-.2zm19 0c0-.2 0-.3-.2-.3s-.3.1-.3.3c0 .1.1.2.3.2.1 0 .2 0 .2-.2zm12.2 0c0-.2-.1-.3-.2-.3-.2 0-.3.1-.3.3 0 .1.1.2.3.2.1 0 .2 0 .2-.2zm8.3 0c.1-.1.1-.3 0-.4-.2-.2-.9.1-.9.4 0 .3.7.3 1 0zm-95.9-.4c0 .1.1.1.2 0 .3-.2-.7-1.2-1.1-1.2-.3 0-.4.1-.3.3l.3.8.2.5.4-.3c.2-.2.3-.2.3-.1zm99 0 .3-.4-.3-.2h-.4l-.4.5-.3.5h.4l.7-.4zM19 207l-.3-.3c-.2 0-.3 0-.3.3s.1.4.3.4c.1 0 .3-.2.3-.4zm13.9 0c-.1-.1-.2 0-.2.1 0 .2 0 .3.2.2v-.3zm2.4.3h-.5.1c.3.1.4 0 .4 0zm45-.2c.3.1 1.9-1.2 1.9-1.6 0-.4-.7-.2-1.6.6-.5.4-1 .7-1.3.6l-.3-.1.2.4c0 .3.2.4.4.2.1-.2.4-.2.6-.1zm91.4 0 .6-.2h-.8c-.4 0-.7.1-.7.2 0 .4.2.4 1 0zm-88.6-.7c-.2-.2-1 .2-1 .5v.3l.6-.3c.3-.2.5-.4.4-.5zm87.6.3c0-.2 0-.3-.3-.3-.2 0-.4.1-.4.4 0 .4.6.4.7-.1zm-155.3 0a.3.3 0 0 0-.4 0c0 .1 0 .2.2.2s.3-.1.2-.2zm14-.3c.9 0 .8-.8 0-1.7-1-1.1-1.9-.7-1.5.7l.1.9v.6l.5-.3 1-.2zm89.8-.3c.3 0 .5-.2.6-.3.1-.3.5-.2 1.3.3.5.4 1 .1.5-.3l-.3-1v-.7l-.8-.3c-.4-.2-.9-.6-1-.9 0-.3-.2-.5-.3-.5-.4.1-.4.1-.1 1.4v1.2l-.2.3-.3-.3c-.5-.4-1.2 0-1.2.7 0 .8.2 1 .8.6l1-.2zm22.8-.4-.3-.2v.4c0 .5.3.8.5.4 0-.1 0-.4-.2-.6zm3.8.2c-.3-.5-.4-.4-.4.2 0 .3.1.5.3.4v-.6zm-34.3 0c0-.2-.1-.3-.4-.3-.4 0-.5.3-.2.6.2.2.6 0 .6-.4zm2-1.2c0-1.8-.1-1.9-1.5-2.3l-1-.3-.4.3-.3.3.6.4.5.4-.6.1c-1.4.4-1 1.4.7 1.4.7 0 1.4.2 1.6.3l.4.3-.6-.1h-.6c0 .3.6.9 1 .9h.4zm38.1 1.1c.3-.3.7-.5 1-.5.6 0 .5-.7 0-.7-.3 0-.6 0-.8-.2-.2-.1-.5.2-.8.9l-.5 1h.3c.2 0 .6-.2.8-.5zm34.3-.5c0-1.2-.3-1.4-1-1.2-.7.2-.8.6-.2.8.2.1.4.4.4.6 0 .6.3.9.6.8.2 0 .3-.5.2-1zm-168 .6c0-.3-1-1.3-1.2-1.1-.2.2.4 1.3.8 1.3l.4-.2zm54 0c0-.2-.2-.3-.3-.3-.2 0-.3 0-.3.2s.1.3.3.3c.1 0 .2-.1.2-.3zm2.6 0-.2-.4c-1.6-.1-2 0-1.5.4.3.3 1.7.2 1.7 0zm16.4 0h-.3c0 .1 0 .2.2.2v-.1zm1.8 0c0-.2 0-.3-.2-.3s-.2 0-.2.2l.3.3.1-.3zm-12.5-.3a.5.5 0 0 0-.5-.3v.3l.4.2c.1 0 .2-.1 0-.2zm75.1 0c.1-.2 0-.3-.2-.3s-.5.1-.6.3c0 .1 0 .2.3.2l.5-.2zm21.4-.5c.2-.4-.5-1.4-.9-1.4s-.5.8-.2 1.4c.4.7.9.7 1.1 0zm-97.5 0 .4-.3-.5-.6c-.4-.7-.2-1.2.5-1.3.3 0 .5-.2.5-.4 0-.4-1.6-.6-2.5-.3l-.7.3v.5c0 .4.4.6.9.7l.8.2h-1.3l.2.5.2.8c0 .5 1.2.4 1.5 0zm4 .3h-.6c-.2 0-.1.1.2.1.3 0 .4 0 .3-.1zm13.6-1.3.8-.5-1.2-.3-2.1-.2h-1l-.2-.5c0-.2-.3-.6-.5-.8l-.5-.3.2.4c0 .2 0 .5-.2.6l.2.1c.2 0 .6.3.8.7.1.4.5.7.8.7.2 0 .5.1.6.4l.2.8.2.4.6-.5 1.3-1zm1.5 1.3-.1-.1-.2.1.2.2.1-.2zm1.6 0-.1-.1-.2.1c0 .1 0 .2.2.2v-.2zM19 205l-.5-.2c-.1 0-.2 0 0 .2 0 .2.2.3.4.3v-.3zm31.3.2-.1-.2s-.2 0-.2.2h.4zm18.3 0c0-.1 0-.2-.2-.2l-.1.2h.4zm20-.2-.5-.2c-.1 0-.2 0-.2.2s.2.3.4.3.3-.1.2-.3zm20.2.2-.1-.2c-.1 0-.2 0-.2.2h.2zm-71-.3c.2-.1.3-.5.3-1v-.7h-.8c-.7 0-1 .2-.5.6l.2.5v.5c0 .3.2.3.7 0zm34.7 0H72c-.3 0-.2.1.1.1.3 0 .5 0 .4-.1zm18.3-.5v-.6l-.6-.2-1.4-.2h-.7l.5.6c1 1.1 2.2 1.3 2.2.4zm-72.9.2a.3.3 0 0 0-.3 0c-.1 0 0 .2.2.2s.2-.1.1-.2zm22.9-.2c0-.2-.1-.5-.3-.6-.1 0-.2.1-.2.4 0 .3 0 .6.2.6s.3-.2.3-.4zm108.9-2.5-.8-1.1.2-1 .1-.8-1 .5-1.1.5-.5-.4c-.6-.6-.8-.5-.8.3v.6h-1.1c-.6 0-1.3.1-1.5.3l-.4.2.4.5c.2.2 1 .7 1.8 1l2 1.1c.2.3.7.6 1 .8l.6.3.9-.9.9-.8-.7-1.1zm-51 2.2c-.2-.2-.2-.5-.2-.5l-.4-.2c-.5 0-.5.4-.1.8s.8.4.6-.1zm73.4-.1c.4-.7 1.8-.8 1.8-.2 0 .3.2.4.5.4h.5l-.5-1.6c-.3-.9-.6-1.7-.8-1.9-.4-.4-.6 0-.2.5l.3.4-.5.4-.5.4-.3-.3c-.3-.4-.7-.3-.6 0 .1.3 0 .8-.2 1.3-.5 1.3-.2 1.7.5.6zm-92.5 0a.3.3 0 0 0-.4 0c0 .2 0 .2.2.2s.3 0 .2-.1zm-46.8-.2h-.2l.1.2.1-.2zm1.9-.2c0-.3-.1-.4-.3-.3l-.2.4c0 .2 0 .3.2.3s.3-.2.3-.4zm10-.2c0-.2 0-.6.2-.8.2-.5 0-.6-.8-.3-.4.1-.6 1.2-.2 1.5.2.3.7 0 .7-.4zm95 .2c0-.2-.1-.4-.4-.4-.2 0-.4.2-.4.4s.2.4.4.4c.3 0 .4-.2.4-.4zm14.2 0 .5-.4h-.7c-.8 0-1.5.2-1.5.5 0 .4 1.1.3 1.7-.1zm14.7.2h-.2v.2c.1 0 .2 0 .2-.2zm12-.4c.8-.6 1-1.3.1-1.3-1.1 0-2 1-1.4 1.7.3.2.4.2 1.2-.4zm-148.6.1h-.5c-.2.1-.2.2.1.2.3 0 .5 0 .4-.2zm101.1-.2c0-.2 0-.3-.2-.3-.2.1-.3.3-.3.5 0 0 .1.2.3.2l.2-.4zm51.6 0c.6-.4.8-1.2.3-1.2-.2 0-.3.1-.3.3l-.4.2c-.3 0-.5.1-.6.5 0 .7.2.8 1 .2zm1.7 0c-.2-.4-.5-.5-.7-.2-.2.3 0 .6.5.6.2 0 .3-.2.2-.4zM88 203c0-.3-.1-.5-.3-.5-.1 0-.2.2-.2.5s0 .5.2.5.3-.2.3-.5zm44.4 0c1-.4 1-1 .2-1.4l-.7-.3-.3.4-.4.3.4.2.3.2-.4.2-.8-.1a.9.9 0 0 0-.8-.2l-.4.2.3.4c.4.4 1.4.5 2.6 0zm-86.6-.2a.3.3 0 0 0-.3 0c-.1.1 0 .2.1.2.2 0 .3 0 .2-.2zm45-.2c0-.2 0-.3-.2-.2l-.2.4c0 .1 0 .2.2.2s.3-.2.3-.4zm9.3 0c-.1-.1-.2 0-.2.1 0 .2 0 .3.2.2v-.3zm17-1.4c0-.3.1-.6.3-.7l.3-.2-.3-.3-.3-.3-.3.3c-.6.6-.8.4-.6-.5l.2-.8-.7.4-.6.4v1.1c-.1.7 0 1.4.3 1.8l.4.7.7-.7.6-1.2zm22 1.7-.3-.3-.3.1c0 .2.1.3.3.3l.2-.1zm55.5 0-.3-.3-.2.1c0 .2.1.3.2.3l.3-.1zm-133.9-.3-.1-.1-.1.1.1.1h.1zm14.7-.8c-.3-.3-.4.1-.2.6l.2.5v-1.1zm13.6.7c0-.1 0-.3-.2-.4-.3-.2.6-1.2 1-1.2.2 0 .3-.1.4-.3.1-.1-.1-.2-.5-.2s-.7.1-.7.3c0 .1-.1.4-.4.6-.2.1-.3.5-.2.9.2.5.6.8.6.3zm40.6-.9-.3-.3-.3.3c-.2.2-.3.5-.2.8l.2.4.5-.4.4-.4zm-2 .7c0-.4-.6-1.1-1-1.1s-.3.5.2 1c.5.3.9.4.9 0zm9.5-.3c.3 0 .6-.2.6-.3 0-.4-.5-.3-1.4.1-.5.3-.6.4-.3.3a5 5 0 0 1 1-.1zm18 0c0-.4-.4-.6-.7-.4-.2 0-.2.2-.1.4.2.3.9.3.9 0zm34.1 0h-.5c-.2.1-.1.2.2.2.3 0 .4 0 .3-.1zm-163.1-.3-.3-.4c-.1-.1-.3 0-.3.2 0 .3.2.5.3.5.2 0 .3-.2.3-.3zm70.8-1c0-1.1-.4-2-1.1-2-.2 0-.6-.2-.8-.5-.2-.3-.5-.5-.6-.4-.2.1-.3 0-.3-.2 0-.5.4-.5 1.7 0 .5.2 1.2.4 1.4.3h.4l.2-1.1.1-1h1.5l-.5-.5-.5-.5H97l-1.3-.1v1l.4-.2c.4-.2.4 0 .2.9-.1.3-.3.4-.4.3-.2-.5-1.7 0-2 .8l-.3.6-.1-1c-.1-1-.8-1.2-1-.4-.1.7.7 1.5 1.6 1.7 1 .2 1.5.9 1.4 1.8l-.2.7H95c-.2-.1-.5-.4-.6-.8-.2-1-.8-1-.8 0v.7l1.6.6 1.6.5c.1 0 .2-.5.2-1.1zm95.3.3v-1l-.3.2c-.6.2-.6 1.8 0 1.8.2 0 .3-.5.3-1zm-154 0c-.3-.3-.6.1-.3.5l.2.3v-.8zm53.8.6-.2-.2-.1.2h.3zm29-.4v-.4h-1c-.5 0-1-.2-1.2-.6l-.4-.2c0 .2.3.7.7 1 .7.8 1.8.8 1.8.2zm3.1.1a5 5 0 0 1 1.7-.5c.6 0 1.3-.2 1.4-.4l.3-.3-.5-.7c-.2-.3-.7-.8-1.1-.9l-.7-.3-.3.3-.4.7c0 .2-.2.3-.6.2-.3 0-.8 0-1.1.3l-.6.4.5.3c.3.1.5.5.5.8 0 .6.2.6 1 .1zm-16.4-.4c.2-.2.3-.5.2-.6-.1-.2 0-.2.2-.2s.4 0 .3-.2c0-.1.2-.2.5-.1.5 0 2.4-.6 2.4-1l-.3-.6-.3-.5.3-.4c.5-.6.2-.7-.9-.2l-1 .5v1.1l-.7-.1c-.9-.2-1 .1-.5.7l.3.3h-.4c-.3 0-.7.3-1 .7l-.6.7.4.2c.4.3.6.3 1-.3zm1.4-1.7.2-.2.1.2-.1.1-.2-.1zm26 1.8c.3-.2.7-.3 1-.2.5.2.4-.2-.2-1-.9-.8-2.1-.5-2.1.6 0 .9.6 1.2 1.4.6zm50.2 0c0-.5-.7-1.8-.8-1.5-.2.3.4 2 .6 2 .2 0 .2-.2.2-.4zm-167.5-.3c-.1 0-.2 0-.2.2s0 .3.2.2v-.4zm14.4.3-.2-.1-.1.1.1.2.2-.2zm100.9-.7c-.1-.5-.3-1-.5-1.2l-.2-.3h.3c.1 0 .3-.4.3-1v-.9l-.5-.2c-.3-.2-.8-.3-1-.3a.6.6 0 0 1-.7-.5c-.2-1-.7-.2-.5 1v1.1l.6.3.6.2h-2v.4c0 .3-.1.4-.2.3-.4-.2-.4.4 0 .9l.2.3.2-.4.3-.5.5.2c.3 0 .7.4.8.8l.3.7h1.7zm4 .4s-.2 0-.2.2.1.3.2.2c.1-.1.1-.3 0-.4zm44 .2c0-.3-.5-.6-.7-.4-.2.1.2.7.5.7l.2-.3zm13-.3c-.2-.2-.3-.2-.3 0 0 .3.3.6.5.4 0 0 0-.3-.2-.4zm-84.2.1a.3.3 0 0 0-.4 0c0 .1 0 .2.2.2s.3 0 .2-.2zm-29.6-.7.6-.7-.1-.6-.4-1.1-.2-.5.5.5.5.6.7-.3.6-.4-.8-.5c-.9-.7-1.8-.8-2-.3l-.2.3-.3-.4-.2-.3v.3c0 .2-.3.3-.6.3-1.5 0-1.6 1.7-.2 2l.8.1-.2.4-.1.5.5.1.6.2-.3.2c-.2.1-.3.2-.1.2.2 0 .6-.3.9-.6zm-.4-2-.2-.4.4.3c.2.2.2.4.2.5-.1 0-.3 0-.4-.3zm18 2.5a.3.3 0 0 0-.3 0l.2.1c.2 0 .2 0 .1-.1zm15-.4c0-.3-.2-.5-.3-.4-.2 0-.3.3-.3.5 0 .3.1.4.3.4.1 0 .3-.2.3-.5zm66.2-.2.4-.8-.6-.2-.6-.1.5-.4.5-.4-1-.2H177c-.3.1-.7 0-1.1-.2l-.6-.5-.5.5c-.3.2-.7.3-1 .2-.2 0-.4 0-.4.2 0 .1.2.2.3.1l.4.1c0 .2.7.3 1.3.3h1.2l.1.4v.5c-.2.1-.3.4-.4.7l-.2.5h2.6zm-90.7 0-.1-.3.6.2c.4.2.7.2.8 0l.7-.2h.6l-.2-.4-.2-.7c0-.5-.8-.2-1 .3-.1.6-1 .7-1.8.1-.6-.4-.9-.5-.9-.2 0 .2.3.4.6.5l.6.1-.6.3c-.8.4-.7.7.2.7h.8v-.4zm-45-.2v-.6c-.2-.2-1 .3-1.1.7-.2.5 1 .4 1.1-.1zm78.4.3v-.2c-.2 0-.2.1-.2.2l.1.1.1-.1zm51.8-.3-.2.1c0 .2.1.3.2.2v-.3zm12.6-.2c-.4-.3-.7 0-.5.3.1.2.3.2.5.1l.3-.1zm-93 0s-.1-.2-.3-.2c-.3 0-.4.1-.3.3l.4.2c.2 0 .3 0 .3-.2zm5.8.2a.3.3 0 0 0-.3 0l.1.1c.2 0 .3 0 .2-.1zm-54.5-.8-.2.1c0 .2.1.3.2.2v-.3zm55.1 0c0-.2-.1-.3-.2-.3-.2.1-.2.3-.2.5.3.3.4.3.4-.2zm81-1-.6-.4h-.5v.4l.2 1 .2.5.3-.5c.2-.3.4-.7.3-1zm6.8.9v-.6c.2 0 .3-.2.3-.5s-.3-.5-.5-.5c-.3 0-.6-.1-.7-.3l-.2-.3-.5.6c-.6 1-.6 1.6.1 1.6l1 .2c.6.4.6.4.5-.2zm-162.3 0c-.4-.5-1.7-.7-1.7-.3 0 .2.6.4 1.6.5h.3zm57.3 0c0-.3-.8-.6-1-.4v.4c.3.3 1 .3 1 0zm20.1 0c0-.3-.7-.6-.9-.3v.4c.3.2 1 .2 1 0zm32 0c0-.2 0-.3-.2-.3l-.4.3c-.1.1 0 .2.2.2.3 0 .4 0 .4-.2zm-107.4-.2H27l.1.2.1-.2zm85.6-.5c0-.3-.2-.5-.4-.6-.6-.1-1 .7-.5 1 .5.4 1 .2 1-.4zm24 .4c0-.1-.2-.3-.4-.3s-.4.2-.4.3c0 .2.2.3.4.3s.4-.1.4-.3zm-93.9-.1c.7-.3.3-.7-.7-.7h-1v.4c0 .4 1 .6 1.7.3zm78.8-.1c0-.4-.5-.6-.8-.4l-.3.2.3.2c.5.3.8.3.8 0zm1.4-.2.7-.4-.3-.5c-.5-.7-1-.7-1.3.1-.5 1.3-.2 1.5 1 .8zm-54.9-.1v-.3l-.4.3c0 .1 0 .2.2.2.1 0 .2 0 .2-.2zm67 0c0-.2-.1-.3-.3-.3-.1 0-.3.1-.3.3l.3.2c.2 0 .3 0 .3-.2zm-32.7-.6-.7-.5-.5-.3v1.2l.7-.1c.3 0 .6-.2.5-.4zm6.9-.5h.6V195h-.6c-.3 0-.8.3-1.1.6l-.6.6.4.8.5.9v-.5c.1-.3.4-.5.8-.5zm12.5.3c0-.2 0-.3-.2-.3s-.3.1-.3.3c0 .1.1.3.3.3l.2-.3zm4-.4c-.2-.1-.2 0-.2.1 0 .2 0 .3.1.2v-.3zm58.8.1-.3-.2c-.2 0-.3 0-.3.2s.1.3.3.3c.1 0 .3-.1.3-.3zm8.4 0c0-.3-.5-.6-.7-.4-.2.2.2.7.5.7.1 0 .2-.1.2-.3zm-79.8-.1c.6-.2.6-1.2 0-1.4-.5-.2-.7.1-1 1l-.2.5h.4l.8-.1zm11.8-.1c0-.2-.2-.3-.5-.3s-.5.1-.4.3l.5.2c.3 0 .4 0 .4-.2zm5 0c0-.2-.1-.3-.3-.3-.2 0-.5-.3-.8-.6l-.5-.5-.2.2-.3.3.3.5c.2.6 1.9.8 1.9.3zm8.5-.2-.2-.4c-.2 0-.3.2-.3.4s.1.4.3.4l.2-.4zm44.5-.4c0-.4-.6-.5-1-.1l-.5.4h.8c.3 0 .7-.1.7-.3zm1.5-.8-.1-.3-.5.5c-.2.2-.3.5-.2.7.2.3 1-.4.8-.9zm-156.5.4c-.1-.4-.3-.4-1-.2-.7.3-.5.6.4.6h.8zm74 .3-.1-.1-.2.1.2.1.1-.1zm73.1-.5c.4-.5.2-.8-.4-.5-.3 0-.5.4-.5.7 0 .5.5.5 1-.2zm-144.9-.1.2-.4-.8.2-.8.1v.3c.3.4 1.3.2 1.4-.2zm45.7.3c.2-.2-.3-.9-.6-.9-.1 0-.3.2-.4.5l-.1.6h.5l.6-.2zm3.9-.1c0-.1-.3-.3-.6-.3s-.4.2-.3.3c0 .1.3.3.5.3s.4-.2.4-.3zm14.7-.3-1-.6-.7-.4-.2.3c-.2.3-.2.3.8.8.8.4 1.3.4 1 0zm17.3.3c.5-.3.2-.8-1-1.2-1-.4-1.5-.3-.8.2.2.2.5.6.5.8.2.5.7.6 1.3.2zm8.5 0c0-.4-.8-.9-1.2-.7-.2 0-.4.3-.4.6v.4h.8c.4 0 .8-.1.8-.3zm-49.9-.4-.1.1c0 .2 0 .3.1.2v-.3zm12 0 .4-.5-.5.1a1 1 0 0 0-.6.5c-.2.4.3.4.8-.1zm18.2-.3c-.3-.3-.5.1-.3.5l.2.3.1-.3v-.5zm39 .3-.3-.2c-.2 0-.3 0-.2-.3 0-.7-.1-1-1.5-1.6-1.7-.8-2.2-.8-1.7-.3.2.2.2.4 0 .5-.2 0-.2.3 0 .8l.2.8h.5c.3 0 .7.1.9.3.3.5 2.3.5 2.1 0zM26.1 195v-.6c0-.2.2-.4.4-.6.3-.2-.7 0-1.1.2-.2.1-.5.1-.8 0l-.4-.1v.4c0 .6 1.8 1.3 2 .7zm75.3-.2c-.1-.1-.2 0-.2.2s0 .2.2.2v-.4zm84-.3a2 2 0 0 0-.9-.7c-.3-.1-.5-.3-.4-.5.1-.3-.8-1.3-1.3-1.4-1-.1-2-.5-2.3-1-.5-.7-.8-.5-.6.5l.2 1h-.4l.3.3c.3.3.6.6.6.8 0 .5.6.5 1 0 .5-.4 1.8-.1 1.8.4 0 .2.3.4.7.5.4 0 .8.3 1 .5.4.5.6.2.3-.4zm-111.7.3h-.3c0 .1 0 .2.2.2l.1-.2zm9.8 0h-.3c0 .1 0 .2.2.2v-.2zm20.4 0h-.3l.1.2c.1 0 .2 0 .2-.2zm27.5 0c0-.2-.3-.4-.5-.4-.3 0-.6.2-.7.3-.1.2.1.3.5.3s.7-.1.7-.3zm1.6 0c0-.2-.2-.4-.3-.4l-.3.3c0 .2.2.3.3.3.1 0 .3-.1.3-.3zm1.8 0c0-.2-.2-.4-.5-.4s-.5.2-.5.3c0 .2.2.3.5.3s.5-.1.5-.3zm37 0h-.2l.1.2c.1 0 .2 0 .2-.2zm.7-.3c0-.2-.3-.3-.4-.3-.2 0-.2.1 0 .4.4.4.7.3.4-.1zm-101.1-.2c.3-.2.9-.3 1.3-.3.8.1 1-.2.2-.6-.8-.4-1.3-.3-1.9.5-.6.9-.5 1 .4.4zm69-.5c-.4-.4-1-.6-1-.2 0 .3 1 .8 1.2.7 0 0 0-.3-.2-.5zm33.6.3c0-.3-.4-.2-.5 0 0 .3 0 .4.2.3.2 0 .3-.2.3-.3zm4.3-.4-.2-.4-.2.3c-.2.2-.2.4 0 .6l.1.3.3-.3v-.5zm-135.7.1.1-.4-.4.2c-.4.1-.5.6-.1.6l.4-.4zm75.8-.2c0-.3-.1-.5-.4-.5-.2 0-.4.2-.4.6 0 .6.6.5.8-.1zm-30.5 0s0-.2-.2-.2l-.4.3.1.2.5-.2zm34.1-.1c.7-.2.8-.4.3-.9-.3-.3-1.3-.4-2.2-.1l-.7.2.6.6c.4.4.8.6 1 .5l1-.3zm50.8 0c0-.1-.2 0-.2.2 0 .1.1.2.2.1v-.3zm-126.4 0v-.1l-.2.1.1.2.1-.2zm44.2-.5c-.2-.2-.4-.3-.5-.2-.2 0-.2.3 0 .5s.4.3.6.2v-.5zm21.7 0c0-.2 0-.4-.2-.4s-.3.2-.3.4.1.4.3.4l.2-.4zm21.2.1c0-.1-.1-.2-.3-.2-.1 0-.2 0-.1.2 0 .2.2.3.3.3v-.3zm35 .1c.5-.2.6-.9.2-.9l-.9.3-.5.3.4.2c.4.3.3.3.8.1zm-88.2-.5.8-.4-.4-.5-.5-.6.5.2c.3.1.6.3.7.5.2.3 1.3-.4 1.3-.8 0-.1.3-.3.6-.2.3 0 .6-.2.6-.4v-.4L82 190h-1.8l.1.2c.3.4-1.3 1.9-2 1.9-.4 0-.8.1-1 .3l-.3.4.7.1c1.4.2 1.6.2 2.5-.2zm27.6-1.3.2-1.6-.3-.2c-.5-.3-1.4.5-1.4 1.1.1.6-.2.7-.6.3l-.3-.3-.4.3-.5.3.3.4.6.4.8.5c.3.3.8.5 1 .5l.4-.1zm-63 1.2c0-.2-.3-.3-.5-.3h-.5l.4.3c.5.3.6.3.6 0zm1-.1.3-.4h-.4c-.2 0-.4.1-.4.4v.4l.5-.4zm22.2 0c0-.3-.7-.6-1-.3 0 0 0 .3.3.4.5.3.7.3.7 0zm103.2.2-.1-.1-.1.1v.2c.2 0 .2-.1.2-.2zm13.7-.1a.5.5 0 0 0-.5-.3c-.1 0-.2.1 0 .3 0 .1.2.3.4.3v-.3zm-68.2-.9.4-.7-.5-.5c-.5-.6-1.2-.7-1.2-.3l.6.6.6.4-.7-.1c-.9-.2-.9-.1-.5.8.4.8.8.8 1.3-.2zm3 .5c.6-.3.6-.5-.2-.9-1.5-.7-2.6-.2-1.4.6.6.5 1 .5 1.6.3zm-66.3-.3H53c-.2 0-.1.1.2.1.2 0 .4 0 .3-.1zm40.2-.1c0-.2-.2-.3-.7-.3-.4 0-.8.2-1 .3 0 .2.3.3.7.3.5 0 .9-.2 1-.3zm-56-.3c0-.1-.1-.2-.3-.2-.1 0-.2 0 0 .2 0 .2.1.3.2.3l.1-.3zm46 .2v-.2c-.2 0-.2 0-.2.2l.1.1.1-.1zm20.2 0-.2-.2-.1.2.1.1.2-.1zm6.1-.3c0-.4-1-.3-1 0l-.2.4h.7c.3 0 .5-.3.5-.4zm69.3.3c0-.5-.6-1.5-.8-1.4-.3.2.2 1.5.6 1.5l.2-.1zM20 191l-.6-.4c-.2 0-.1.2 0 .4.2.3.5.4.7.4l-.1-.4zm66.7.1.4-.2-.6.1c-.4.1-.6 0-.6-.1 0-.2-.3-.3-.6-.2l-.5-.1c0-.2-.2-.1-.4 0l-.4.4.3.2c.5.3 1.9.3 2.4 0zm11.9.2-.2-.1-.1.1.1.1.2-.1zm4.5 0-.2-.1-.1.1.1.1.2-.1zm-73.6-.4-.2-.3c-.2 0-.4.2-.5.3 0 .2 0 .3.3.3.2 0 .4-.1.4-.3zm64.5.1h-.5c-.2 0-.2.1.1.1h.4zm1.7-.1c.5-.3.4-.8-.1-1.5l-.3-.3-.4.2-.5.3-.1-1-.1-1-.6.9-.6.8.3.4c.2.2.5.4.8.4.3 0 .6.2.7.5.1.7.2.7.9.3zm5 0c0-.3-1-.6-1.3-.4-.5.3-.3.6.5.6.4 0 .8 0 .8-.2zm1 0c0-.1 0-.3-.2-.3s-.3.2-.3.3l.1.3.3-.3zm28-.6v-.6h-1l-.9-.1 1 .6.9.7v-.6zm-17.7-.1.1-.4h-2l.4.5c.4.4 1.3.4 1.5-.1zm-91.2-.2-.3-.7-.3-.5-.7.5c-1.1.6-1 .8.2.8l1-.1zm52.1 0-.1-.2-.2.2.2.1.1-.1zm16.1 0v-.2c-.2 0-.2.1-.2.2l.1.1.1-.1zm65.6 0a.3.3 0 0 0-.4 0l.2.1c.2 0 .3 0 .2-.2zm-123-1c0-.2-.1-.1-.4 0l-.4.6c0 .2.2.2.4 0l.4-.6zm44.6.6v-.3c-.2 0-.4.1-.5.3-.1.1 0 .2 0 .2.2 0 .4 0 .5-.2zm102.5-.3c0-.2 0-.2-.2-.1-.2 0-.3.3-.3.4 0 .2.1.2.3.1l.2-.4zm-88.7 0-.1-.2c-.2 0-.3 0-.3.2v.3c.2 0 .3-.1.4-.3zm-17.2-.8c0-.2-.4-.5-.8-.7l-.7-.4-.4.5-.3.5h.5l.9.4c.3.3.8.2.8-.3zm37.4-.6c-.1-.7-.8-.7-1.1-.1l-.3.4.3.4.4.5.4-.4c.2-.1.3-.5.3-.8zm24.6.8a.9.9 0 0 0-.7-.4h-.5l.5.4c.7.5 1.1.5.7 0zm-37.6-.6c-.3-.2-.8.2-.6.5l.2.2.3-.2c.1-.2.2-.4 0-.5zm22.5.2c0-.8 3-1 5-.5l1.3.4.6-.4c.4-.2.8-.6.9-1l.1-.5-.3.4c-.5.7-1.1.6-1.3 0 0-.3-.3-.6-.6-.6-.2 0-.4 0-.4-.2s-.4-.3-.9-.3h-.9l-.6-.7a4 4 0 0 1-.9-1.2c-.2-.5-.5-.6-.8-.2 0 .1-.4.3-.8.3-.3 0-.7-.2-.8-.3 0-.1-.3-.3-.6-.3h-.4l.3.4c.2.1.3.5.3.8v.5l-.4-.2-.7-.1c-.2 0-.2-.1 0-.3.2-.1.3-.3.2-.5-.2-.4-.6-.4-.6.1v.4l-1-.1h-1.1c-.5.4-.2 1.1.4 1.1.2 0 1 .2 1.6.5l1.1.4v1.4l-.7-.1c-.8-.2-.8 0 0 .6 1 .7 2 .9 2 .3zm-92 0h-.3l.1.2.2-.1zm2 0c-.1-.6-.7-.7-.7-.2 0 .2.2.4.4.4s.4-.1.3-.3zm2.2-.2c.2-.2.3-.5.2-.6-.3-.2-1.6.3-1.7.7-.2.5 1 .4 1.5 0zm5.3.3-.1-.1h-.2c0 .2 0 .2.2.2v-.1zm63-1c0-.3.1-.5.4-.6.2 0 .3-.3.2-.5l-.3-.7c0-.5-.5-.9-.9-.7-.1.2-.2.6 0 1.1v.9l-.3.6c-.7 1-.6 1.1.3.6.4-.2.7-.6.6-.8zm-63.5.6c0-.2-.2-.3-.3-.3-.2 0-.3.1-.3.3 0 .1.1.3.3.3l.3-.3zm-8.2-.3-.2-.2s-.2 0-.2.2v.3c.2 0 .4-.1.4-.3zm64.7-.2c0-.2.2-.5.6-.7l.6-.3-.8-.1c-.4 0-.7-.3-.7-.5.1-.3 0-.3-.5-.1-.6.2-.6.6 0 .6.5 0 .5.3 0 .7-.6.3-.4.9.3.9.3 0 .5-.2.5-.5zm79.2.2-.4-.2c-.3 0-.4 0-.3.2.1.2.3.3.4.3.2 0 .3-.1.3-.3zm-82-.1-.2-.1-.1.1.1.1.2-.1zm5.9-.1c0-.1 0-.2-.4-.1-.6.2-.7.3-.1.3.2 0 .4 0 .5-.2zm-67-.3-.3-.3c-.2 0-.3.2-.3.3 0 .1.1.3.3.3l.2-.3zm1.8 0c0-.1-.1-.3-.3-.3l-.2.3c0 .1 0 .3.2.3s.3-.2.3-.3zm17.5 0-.3-.3-.3.3.3.3.3-.3zm2 0a.3.3 0 0 0-.4 0c0 .2 0 .3.2.3s.3-.1.2-.2zm24.7-.7.6-.6h-1.4v1.4l.8-.7zm5.8-.3-.2-.4-.3-.3v.3c0 .2-.3.3-.7.3h-.6v1.1l.8-.5 1-.5zm8.5.9c0-.1 0-.2-.2-.2v.4l.2-.1zm82.4-.2-.4-.2c-.2 0-.3 0-.3.2s.2.3.4.3c.3 0 .4-.1.3-.3zm9.7-.1.3-.5-.5.1-.6.5c-.1.4.4.4.8-.1zm-135.4-.1c.1-.2 0-.3-.1-.3-.2 0-.3.1-.3.3l.1.2c.1 0 .2 0 .3-.2zm-14.4-.6c0-.1-.1-.2-.3-.2l-.2.2c0 .2 0 .3.2.3s.3-.1.3-.3zm15.4 0c0-.3-.4-.3-.6 0 0 .2 0 .3.3.3l.3-.3zm1.5 0c.2 0 .3-.3.2-.4-.1-.1-.4 0-.6.3-.5.4-.2.6.4.2zm25-.6c0-.2-.3-.4-.6-.4-.2 0-.3 0-.1.2l.4.7.3.5v-.3c.2-.2.1-.5 0-.7zm23.4.4c0-.3.2-.6.3-.6.5 0 .3-.7-.3-1-.3-.2-.7-.7-.8-1.1l-.3-.8-.3.5-.3.4-.5-.6-.4-.7v1.5l.1 1.5h.6c.6.1.8.5.4.7-.6.4-.3.7.6.7h1zm70.3.2v-.2l-.3.2v.3l.3-.3zm15.5-.1c0-.5-.6-.4-.8 0 0 .3.1.4.3.4.3 0 .5-.2.5-.4zm-156.4 0c0-.4-.3-.7-.6-.5-.2.2 0 .6.4.6 0 0 .2 0 .2-.2zm100.8-.3.2-.5-.3-.3c-.5-.5-.7-.4-.7.4 0 1 .4 1 .8.4zm-37.6-.2c0-.2-.2-.4-.5-.4h-.6l.3.4.6.4.2-.4zm-64.8-.1c0-.4-.3-.6-.6-.4-.2.1 0 .6.4.6.1 0 .2 0 .2-.2zm74-1c-.3-.3-1 .1-1 .7v.6l.6-.5c.3-.4.5-.7.4-.8zm-16.4.8a.3.3 0 0 0-.3 0l.1.1c.2 0 .3 0 .2-.1zm43.5-.1c0-.5-.9-1.1-1.4-1-.8 0-.7.8 0 1 1 .3 1.4.3 1.4 0zm34.4-.1c0-.1 0-.2-.2-.2v.2h.2zm-89.2-.3-.1-.1H71c0 .2.1.2.2.2l.1-.1zm1-.1c0-.2 0-.3-.3-.3s-.4.1-.3.3l.3.2.2-.2zm15.3 0c0-.2-.1-.3-.4-.3-.3 0-.5.1-.4.3l.4.2.4-.2zm5.7 0c0-.3-.5-.7-.7-.5-.2.2.1.7.4.7.2 0 .3 0 .3-.2zm-.6-1.3h-1.5v1.3l.8-.6.7-.7zm63 .7c0-.4-.4-.3-.5 0 0 .2 0 .3.2.3l.3-.3zm-18-.4c0-.2-.2-.4-.4-.4s-.4.2-.4.4.2.4.4.4.4-.2.4-.4zm-87.6-.4c0-.1-.1-.2-.3-.2-.5 0-.6.3-.3.6.2.2.6 0 .6-.4zm125.2.5-.3-1-.3-.8-.7.1c-.4.1-1 .5-1.3.8l-.6.6 1.4.1a39 39 0 0 1 1.8.2zm-136.8-.9c0-.7-.4-.8-1.3-.2-.8.6-.7.9.4.9h1zm10.3.2c0-.6-.6-.8-.9-.3-.2.4 0 .8.5.8.3 0 .4-.2.4-.5zm19.1-.3c-.1-1.2-3-2.1-3-1 0 1.4.6 1.8 2.3 1.7h.8zm-3.5 0a.8.8 0 0 0-.7-.5h-.4l.3.3c.2.2.2.5.1.6l.4.1h.6zm55.6.1c0-.2-.2-.4-.4-.4-.4 0-.5.4-.2.7.3.3.6.1.6-.3zm29.4 0v-.5c-.1-.5-1.4-.5-1.4 0s1 .9 1.4.5zm4.6-.3c.2-.4-.3-.8-.9-.9l-.3.3c0 .2.2.3.5.2l.4-.2-.5.5-.5.6h.6c.3 0 .7-.2.7-.5zm3 .4-.3-.4c-.2 0-.2 0 0 .2.1.3.3.4.3.2zm-.8-.4c0-.4-.3-.6-.5-.4-.3.1 0 .6.3.6l.2-.2zM50.5 182c.1 0 0-.3-.2-.3-.4-.2-.8.1-.5.4.2.2.6.2.7 0zm62.6-.4-.2-.4c-.2 0-.3.3-.3.6s.1.4.3.3l.2-.5zm3.6.4c.1-.2 0-.4-.1-.6l-.3-.3-.7.3c-.4.1-.8.4-.8.5l-.1.4h.9c.5 0 1-.2 1.1-.3zm20 .1c.3-.3 0-.6-.4-.4-.3 0-.4.2-.3.3.2.3.5.3.7.1zm-92.1-.6c0-.2-.2-.3-.4-.3s-.4.1-.3.3l.4.2c.2 0 .3 0 .3-.2zm42-.1c0-.6-.8-.8-1.6-.3l-.8.3.5.2c1 .2 2 .1 2-.2zm-4.7-.8h.6l.5.1-.1-.3c-.2-.5-1.2-.4-1.8.2-.7.6-.6 1 .1.6.4-.2.7-.4.7-.6zm74 .5c1-.4 1.2-1 .3-1-.8 0-1.9.8-1.7 1.1.2.4.3.3 1.4-.1zm-75.9-.4c0-.3 0-.5-.2-.5s-.3-.2-.3-.4v-.4h-1c-1 0-1 0 0 1s1.5 1 1.5.3zm-58.7-.2H21c-.2 0-.4 0-.4.2 0 .1.2.2.4 0l.4-.2zm16.6-.3-.2-.8h.4c.7 0 .5-1-.3-1.4-1-.3-1.6 0-1.8.8l-.2.7.9.7c1.1 1 1.4 1 1.2 0zm78.1.3v-.4l-.5.1c-.9.1-1 .8-.2.8.5 0 .7-.2.7-.5zm-71.5-.6c0-.1 0-.3-.3-.3s-.7-.5-.7-1c0-.2.3-.4.7-.6l.6-.2.2-1c.1-.7.3-1.1.4-1.1.1 0 .2-.2.2-.5v-.4l.5.2c.2 0 .8 0 1.3-.2l.9-.3.3.3.3.3.4-.3.3-.3-.4-.5-.5-.6.6.5c.3.3.6.8.6 1.3l.2.9.3.1-.3.5c-.7 1.4 0 2.3 1 1.2.6-.8 1.2-.7 1.2.3 0 .4 0 .6.2.5l.2-1v-.8h.6l.6.1v-1l.4.3c.5.5.7.1.3-.6-.5-.7-.4-1.3.2-1l1.9-.9c1.8-1.1 2.3-1.2 3.7-.2l1 .7-.5.5-.6.5.6-.2c.8-.3 4 0 4.2.4.2.3 1.8.3 2.7 0l.7-.3-.5-.5c-.3-.3-1-.7-1.5-.8l-1-.3v-.6c0-.2-.2-.5-.5-.6-.6-.2-.5-1 .2-1.7l.6-.6-.3-.2h-.6c-.4.2-4.5 0-5-.2l-.3-.2 1.7-.8c3-1.4 3.7-3 1-2.4l-1.6.3-.9-.3c-.4-.2-1.6-.4-2.5-.5l-1.6-.2.5-.6.6-.6-.3-.2c-.2 0-1 .2-1.9.7-1.8 1-2.2 1-1 .2 1.5-1 2.8-4 1.3-3-.6.4-1 0-.5-.5.4-.5.2-.8-.5-.5-.3 0-.6.4-.6.7v.5l-.4-.1c-.3-.1-.6 0-.9.2l-.4.4v-1.2h-.7l-1.9.4-1.2.4-.8-.8c-.9-.8-1.2-.4-.4.4.5.6.3 1.3-.4 1.3-.3 0-.8.2-1 .5l-.6.5.1.4c.4 1 3.2 1.4 4.3.6l.6-.4v.3c.1.2.7.4 1.4.5.7.2-.5.2-3.3.2h-4.4l-.6.6a5 5 0 0 0-1 1.4l-.4.8.5.3.5.4h-2v.8c0 .4.2.8.5 1h.4l-.4.6-.5.5.1 1v1l.8.1.6.2-.6.2c-.7.2-1 1.2-.7 2.4l.1 1.7v.8h.8l1.6.4c1 .4 1.4.4 1.5 0zm16.8-6.9c0-.1-.3-.3-.6-.3H60l.6-.2.6-.5c0-.2.2-.3.5-.3h.5l-.2.5c0 .3-.3.7-.5.8l-.3.3zm2.2-.7h.3c.1.1 0 .2-.2.2s-.2 0-.1-.2zm-18.1-1.2-1.2-1 1.1.8c1 .7 1.6 1.3 1.4 1.3l-1.3-1zm18.3 8.4c.7-.3.6-.6-.3-1-.4-.2-.7-.6-.8-1 0-.8-.7-1.2-1.2-.8-.2.2-.8.3-1.3.3-1.4-.1-1.5 0-1.4.5v.5c-.2 0-.4-.1-.4-.3 0-.1-.3-.2-.5-.1h-.4l.7.8c.4.3.8.9.9 1.1l.2.5 2-.2c1.1 0 2.3-.2 2.5-.3zm2.9.1-.3-.2c-.2 0-.3 0-.3.2s.1.3.3.3c.1 0 .3-.1.3-.3zm15.3-.2c0-.2-.2-.3-.4-.3l-.4-.2c0-.2-.5-.4-1-.5l-.7-.1.5.4.9.4c.1 0 .3.1.3.3l.4.2c.2 0 .4 0 .4-.2zm-58.2-.4c-.2-.2-.4-.4-.6-.3-.3.2 0 .7.5.7h.4zm1.8-.1c.2-.2.3-.5.2-.7-.2-.6-.6-.5-.8.2 0 .7 0 .8.6.5zm-3.3-.5c0-.2-.4-.5-.7-.6l-.5-.3v1.3h1.3zm55.6 0-.1.2c0 .2 0 .2.1.1v-.3zm91.5-.4c.1-.1 0-.2-.2-.2l-.6.2c0 .2 0 .3.3.3.2 0 .5-.1.5-.3zM57 177.3c.4-.5.3-.8-.2-.8-.1 0-.2.1-.1.4 0 .2 0 .3-.3.3-.2 0-.3.2-.2.3.2.4.5.3.8-.2zm104 .3a.3.3 0 0 0-.3 0c-.1.1 0 .2.1.2.2 0 .3-.1.2-.2zm-81.6-.5v-.4h-.8c-1 .2-1 .7 0 .7h.8zm40.6-.1c.2-.4-.7-1.3-1.3-1.3-.6 0-.6.6.1 1.1.7.5 1 .5 1.2.2zm-71.2-.3.7-.3-.4-.5c-.3-.3-.9-.5-1.3-.5-1 0-1 .5 0 .5h.7l-.6.3c-1.2.6-.5 1 1 .5zm9-.7-.2-.9h-1l.3.6c.9 1.6 1.1 1.6.9.3zm7.3.7h.5l-.3-.5c-.3-.6-1.4-.7-1.8-.2-.5.6 0 1 .6.9a5 5 0 0 1 1-.2zm44.8 0 1-.2c.4 0 .7 0 .8-.2 0-.3-1.8-.5-2.3-.3-.2.1-.3.4-.2.6.1.4.5.5.7.1zm-24.6-.2a.3.3 0 0 0-.3 0c-.1.1 0 .2.2.2s.2 0 .1-.2zm1.5 0h-.4l.1.2.2-.1zm-48.2-.6c.3-.4.4-1.8 0-1.8s-1.1 1.3-1 1.7c.2.5.5.5 1 0zm20.3-.5c0-.1 0-.3-.3-.3-.2 0-.4.2-.4.4 0 .5.6.4.7 0zm29.1-.2c0-.3.3-.7.5-.9.5-.4.5-1.2 0-1.4-.9-.3-2 .5-1.8 1.5 0 .1-.1.2-.3.2-.4 0-.8.7-.5 1.1l1 .2 1-.1zm-.6-1.4.4-.3c.2 0 .3.2.3.3 0 .2-.2.3-.4.3-.3 0-.4-.1-.3-.3zm78.2 1.9c0-.2-.1-.3-.3-.3-.1 0-.2.1-.2.3l.2.2c.2 0 .3 0 .3-.2zm-129.4-1 .6-.4-.3-.5-.3-.5 1-.2c1-.2 1.7-.9 1.6-1.7v-.6h-1.5c-1.8 0-3.4.7-3.6 1.6l-.4.6a423.8 423.8 0 0 0 .2-1.6l.2-.6-.5.2-.5.1.4-.3 1-.7.6-.5-1.8-.1c-2.2-.3-2.5-.4-2.3-.9 0-.2 0-.4-.3-.5-.6-.2-.8 0-.4.6l.4.4-1-.2c-.7 0-1.2-.3-1.2-.4-.2-.4-1.2-.3-2 .3-1 .6-3 .7-3.8.1-.7-.5-1-.5-.8.2v.6l2 .7 2.6.8c.3 0 .7.2.8.4.3.7.6.9 2.2.9 1 0 1.6.1 1.6.3l.1.3.6-.3c.8-.5 1-.4 1 .2l-.2.5h2l-.5.4c-.3.2-.4.5-.3.8l.2.4h1c.5 0 1.2-.2 1.6-.4zm-4.7-2.9v-.1l.2.1-.1.2-.1-.2zm.6-.4.3-.2v.2l-.3.3v-.3zm39.8 3.3c0-.2-.2-.4-.4-.5-1-.3-1.6-.7-1.6-1 0-.1 0-.3-.3-.4-.4-.1-.4.5 0 1l.3.3-.3.3c-.6.6-.3.7 1 .7h1.3zm41.6 0c0-.4-1-.8-1.4-.4-.4.4 0 .8.7.8.4 0 .7-.1.7-.3zm-35-.5.1-.4H78c-.7 0-1 .5-.6.8.5.3 1 .2 1-.4zm1.1.3c0-.4-.6-.4-.7 0 0 .3 0 .4.3.3.2 0 .4-.2.4-.3zm38-.5c-.2-.3-.7 0-.7.5v.4l.4-.3.3-.6zm42 .5c0-.2-.2-.4-.3-.4l-.4.4c-.1.2 0 .4.2.4s.4-.2.4-.4zm-47.2-1.8c.1-.6 0-1-.2-1s-.3.4-.3 1c0 .9.4 1 .5 0zM80 173l-.4-.3-.2.3c0 .2.1.3.4.3.2 0 .3-.1.2-.3zm6-1c0-.1-.3-.3-.6-.3-.5 0-.7.3-.3.6.3.3.9.2.9-.2zm1.4 0c.2-.2-.4-.8-1-.8s-.6.4 0 .7c.6.4.7.4 1 .1zm4-.6-.2-.3-.3.3v.6l.2.3.2-.3c.2-.1.2-.4 0-.6zm-2-.1c.1-.6-1-1.5-1.8-1.4-.9.1-.8.5 0 1 .5.2 1 .4 1 .6.1.3.5.2.7-.2zm19.8-.4c0-.3-.5-.6-.7-.4-.1.1.2.7.5.7l.2-.3zm-39-1-.1-.5h-.4c-.5 0-.5.6 0 .8.5.2.7.2.6-.3zm-2.2-1 .8-.4v-.8c0-.5-.2-.9-.5-1-.6-.3-1.5-.1-1.2.2.2.4-.4.6-1 .3l-.7-.3-.8.4c-1.1.6-1 .9.2 1.2.6.2 1.2.6 1.5 1l.4.6.3-.4 1-.8zm-.2-1.2c0-.1 0-.2.2-.2.1 0 .2 0 .2.2v.3l-.4-.3zm7-.5v-.8l-1-.3c-1.5-.4-1.5-.2-.4 1 1.2 1.2 1.2 1.2 1.3.1zm3.3.7.9-.4-.5-.2c-.5-.2-1.9.3-1.7.7.2.3.2.3 1.3-.1zm32.4-.1c.1-.3-.7-.7-1-.5l.1.6c.2.4.7.4.9-.1zm-39.1-.2c.2-.3-.8-1-1.5-1h-.6v.5c0 .9 1.4 1.1 2 .5zm-1-2.5c0-.4-.3-.5-.5-.5-.6.1-.7 1-.3 1.4l.3.4.4-.4c.2-.2.3-.5.2-1zm-3.6.5c0-.6-1-.5-1.2 0v.6l.6-.1c.3 0 .6-.3.6-.5zm8.7.1c.2 0 .4-.3.4-.4 0-.2-1.2 0-1.8.3l-.4.3h.7l1-.2zm-13-.3a.3.3 0 0 0-.3 0c0 .1 0 .2.2.2s.3 0 .2-.2zm9.9-.5c0-.4 0-.8-.2-1l-.2-.2-.7.3c-.8.3-.8.6-.3 1.2.6.6 1.2.5 1.4-.3zm-43.2-.4c.4-.3-.3-.7-1.4-.7H27v.5c0 .8 1.4 1 2.2.2zm15 .3c.2-.1 0-.4-.3-.5l-.6-.3-.6.3c-.4.1-.6.4-.5.5.2.3 1.9.4 2 0zm24.1-.5c.2-.3-.2-.9-.5-.7-.2 0-.4 0-.4-.4-.1-.3-.3-.5-.6-.5h-.4l.2.6c.2 1 1.3 1.7 1.7 1zm6.2-.2c0-.2 0-.3-.4-.3-.3 0-.6.1-.6.4 0 .5.9.4 1-.1zm-17.7-.8.1-.4-.6.1c-.3 0-.6.3-.7.4l-.1.4h.6c.3-.1.6-.3.7-.5zm7.2-.6c0-.2.4-.3.8-.3s1-.2 1.5-.6c.8-.7.7-1.3-.2-.7l-1 .3c-.3 0-.7.2-.8.5-.2.3-.5.5-.8.5-.5 0-1 .4-.7.6.2.2 1.2 0 1.2-.3zm27.3-.4c0-.2-.3-.4-.6-.4-.5 0-.7.3-.3.6.3.3.9.2.9-.2zm-23.3-.1c0-.2-.2-.3-.4-.3s-.5.1-.6.3c0 .1.1.2.4.2.3 0 .6 0 .6-.2zm-42.4-.9c0-.2-.4-.4-.7-.4h-.6v.3c0 .3.3.4.7.4.4 0 .6 0 .6-.3zm34.7 0c0-.3-.2-.5-.4-.5-.4 0-.5.4-.2.7.3.3.6.2.6-.3zm-29.2-.7c0-.8-.8-1-1.4-.5l-.4.3.6.5c.8.6 1.2.5 1.2-.3zm27.3.5c0-.1-.2-.3-.5-.3s-.5.2-.4.3c.1.2.4.3.6.3.2 0 .3-.1.3-.3zm29.7-.3c0-.3-.4-.3-.5 0 0 .2 0 .3.2.3s.3-.2.3-.3zm-59.8-.2c0-.3-.8-.6-1-.4v.4c.3.3 1 .3 1 0zm37.3-.3c0-.1-.2-.3-.4-.3s-.4.2-.3.3c.1.2.3.3.4.3.2 0 .3-.1.3-.3zm-9.3-1c.1-.4-1.5-1.2-1.8-1-.4.5.5 1.5 1.1 1.4.3 0 .6-.2.7-.4zm6.1 0c0-.3-.5-.7-.7-.5-.2.2.2.7.5.7.1 0 .2 0 .2-.2zM39 158c-.1-.6-1-1-1.4-.4l-.3.3.5.3c.8.6 1.3.5 1.2-.2zm31.1-.7c-.2-.6-.8-.7-1.6-.2-.5.4-.3 1 .5 1.3.8.2 1.4-.3 1.1-1zm17.8.4-.4-.4c-.4 0-.4.6 0 1l.3.3.1-.2v-.7zm1.7.3c0-.4-.5-1-.9-1-.3 0-.2.7.1 1 .4.5.8.4.8 0zm-26-.4c0-.2-.1-.3-.4-.3-.2 0-.4.1-.4.3l.4.2c.3 0 .4 0 .4-.2zm-21-.6.4-.3v.3c0 .2.4.3.8.3 1 0 1.1-.7.3-1-.3 0-.8-.3-1-.6l-1-.6c-.2 0-.4-.2-.4-.3 0-.2-.3-.3-.6-.4l-.6-.2.9-.5.8-.7c0-.3-1.7-.2-2.2.2l-.5.3.2 1c.3 1.8 2.2 3.3 3 2.5zm24-.2c.2-.3.2-.7 0-.8-.1-.2-.9.8-.7 1 .3.5.6.3.8-.2zm20.6 0c0-.4-.8-.7-1-.5-.2.3.2.7.6.7.2 0 .4 0 .4-.2zm2-1.7a4 4 0 0 1-.4-1.1c0-.2-.4-.5-.9-.8l-.8-.4.9.1h1.3l.4-.3-.3-.5c-.2-.3-.5-.5-.7-.4-.3 0-.9-.6-1.4-1.3-1-1.3-1.5-1.7-1.3-.8.1.3 0 .6-.1.7-.4.2-.4 1 0 1 .3 0 .6.1.9.4l.4.5-.3.6-.4.6.5.3c.2.2.5.6.5 1v.5h1.3v.6c0 .7.6 1.1.7.5 0-.2 0-.7-.3-1.2zm-57.3-1.6v-.6l-.4.6a2 2 0 0 0-.4 1v.6l.4-.6c.2-.2.4-.7.4-1zm59.5-.6c0-.2-.1-.3-.2-.2-.2 0-.3.3-.3.5 0 .3.1.4.3.3l.2-.6zm-6.1.1c.5-.5.4-1-.2-1.3-.8-.4-1.2 0-.7.6.3.3.4.6.3.8-.3.3.2.3.6 0zm-51.8-.3-.6-.4-.2.4c0 .2.2.4.5.4h.6zm12.3-3.4c.4-.4.4-1-.1-1-.4 0-1.1.8-1 1 .2.4.5.4 1 0zm-3.5-.6a1 1 0 0 0-.7 0l.3.1c.4 0 .6 0 .4-.1zm23.5-.2c0-.5-.8-1.4-1-1.2-.2.2.4 1.5.7 1.5.1 0 .3-.1.3-.3zm-23.5-.9c.8-.7.3-1.7-.8-1.7h-.7l.3.4.3.4-.4.1h-1l-.7-.1v.3c0 1 2.2 1.5 3 .6zm2.6-2.6c0-.2-.2-.4-.3-.4-.4 0-1 1.1-.9 1.4.2.3 1.2-.6 1.2-1zm-7 .4c.1-.3-.4-1-.7-1-.3 0-.4.8-.1 1 .3.3.6.3.8 0zm-3-.3c.4-.5-.1-.6-.6-.1l-.4.4h.4c.3 0 .5-.1.6-.3zm13-1.6c.1-.3 0-.5-.3-.5-.7 0-1 .3-.6.7.4.5.9.3 1-.2zm-12.6-2c0-.4-.1-.6-.4-.6-.2 0-.4.2-.4.7 0 .4.2.6.4.6.3 0 .4-.2.4-.6zm-6.4-9.2c.1-.3 0-.4-.2-.3-.2 0-.4.3-.5.6 0 .3 0 .4.3.3.2 0 .4-.3.4-.6zm-3-2.7c.5-.5.6-.9 0-.9-.4 0-1 .7-.8 1 .3.4.3.4.8 0zm3-1.7c0-.4-1.2-.7-1.6-.3-.4.4 0 .9.8.8.5 0 .7-.2.7-.5zm-8.1 146.5c0-6.8 0-10.5.2-10.5s.3 3.7.3 10.5a81 81 0 0 1-.3 10.4 81 81 0 0 1-.2-10.4zm1.6 0c0-6.8 0-10.5.2-10.5s.3 3.7.3 10.5a81 81 0 0 1-.3 10.4 81 81 0 0 1-.2-10.4zm4.5 0V264h1v21h-1zm3.4 0c0-6.8.1-10.5.3-10.5.1 0 .2 3.7.2 10.5a81 81 0 0 1-.2 10.4 81 81 0 0 1-.3-10.4zm1 0c0-6.8.2-10.5.3-10.5.2 0 .3 3.7.3 10.5a81 81 0 0 1-.3 10.4 81 81 0 0 1-.2-10.4zm4.6 0c0-6.8 0-10.5.2-10.5s.3 3.7.3 10.5a81 81 0 0 1-.3 10.4 81 81 0 0 1-.2-10.4zm1.5 0c0-6.8.1-10.5.3-10.5.2 0 .3 3.7.3 10.5a81 81 0 0 1-.3 10.4 81 81 0 0 1-.3-10.4zm4.5 0c0-6.8.1-10.5.3-10.5.2 0 .3 3.7.3 10.5a81 81 0 0 1-.3 10.4 81 81 0 0 1-.3-10.4zm1.6 0c0-6.8.1-10.5.3-10.5.2 0 .3 3.7.3 10.5a81 81 0 0 1-.3 10.4 81 81 0 0 1-.3-10.4zm1.4 0c0-6.8 0-10.5.2-10.5s.3 3.7.3 10.5a81 81 0 0 1-.3 10.4 81 81 0 0 1-.2-10.4zm5 0c0-6.8 0-10.5.2-10.5s.3 3.7.3 10.5a81 81 0 0 1-.3 10.4 81 81 0 0 1-.2-10.4zm1 0V264H53v21h-2Zm3.2 0c0-6.8.1-10.5.3-10.5.2 0 .2 3.7.2 10.5a81 81 0 0 1-.2 10.4 81 81 0 0 1-.3-10.4zm4.5 0c0-6.8.1-10.5.3-10.5.2 0 .2 3.7.2 10.5a81 81 0 0 1-.2 10.4 81 81 0 0 1-.3-10.4zm1.9 0V264h1v21h-1Zm1.6 0c0-6.8 0-10.5.2-10.5s.3 3.7.3 10.5a81 81 0 0 1-.3 10.4 81 81 0 0 1-.2-10.4zm4 0V264h1v21H66Zm2 0c0-6.8.1-10.5.3-10.5.2 0 .3 3.7.3 10.5a81 81 0 0 1-.3 10.4 81 81 0 0 1-.3-10.4zm4 0V264h1.1v21H72zm2.1 0c0-6.8.1-10.5.3-10.5.2 0 .3 3.7.3 10.5a81 81 0 0 1-.3 10.4 81 81 0 0 1-.3-10.4zm4.5 0c0-6.8.1-10.5.3-10.5.2 0 .3 3.7.3 10.5a81 81 0 0 1-.3 10.4 81 81 0 0 1-.3-10.4zm1.6 0V264h.8v21h-.8Zm4.5 0c0-6.8.1-10.5.3-10.5.1 0 .2 3.7.2 10.5a81 81 0 0 1-.2 10.4 81 81 0 0 1-.3-10.4zm1.9 0c0-6.8 0-10.5.2-10.5s.3 3.7.3 10.5a81 81 0 0 1-.3 10.4 81 81 0 0 1-.2-10.4zm1.5 0c0-6.8.1-10.5.3-10.5.2 0 .3 3.7.3 10.5a81 81 0 0 1-.3 10.4 81 81 0 0 1-.3-10.4zm4.5 0c0-6.8.1-10.5.3-10.5.2 0 .3 3.7.3 10.5a81 81 0 0 1-.3 10.4 81 81 0 0 1-.3-10.4zm2.7 0V264h1.3v21h-1.3zm1.8 0c0-6.8.1-10.5.3-10.5.2 0 .3 3.7.3 10.5a81 81 0 0 1-.3 10.4 81 81 0 0 1-.3-10.4zm1.6 0c0-6.8.1-10.5.3-10.5.2 0 .3 3.7.3 10.5a81 81 0 0 1-.3 10.4 81 81 0 0 1-.3-10.4zm6.1 0c0-6.8.1-10.5.3-10.5.2 0 .2 3.7.2 10.5a81 81 0 0 1-.2 10.4 81 81 0 0 1-.3-10.4zm1.9 0c0-6.8 0-10.5.2-10.5s.3 3.7.3 10.5a81 81 0 0 1-.3 10.4 81 81 0 0 1-.2-10.4zm1.6 0V264h2v21h-2zm2.6 0V264h.8v21h-.8zm5 0V264h.8v21h-.8zm1.4 0c0-6.8 0-10.5.2-10.5s.3 3.7.3 10.5a81 81 0 0 1-.3 10.4 81 81 0 0 1-.2-10.4zm2.6 0c0-6.8 0-10.5.3-10.5.1 0 .2 3.7.2 10.5a81 81 0 0 1-.2 10.4 81 81 0 0 1-.3-10.4zm1 0V264h1.4v21H121zm2.4 0V264h1.1v21h-1.1zm3.5 0c0-6.8 0-10.5.2-10.5s.3 3.7.3 10.5a81 81 0 0 1-.3 10.4 81 81 0 0 1-.2-10.4zm1.6 0c0-6.8 0-10.5.2-10.5s.3 3.7.3 10.5a81 81 0 0 1-.3 10.4 81 81 0 0 1-.2-10.4zm1 0c0-6.8.1-10.5.3-10.5.2 0 .3 3.7.3 10.5a81 81 0 0 1-.3 10.4 81 81 0 0 1-.3-10.4zm4.5 0c0-6.8.1-10.5.3-10.5.2 0 .2 3.7.2 10.5a81 81 0 0 1-.2 10.4 81 81 0 0 1-.3-10.4zm1.6 0c0-6.8.1-10.5.3-10.5.1 0 .2 3.7.2 10.5a81 81 0 0 1-.2 10.4 81 81 0 0 1-.3-10.4zm1.3 0V264h1.6v21H137zm4.8 0V264h.8v21h-.8zm1.8 0c0-6.8.1-10.5.3-10.5.2 0 .3 3.7.3 10.5a81 81 0 0 1-.3 10.4 81 81 0 0 1-.3-10.4zm2.7 0V264h1.3v21h-1.3zm1.8 0c0-6.8.1-10.5.3-10.5.2 0 .3 3.7.3 10.5a81 81 0 0 1-.3 10.4 81 81 0 0 1-.3-10.4zm1.6 0c0-6.8.1-10.5.3-10.5.2 0 .3 3.7.3 10.5a81 81 0 0 1-.3 10.4 81 81 0 0 1-.3-10.4zm1 0V264h1.1v21h-1zm3.5 0c0-6.8.1-10.5.3-10.5.2 0 .3 3.7.3 10.5a81 81 0 0 1-.3 10.4 81 81 0 0 1-.3-10.4zm1.6 0c0-6.8.1-10.5.3-10.5.2 0 .2 3.7.2 10.5a81 81 0 0 1-.2 10.4 81 81 0 0 1-.3-10.4zm4.5 0c0-6.8.1-10.5.3-10.5.2 0 .2 3.7.2 10.5a81 81 0 0 1-.2 10.4 81 81 0 0 1-.3-10.4zm3 0c0-6.8 0-10.5.2-10.5s.3 3.7.3 10.5a81 81 0 0 1-.3 10.4 81 81 0 0 1-.3-10.4zm3.1 0c0-6.8 0-10.5.3-10.5.1 0 .2 3.7.2 10.5a81 81 0 0 1-.2 10.4 81 81 0 0 1-.3-10.4zm5 0c0-6.8.1-10.5.3-10.5.2 0 .3 3.7.3 10.5a81 81 0 0 1-.3 10.4 81 81 0 0 1-.3-10.4zm1 0V264h.9v21h-.8zm3 0c0-6.8 0-10.5.3-10.5.1 0 .2 3.7.2 10.5a81 81 0 0 1-.2 10.4 81 81 0 0 1-.3-10.4zm1.6 0V264h1.3v21H177zm1.8 0c0-6.8.1-10.5.3-10.5.2 0 .3 3.7.3 10.5a81 81 0 0 1-.3 10.4 81 81 0 0 1-.3-10.4zm1 0V264h1.2v21h-1.1zm2.2 0c0-6.8.1-10.5.3-10.5.1 0 .2 3.7.2 10.5a81 81 0 0 1-.2 10.4 81 81 0 0 1-.3-10.4zm3 0V264h2v21h-2zm2.6 0V264h.8v21h-.8zm2.3 0c0-6.8.1-10.5.3-10.5.2 0 .3 3.7.3 10.5a81 81 0 0 1-.3 10.4 81 81 0 0 1-.3-10.4zm1.1 0V264h1.1v21h-1.1zm3 0V264h1.5v21h-1.6zm2 0c0-6.8.1-10.5.3-10.5.2 0 .3 3.7.3 10.5a81 81 0 0 1-.3 10.4 81 81 0 0 1-.3-10.4zm1 0V264h1.1v21h-1zM45.5 259.7l.1-.2.1.2v.1l-.2-.1zm110-15.3.7-1.4v-1.6c0-1 .2-1.8.3-2 .2-.4.7-.3.5.2l-.4 2.7-.3 2.3-.5.6c-1 1-1 .7-.3-.8zm-100.7-6h.4c0 .2 0 .2-.2.2s-.3 0-.2-.1zm-19.4-1.8h.2l-.1.2c-.1 0-.2 0-.2-.2zm135.5 0h.2l-.2.2-.1-.2zm-135-.2.2-.2.1.2-.1.1-.1-.1zm135.5 0s0-.2.2-.2v.3l-.2-.1zm-135-.3.2-.1.2.1-.2.1h-.1zm135.6 0v-.1l.2.1-.1.1h-.1zm-76.4-.4c-.1-.2 0-.3.1-.1.3.2.4.4.2.4l-.3-.3zm20.1 0c-.1-.2 0-.3.1-.1.3.2.4.4.2.4l-.3-.3zm-86.8-.2c0-.2 0-.3.3-.3.2 0 .4.1.3.3l-.3.2-.3-.2zm1.6-1.1c0-.1 0-.3.3-.3.2 0 .4.2.4.3 0 .1-.1.3-.3.3l-.4-.3zm99.5-.2h.3c.1.1 0 .2-.1.2-.2 0-.3 0-.2-.2zm-45.4-.2.2-.1.1.1-.1.1-.2-.1zm20.2 0v-.1l.2.1-.1.1-.1-.1zM85 233l.5-.6c.2-.1.1.1-.1.5-.6.8-.8 1-.4.2zm20 0 .6-.6c.2-.1.1.1-.1.5-.6.8-.8 1-.4.2zm-8-.3-.1-.8v-.5l.3.3.2.7c0 .3-.2.4-.3.3zm13.6-.2c0-.2-.1-.6-.4-.7-.2-.2-.3-.7-.3-1 0-.5 0-.6.1-.3 0 .2.3.5.5.5.3 0 .4 0 .2.3 0 .1 0 .4.3.6l.4.3-.4.3-.4.4zm6.6.2-.2-.8v-.5l.3.3.2.7c0 .3-.2.4-.3.3zm26.3-.3c.1-.1.3-.1.4 0l-.2.1c-.2 0-.3 0-.2-.1zm-21-2c0-.6 0-1.3-.2-1.5l-.2-.4-.7.2c-.4 0-1 .6-1.4 1.2-.7 1.1-.9 1.2-1.7.8-.7-.4-.7-.8 0-1.7.7-.9.7-1-.2-.6-.8.3-1.8 0-1.5-.4l.8-.2c.7 0 1-.3.6-.7l-.3-.3.6-.3c1.7-1 4.4-.5 5.7.9l1 .9v1c0 1.3-.9 2.5-1.8 2.5h-.7v-1.3zm1.6-2c0-.4-.5-.7-.7-.5-.2.2.2.7.5.7.1 0 .2-.1.2-.3zm-62.7 2.2c0-.1 0-.2.2-.2v.2h-.2zm19.6 0 .1-.2c.1 0 .2 0 .2.2H81zm-20.6-.3.1-.1.1.1-.1.1-.1-.1zm19.5 0 .2-.1.1.1-.1.1-.2-.1zm20.2 0v-.1l.2.1-.1.1-.1-.1zm43-1.4-.3-.5.4.4c.5.4.6.6.4.6l-.5-.5zm-15.3-1 .2-.1.1.1-.1.1h-.2zm48.8 0c.1-.1.3-.1.4 0l-.2.1c-.2 0-.3 0-.2-.1zm0-.8v-.1l.2.1-.1.2-.2-.2zm-32.9-.4c-.2-.1-.3-.2-.1-.2.1 0 .4 0 .6.2.3.2.3.3.2.3a1 1 0 0 1-.7-.3zm-.8-.4.1-.1.2.1c0 .1 0 .2-.2.2v-.2zm-84-.4c-.1-.2 0-.2.1-.1.3.2.4.4.2.4l-.3-.3zm19.5 0c0-.2 0-.2.1-.1v.3l-.1-.2zm64 .2.1-.2s.2 0 .2.2l-.2.1-.1-.1zm-.8-.3.1-.1.2.1-.2.1-.1-.1zm-106.9-.5.1-.2.2.2-.2.1-.1-.1zm121 0v-.2l.2.2-.2.1v-.1zm14.7-.3.2-.1.1.1-.1.1-.2-.1zM35 224.7h.2l-.1.2-.1-.2zm120.9 0 .4-.4.5-.4-.4.5c-.3.5-.5.6-.5.4zm22.2-.4c0-.2.1-.5.3-.5l.2.5c0 .3 0 .6-.2.6s-.3-.3-.3-.6zm-7.4.2.1-.2.2.2-.2.1-.1-.1zm-135.5-.3.2-.1.1.1-.1.1h-.2zm18.8-.1c0-.2.1-.3.3-.3.2 0 .2.1.1.3l-.3.2v-.2zm135.7 0c0-.2.1-.3.2-.2.1.1.1.3 0 .4 0 0-.2 0-.2-.2zm-154.2-.4.1-.2.2.2-.2.1-.1-.1zm127-.8.1-.1h.2c0 .2-.1.2-.2.2l-.1-.1zm-1.6-.5.1-.2c.1 0 .2 0 .2.2h-.2zm-111.4-4 .2-.1v.2l-.2-.1zm.5-.3.2-.1.1.1-.1.2-.2-.2zm-4.8-1.7v-.3c.2 0 .3.2.3.3v.3c-.1 0-.3-.1-.3-.3zm133.6-1.8.4-.6c.4 0 .3.5-.1.8l-.4.3zM29 212.7c-.8-.3-1-.8-.4-.8.8 0 1.7.5 1.5.8-.2.3-.4.3-1.1 0zm.8-1c0-.2-.4-.3-.7-.3-.5 0-2.3-1-2.3-1.4 0-.1.1-.2.4-.2l1-.4.6-.4v.9l.8.1h.9v.5l-.3 1-.2.5-.2-.3zm12.8 0c0-.2-.2-.3-.4-.4l.4-.1c.5 0 1 .2 1 .3-.2.4-1 .5-1 .2zm93.6-.3c0-.2.3-.3.6-.3h.4l-.4.3c-.5.3-.8.3-.6 0zm1.7-1h.4l-.2.2-.1-.1zm-3.3-2.2c.1-.2.3-.4.5-.4h.4l-.3.4c-.3.7-.7.7-.6 0zm.1-4.6.1-.2.2.2-.2.1v-.1zm-30.4-16.8c0-.4 0-.5.2-.4v.7c-.1.2-.2 0-.2-.3zm-12.2-8.2c0-.2.1-.3.3-.3.1 0 .2.1.2.3 0 .1 0 .2-.2.2a.3.3 0 0 1-.3-.2zm6.1-.9-.5-.8.3-.4c.4-.5.8-.4.6.2l-.2.5h.4c.3 0 .5.3.5.7 0 1-.5.8-1-.2zM96 177c0-.5-.1-.8-.2-.8-.2 0-.3-.2-.3-.5v-.6l.4.2c.2 0 .4.4.4.7l.4 1.2.4.6H96zm-11.8-9.3c-1.7-.3-1.9-.8-.5-1.3.6-.2 1-.2 1.4 0l.4.2-.3.2c-.5.3-.3.6.4.7l.8.1-.7.1h-1.5zm-1.6-2.6c-.3-.5.2-.7.7-.2l.4.4h-.4c-.3 0-.6 0-.7-.2zm3.1-1.5c-.1-.2-.5-.3-.8-.2-.3 0-.5 0-.5-.2 0-.1-.1-.2-.3-.1-.2.1-.4 0-.6-.3l-.4-.4-.6.3-.6.3.4-.5.5-.4 1.4.3c2.2.5 2.3.6 2.3 1 0 .5-.4.7-.8.2zm26.7 0c0-.4 1.1-1.4 1.6-1.4s.3.4-.4.7c-.3.2-.6.5-.6.7 0 .2-.2.4-.3.4-.2 0-.3-.1-.3-.3zm-28-3.8c0-.2.1-.3.2-.3.2 0 .3.1.3.3 0 .1-.1.2-.3.2a.3.3 0 0 1-.2-.2zm12.7 0-.6-.3v-2.1l.5-.2c.3 0 .6-.3.6-.4.1-.1.4-.2.5-.1.2 0 0 .4-.5 1-.9 1.2-.7 1.8.3 1.3.7-.4 1-.1.6.5-.3.5-.6.6-1.4.3zm-13.9-1-.2-.4.4.3c.5.4.6.6.2.6-.1 0-.3-.2-.4-.5zm-15-9.5.2-.1.1.1-.1.2c-.1 0-.2 0-.2-.2zm.6-.9c0-.1 0-.3.2-.3s.3.2.3.3c0 .2-.1.3-.3.3a.3.3 0 0 1-.2-.3zm19.4-2.6c-.2-.3-.4-.6-.3-.7l.6.4c.2.3.4.6.3.7l-.6-.4z" transform="translate(-6 -88.2)"/></svg>
