<?xml version="1.0" encoding="utf-8"?>
<svg xmlns="http://www.w3.org/2000/svg" xml:space="preserve" viewBox="0 0 1000 1000">
  <path d="m613.4 621.8.5-4.2c-.7.9-1.1 1.8-1.1 2.4-.1.6.2 1.2.6 1.8zM954 490.4c.7 1.3 6.4 6 8.7 9.6 3.2-2.9 6.2-5.9 8.6-8.8l1.9-3.4c1.3-2.7 2.5-5.6 3.5-8.7a73 73 0 0 1-17.1 3.2c-1.7 3.1-3.8 5.4-5.6 8.1zm-339.8 63.8c3.9 7 6.1 9.1 10.5 14.2 7.1 8.3 10 9.3 17.6 16 2.2 1.9 2.5 1.5 5 1.1h.5l.5-.1h.1l1.7-.6c.9-.3 1.9-.2 2.8-.2l.9-.2 5.8-.5c-.8-1.6-4.9-4.3-6.4-5.3a90.4 90.4 0 0 1-16.8-18.2 63 63 0 0 1-7.7-15.6c-8.8-25.9-.8-48.1 6.1-73.5 4.5-16.5 9.2-30 9.2-48.2-.1-3.1-1-6.7-.2-9.3 3.8-1.2 4.5 1.2 9.9 4.5a90 90 0 0 0 9.8 5c25.8 11.2 66.6 14.5 89.2 30.5a116.8 116.8 0 0 1 12.1 10.1l3.6 4.2A70.7 70.7 0 0 1 782 499c.5 2.8 1.3 11.3 2.3 12.9l3.7-4.9.6-.6c.5-.8.9-1.7 1.5-2.3l1.1-1.3c2.2-1.7 3-3.4 2.7-5.8-.6-7-3.1-15.7-5-22.3a86 86 0 0 0-11.9-24.5l-1.8-2.5-1.6-2.6c-.6-.8-1.3-1.5-2.1-2.1l-1.6-1.1-1.1-1.4c-1.5-1.5-3.1-2.7-4.8-4.1a97 97 0 0 0-28.7-16.9c-34.1-13.6-74.6-16.8-102.8-33.1-1.8-1-3.9-2.7-6-3.4l.4 6.2c0 35.3-19.6 74.1-23.5 111.3-.4 4-.6 10.6-.3 17.2 2.4 8.7 4.5 18.1 6.4 27.8a89 89 0 0 0 4.7 8.7zm272.4-163.6c-5.2 2.5-11.1 4.5-16.7 6.3-22.7 7.4-49.8 11.8-71.7 19.9-7.6 2.8-26.7 11.1-30 15.9 1.2 1.1 3.1 3 4.6 3.8l1.7 1.6c.8.7 1.6 1.2 2.4 2 .9.9 1.7 2.3 2.3 3.7l.3.6 1 2.1c.3.5.6.8 1.1.9l1.2 1.5c16-8.2 34.2-12.2 52.9-16.8 12.3-3 27.6-7.6 38.4-14 2.1-1.2 3.5-2.5 5.2-3.6 6.7-4.6 4.6 2.7 4.5 6.7-.6 12.2 1.3 21 4.4 32.9 8.9 35.5 25.9 71 3.4 105.7-4 6.2-11.6 13.5-17.1 18.6-2.2 2.1-6.2 4-6.4 5.3l7.3.9c1.2.4 2.6.4 3.9.7 5.1.5 2.2 2.2 10.9-4.7 3.2-2.6 6.3-4.9 9.1-7.9l4-4.4c5.4-5.8 15.1-19.6 16.2-26.7 1-6.7 1.8-1.4 4-13.4a99.8 99.8 0 0 0 .6-31.8c-.7-5.1-1.8-10.6-3.1-16.3-7.5-2.5-14.7-6.8-15.2-13.5l11.1-2.8c-3-11.1-6.3-22.3-9.2-32.8a84.2 84.2 0 0 0-16.4-2.9c-3.9-5.6 6.8-10.7 12.6-12.7-1.3-6-2.2-11.6-2.5-16.3-.3-4.1 0-9 0-13.2l-2.5-1.9c-1.5.9-2.9 1.9-4.6 2.8-2.4 1.4-5.1 2.5-7.7 3.8zM644.1 596.5c1.8-.8 5-1.7 6.6-2.6 1.6-.9 3.8-3.1 4.5-4.6-11 .7-27.3 6.5-36 10.9-1.6.8-3 1.7-4.5 2.6-.1 5-.4 9.9-.8 14.8 4.7-6.3 23.2-18.1 30.2-21.1zm299-106.9a39 39 0 0 0-16-4l1.6 6.6c-.2 4.8-.1 5.1 2.5 5.4 4.6.7 8.6 2.7 11.9 5.1 2.3 1.7 4.9 4.3 7.2 7.5l8.5-6.7a35.7 35.7 0 0 0-4.2-5.1 39 39 0 0 0-11.5-8.8zm-324 150.3c6.7 3.5 27.4 11.3 36 10.8-3.7-5.4-6.6-5.1-10.8-7-4.2-1.9-8.4-4-12-6.4-3.9-2.5-7.4-4.9-10.8-7.6-2.1-1.8-6.5-5.2-8.1-7.9-.5 4.6-1.3 9.1-2.2 13.5 2.5 1.6 5 3 7.9 4.6zm-133.3-73-.2-2.6v-2.1l-.1-.5.1.1.2-2.5c-7.1-1.6-11.2-2.7-19.1-2.6-13.5.2-26.4 7-36.4 15.3 1.9 5 3.7 9.9 5.3 14.9l.2-.2c10.6-10.7 26.6-24.1 50-19.8zm469.4-40.2v1.7c0 4-1.5 6.7-2 9.7 4-2.7 8.1-5.3 12.3-7.7l-10.3-3.7zm-11.5-42.3c2.1.9 4.1 2.4 5.9 3a24 24 0 0 0 3.7-4.6l-13 .6c1.2.3 2.4.6 3.4 1zm-20.9-47.5a102 102 0 0 0-9.6-4c.6 2.1 1.1 4 1.4 4.4 1 .1 4.2-.5 8.2-.4zM515.9 645l-.2-.3c-1-1.2-2.4-2-3.6-2.9-1-.8-1.8-1.6-2.9-2.3v-.1l-1.9-1.7a50.4 50.4 0 0 0-12.4 18.4c3.1.4 6.1.9 9.3 1.8 1.9.5 3.8.6 5.8.4 3.7-7.1 7.2-9.4 7.9-11.6-.9-.6-1-1-2-1.7zm391.4-238.7.3 2.2c-.1.4-.1.9.2 1.4.5.7.3 2 .4 2.8l.2 1.7c11.2-2.1 21.1-.9 31.5-.9-3.9-3-7.6-5.8-11.4-8.4-7-1-14.1-.8-21.2 1.2zM517.1 656.5c2.4-1.1 4.5-2.6 6.3-4.4l-1.5-1.1c-1.3.8-3.1 2.9-4.8 5.5z"/>
  <path d="M457.2 592.5a41.8 41.8 0 0 0 5.4-18.9c-7.3 1.7-18 11.1-25.4 18.3a124 124 0 0 1 3.8 16c6.8-4 12.6-9.1 16.2-15.4zm449.3-191.2c3-.3 5.5-1.2 8.8-1.4l5.4-.2c-5.2-3.5-10.3-6.9-15.1-10.4 0 4.2.5 9.6.9 12z"/>
  <path d="M479.3 597.6c2.5-2.4 5-4.7 7.2-7.6 4.2-5.6 3.3-3.4 1.4-10.3-.6-2.1-1-4-1.3-6.1-.3-2.1-.5-2.1-5.3-2.5-6.1-.6-8.7.3-14 .8-1.4 16.8-6.1 27.3-18.5 36.7-1.6 1.2-4.4 3-7.1 4.5l.2 1.7a111 111 0 0 0 28.4-10.8c3-1.8 7-4.5 9-6.4zm60.9-54c-15.3 7.7-15.5 27.1-6.3 33.4 1.9-1.2 2.7-2.9 4.2-4.3l4.2-4.3 12.8-12.8.3-12.2a18.7 18.7 0 0 0-15.2.2z"/>
  <path d="M556.1 525.3c-9.2-1-16.2-1.8-25.6 3.6-18.9 10.9-26.1 32.5-15.7 51.8 1.4 2.6 5 8 7 8.7 1.6-1.1 7.5-6.8 8.2-8.6-9-9.2-9.6-21-2.9-31.9 2.7-4.4 6.4-7.9 11.8-10.2 8-3.3 12.8-1.3 16.8-.4l.7-9.2c-.1-1.4-.1-2.7-.3-3.8zm399.4-61.5a83.4 83.4 0 0 0-10.9-12.1c1.3 3 2.1 5.9 2.2 8.9 3 .6 5.9 1.6 8.7 3.2zm-392.4 2.8a43.3 43.3 0 0 1 14.8-36.8 42 42 0 0 1 32.4-10c2.5.2 4.9 1.1 7.3 1.2l.3-1.9.2-.4c.5-1.7.6-3.5 1.1-5.3.5-1.7 1.1-3.3 1-5v-.2l.2-1.8a57 57 0 0 0-39.2 3.8 58 58 0 0 0-32.5 59.4c1 6.4 2.9 12.7 5.5 17.9 2 4 6.7 11.8 9.5 13.7.7-.3 1.9-1.8 3.3-3.6 1.9-3.4 3.4-6.7 4.5-9.9a40.3 40.3 0 0 1-8.4-21.1zm353.1-24.2c.9 5.1 3.3 13.1 5.3 20.2a71.9 71.9 0 0 1 20.4-2.6 29 29 0 0 0-.4-3.1 21 21 0 0 0-25.3-14.5zm23.7 75.1c-3.4.2-6.7 0-10 .2l-.7 6.8a24 24 0 0 0 6.3 2.9c1.2-1.5 1.8-3.4 2.8-5.1l1.3-2-2.5-1.1 2.8-1.7zM599 491.2c.1-1.2.6-1.6.9-2.6.3-1 .4-2.1.5-3.2-2.6.1-5.1.5-7.5 1.1l4 10.9c3.5-.8 1.8-3.3 2.1-6.2zM646 853a76.5 76.5 0 0 0-12.7 6.6c-4.9 2.9-12.1 13.7-17.1 21.7 4-.7 8-1.5 12-2.6a63.7 63.7 0 0 1 23.9-8l1.6-.7c-.6-1.6-3.4-6.1-4.1-7.8-1.4-3.1-2.3-6.4-3.6-9.2zm-29.7-38.4-3-12.1c-7.7.8-11.8 1.6-18.8-1.9a24.8 24.8 0 0 1-8.7-7.4c.5 6 1.1 12 1.8 17.9a40.8 40.8 0 0 0 20.2 4.9c3.1.1 5.7-.7 8.5-1.4zm75 34.7c7.1-4.8 13.9-9.9 20.6-15.4-9.4 2.6-21.5 5.9-25.6 6.5.4 3.2 2.3 6.3 5 8.9zm-70.8-15.6-.4-2.7c-.2-1.6-.7-3.1-.8-4.7-.1-1.2-.2-2.8-.9-3.9l-.6-2.9c-5.8 1-6.6 1.5-12 1.4a47.7 47.7 0 0 1-17.3-3.8c.8 5.7 1.7 11.3 2.8 16.7 4.5 1.4 8.9 1.9 15.6 1.9 3.2 0 10.8-1 13.6-2zm-24.1-158.1c3 2.6 8.7 7.6 12.2 9.1.5-.5 1.8-2.5 2.3-3.3.9-1.7.2-2.5-.5-4.1a146.8 146.8 0 0 1-5.9-19.6c-1.2 2.8-2.4 5.6-3.8 8.3-1.6 3-3 6.2-4.3 9.6zM680.1 842c-1.1.1-9.3 2.3-10.6 2.9.2 4.1 3.4 9.6 6.6 13.8a313 313 0 0 0 10.8-6.6l-1.8-2.3c-4.1-6.4-2.8-8-5-7.8zm-15.7 4.5-3.4.9c-2.7.6-5.5 1.3-7.9 2.7l-2.4.7c.3 4.5 3.7 11.1 7.8 17 4.5-2 8.9-4.2 13.2-6.6l-1.6-2.3c-3.8-6.3-4.4-10.7-5.7-12.4zm-42.9 9.5c.8-3.5.3-13.5-.4-17-2.2 0-6.1 1-8.5 1.3-3.4.4-6.9.3-10.4.3a66.7 66.7 0 0 1 4.7 38.2l-.7 3.7.1.3 3.3-.4 1-1.9c2.7-5.4 9.7-19.1 10.9-24.5zm-23-12.2c-2.2-4.8-1.3-3.7-6.2-4.7 2.8 13.2 6.3 25.3 10.4 35.6 1-10.5.1-21.4-4.2-30.9zM528 638.2c0-2.6-1.7-10-1.7-16.1-.7-.5-1.2-1.2-1.1-2.1 0-.8.6-1.5 1.5-2.1.3-1.3.6-2.4 1.3-3.1l.5 2.1c2.2-1 5.1-2.2 8.1-4.1 7.4-4.9 9.7-7.1 15.8-12.2 1-.8 3.4-3.1 6.2-5.9.2-6.1-.4-12.5-2.5-18.7-.5-2.5-.8-7.4-.9-13.6l-29.6 30.4a165.1 165.1 0 0 1-27.5 22.4l-8 4.7c1.3 1.7 5.6 3.3 7.7 4.6 3.6 2.1 11.5 7.8 14.4 10.4l3.1 2.9c1.1.9 2.6 2 3.5 2.9l7.5 7.4c1.6-2.9 2.4-6.3 1.7-9.9zm72.4 67.1.2-.9 1-4.4c.4-1.7 1.4-3.3 2-4.9l2.6-5.6c-1-.8-1.9-1.3-2.9-1.9-2.3-1.6-5.5-4.1-8.8-6.8-2.4 7.3-4.3 15.4-5.9 24.2 3.8 2.4 8.4 4.9 10.6 5 .6-1.3.9-3.3 1.2-4.7z"/>
  <path d="M573.6 466.6c-.5-5.5 2.2-8 6.8-3.8 0-12.1 8.9-24.3 22.2-25.7 6.1-.6 8.2.6 10.4.6.9-3.1 3-9 3.1-11.9a38 38 0 0 0-43 55.7c1-5 1.2-10 .5-14.9zm24.2 256c.8-8.4 1.5-6.9-2.3-8.5-1.2-.5-2.1-1-3.3-1.3-1.1 1.2-1.9 3.4-2.8 5-1.5 2.6-2.7 3.4-3.2 5 4.5-.6 7.5-.2 11.6-.2zm342.4-192.8c.7.9 7.5 5 8.7 5.6.5-3.6 1.5-6.9 1.4-10.5l-6.1-2.6a29.3 29.3 0 0 0-4 7.5zm-341 215.5c.2-3.5-3.7-2-9.6-4.8-1.6-.7-3.1-1.7-4.5-2.7l-.5 12.6a37.1 37.1 0 0 0 15.9 4.4c.1-5.2-1.7-1.2-1.3-9.5zm-1.5-17.7c-3 0-8.2-.5-11.9.1l-.3 4.2a27 27 0 0 0 12.7 6l-.5-10.3zm-13.2 37c2-3 4.3-4.4 5.6-6.6-1.7-.8-3.7-1.5-5.6-2.2v8.8zm267-185.9c-1.3-.8-2.5-1.7-4.2-2-.3 1.5-.3 3.3-.8 4.5-.7 1.6-1.4 1.6-1.6 3.9 1.2.5 5.3 4 6.8 5.1 2.8 2.2 8.8 8.9 12.3 12.4 3.2 3.2 7.6 7.6 11.9 10.9l5.7-7.2-8.1-8.2c-8.3-8.3-11.8-12.8-22-19.4zm-364.9 71.6a64.2 64.2 0 0 0-29.2-20.3c-3.4-1.2-9.1-3.1-14-4.2l.7 2.6c9 5.4 14.8 11.6 18.5 19.5 8.7 6.5 17.7 6.8 27.1 7.6 0-1-.7-2-3.1-5.2zM867.4 613c-2.7-2.1-5.8-5.7-8.2-8.1l-12.4-11.7c-1.3-1.3-2.9-2.9-4.4-3.7-1 .6-2.2 2.5-2.9 3.5-1 1.4-1.7 2.6-2.9 3.8l-6.7 6.6c6.8 1.9 24.5 12 24.5 16.6 0 3.6-12.7 11.7-17 13.8-2 1-6.1 2.1-7.5 3.2.7 1.1 2.3 2.2 3.4 3 1.4 1.2 1.8 2.1 3 3.3 2.2 2.3 3.9 4.5 5.5 7.2 3.8-.8 13.6-11.5 20.4-18.5l10.7-14.6-5.5-4.4zm15.9-16.6 4.5 2.1 4.3-5a78 78 0 0 0-19.6-4.3c2.4 4.5 5.8 5.1 10.8 7.2zm43.7-60.5-.2.4c-.6 3.4-1.7 6.6-3.2 9.7-.9.9-1.7 2.2-2 4.7.7.9 4.5 3.5 7.5 5.7 6.2-5.2 12.5-10.2 19.1-14.8a71.4 71.4 0 0 0-19.9-11.5c-.2 1.2-1.3 4.6-1.3 5.8zm-97.6 125.6c-3.8.6-7.8.4-11.6-.3-3.1-.6-7.1-2.4-9.6-2.5.6 1 .6.3 1 1.2.5 1.2-.1 1 .4 2.5 7 4.4 19.8 6.1 29 4.2l.4-.1 8.8-13.4a42 42 0 0 1-18.4 8.4zm87.4-102.6c-.8 1.5.2 2.7.7 4.1l1.1 2.9 6.8-6.3a39 39 0 0 0-6.2-4c-.7.6-1.8 2.1-2.4 3.3zm-374.9 56.4-7.7 4.6c1.6 2 5 3.2 7.4 4.7 2.3 1.4 4.3 3 6.3 4.6 3.8-6 8.1-15.7 9.9-26.7l-2.2 2.1c-4.5 3.4-8.1 7.2-13.7 10.7zm292.7 58 .6-1h-.6v1zm-54.7 36.8c-2.1-.8-4.3-2.1-6.5-2.4-3 6.1-3.2 3.6-5.1 6.4 3.7 4.7 24.4 10.2 30.8 11.8l2.4.6 5.5-8.8c-9.2-2.7-19.5-4.5-27.1-7.6zm11.4 27.5-.7-.9-1.7-2.2-4.6-6.2c-.9 1.5-1.8 10.1-2.2 12.5a68.5 68.5 0 0 1-29.2 45.8c-17.9 12.2-46.4 17.4-66.8 23.1-9.4 2.6-24.5 7.1-32.5 12.5-2.9 2-7.7 6.4-9.6 4.1-1.1-1.3-.4-4.4-.2-6.1 2.8-22.5-14.2-62.8-17.8-87a75.5 75.5 0 0 1 6.9-47.5c1.6-3.2 3.4-5.7 5.4-8.4l13.7-14.7c2.2-1.7 6.2-4.3 7.9-6.2l-7.4-1c-1.3-.4-2.7-.3-4-.7-4.6-1.3-5.3-.1-11.1 4.8l-2.3 2-4.4 4c-1 .8-1.4 1-2.3 2a86.6 86.6 0 0 0-3.8 4.7c-5.6 7.4-5.6 5.6-10.9 14.9a67 67 0 0 0-5.4 11.6c-.6 4.4-.7 2.8-2.2 6.2-3.7 8.1-3.4 28.8-2.1 38.2 2.5 19.2 8.2 37.3 13.4 54.9 3.8 12.8 8.1 28.5 9.2 42.2.5 5.7 0 11.4.3 17l11.6-6.4c22.6-11.4 55.1-16.5 83.1-25.2 29.3-26 53.9-57.3 72.1-86.2-1.1-.9-1.6-1.4-2.4-1.8zm4.8-2.3 2.3-3.7a11.3 11.3 0 0 0-6.6-2.2c.2.9 2.3 3.5 4.3 5.9zm33.6-62.5c-3.2-.8-6.1-.9-9.4-1.5-2.9-.6-6.3-2.1-8.9-2.4.2 6.1 1.8 6.6 1 17-.2 2.7-.7 5.5-1.2 8.1-.5 2.6-1.1 5.3-4.4 4.9-6-.7-16.8-6.8-21.7-10.9-1.4-1.1-1.3-1.4-3-2.1-.9 2.8-1.4 6-2.2 9-.9 3.3-2.4 5.4-3.3 8.4.1 0 .2 0 .2.2l.4.3.2.1 3.7 1.6c9.1 3.3 19.2 5.2 28.5 8.2l18.3-29.5c1.1-4.6 1.8-8.6 1.8-11.4zm-298.3-48.3c3.2 6 7.1 7.8 10.5 10.9.5.5 1.6-.3 3.1-2.1-2.7-2.1-4.3-3.2-8.3-5.9-1.6-1-3.4-2-5.3-2.9z"/>
  <path d="M683.2 699c-1 .6-1.3 2.1-1.8 3.1L680 706a125 125 0 0 0-5.4 25.7c-.9 9-.8 19.5.9 28.5.6 2.9 1.6 6 2 8.7 7.4.2 27.5-11.3 33.6-15.5 5.4-3.8 15.6-12.2 19.5-17.3 1.8-2.3 3.9-4.3 5.4-6.8-5.7.1-9.4 4.6-15.9 9a98.3 98.3 0 0 1-26.2 12c-5.1 1.6-6.3 1.8-7.8-3.3a92.1 92.1 0 0 1-2.2-37.8c.9-3.6 1-6.8-.7-10.2zM850 471.3l-.5-.1a104 104 0 0 0-17.3 6.2c-6 2.8-10.6 5.9-15.4 9l-10.2 7.9c-3.1 3.2-13.7 12.6-14.9 16.4 9.3-1.6 9.6-6.2 20.5-11.9 7.8-4 13.8-7.1 22.9-9.6 5.3-1.4 5.6 0 7.2 7.9 2.1 10 2.8 19.7 1.7 30-.5 4.8-2.1 9.4.4 13.9l1-1.5a131 131 0 0 0 7.7-31.1c1-8.6.1-30.1-3.1-37.1zm6.6 78.7c-1.3.4-8.3 3.4-9.1 4.2 1 6.5.6 10.7.7 17.2 1.7 1 3.5 1.6 6.2 3.3 13 8.4 5.6 6.9 16.6 0-1.1-4.9-12-23-14.4-24.7zm-36 89.6c-.9.2-.2-.1-.8.2 1.1.7 4.8 4.4 6 5.7l4.5 6.1.5.5c.2 1.3.8 2.7 1.8 3.2 2.6-1.6-.4-1.7 5-1.7-.6-4.1-12.6-15.2-14.5-15.1l-2.5 1.1zm10.5-28.1c1.9 1.3 8.6 6.3 8.9 8.2.5 3.7-10.5 10-13.9 11.6-1.7.8-4.5 1.9-5.9 2.7 4.9-.1 11.7-3.3 15.7-5.2 5.5-2.7 8.6-5.1 12.3-8.7-4-4.1-7.5-6-12.5-8.7-3.7-2-11.6-5.2-16-5.4 4.1 2 7.8 3.1 11.4 5.5zm40.1-84.5a116 116 0 0 0-11.3 3.9c-1.8.7-3.6 1.3-5.3 2.1-1.6.7-2.2 1.7-2.7 4l-.1.6-.1.3-.2.3-.5 1c-.4.9-1 1.9-1.2 2.9v.1c-.9 1.8-2.1 4.8-2.5 6 3.6-.9 6.8-2.8 10.3-4a79.9 79.9 0 0 1 30.7-4.6c2 .2 4.6.7 6.6.5l.5-2.3v-.1c1-3.3 2.3-6.4 1.7-9.9l-.1-.2.3-4.9a101 101 0 0 0-26.1 4.3z"/>
  <path d="M839.4 522.6c1.3-8.3-.9-21-2.7-28.3-5.9 0-22.7 8.7-26.2 11.6a59 59 0 0 0 18-7c2.2-1.4 3.7-3 5.2-3.3 3.3-.6 3.1 2.6 2.8 4.8-.8 6.7.8 16.2 2.9 22.2z"/>
  <path d="M824.3 506.6c-5.6 2.7-18.6 5.9-24.7 7.5-5.8 1.5-11.4 2.8-16.9 4.7a58.5 58.5 0 0 0-14.4 7c1 2.2 1.9 1.5 3 2.8.7.8 1.1 2.4 2.5 3.6 3.9-1.3 7.5-3 11.8-4.2 11.2-3.1 23.6-4.9 33.6-10.9 1.1-.7 1.5-1.2 2.4-1.9 6.3-1.7 2.8 4.7 4.2 13.1 1.7 10.9 6.4 21.6 8.3 33.5a40.4 40.4 0 0 1-2.1 23.5c-4.6 9.9-8.7 10.6-12.4 15.4 5.3-.9.5 4.2 10.4-4.3 1.5-1.3 6.5-7.5 7.6-9.4 16.1-26.8-5.4-53.8-6.1-83.8-1.9.5-5.4 2.6-7.2 3.4zm38 41.6c.1 1.2.8 1.7 1.5 2.7a22 22 0 0 1 1.8 2.8c1.2 1.9 2.3 3.4 3.4 5.5l6 11.6c3-.9 10.3-10.9 10.4-11.5.6-2.6-6.4-11.8-7.5-14.5-4.3.6-12.2 1.7-15.6 3.4zM610.5 338.5c-1.8-1.1-3.7-2.6-5.4-3.4.7 1.8 7.8 8.7 9.6 10.5a66.7 66.7 0 0 0 42 19.6c1.4-.8 2.9-3 4.7-4.8a82 82 0 0 1 5.2-4.8c0-2.4-2.7-7.1-3.8-9-2.2-3.9-3.5-4.6-5.4-7.3-3.9.7-21.9 13.9-46.9-.8z"/>
  <path d="M639.8 327.9c-5.2-2.2-10.9-3.9-16.6-5.3-11.9-3-22.7-5.4-33.3-10 1.7 3.6 8.2 9.8 11.1 12.8 11.4 11.4 27 18.2 43.6 14 2.1-.5 7.4-2.4 8.7-3.5a47.3 47.3 0 0 0-13.5-8zM577 347.8a89.2 89.2 0 0 0-4.5 32.5l.3 1.4.1.3.1.2c4-2.1 9.1-7.4 11.7-11.3a47.5 47.5 0 0 0 5.6-37.9c-1-4.5-3.8-14.3-5.9-17.4-2.7 16.5-2.8 16.3-7.4 32.2z"/>
  <path d="M596.5 340.1c-.3 4.2.8 8.3-.6 16a42.3 42.3 0 0 1-14.1 25.1l-2.4 2.2c-1.4 1.1-3.7 3-5.4 3.5 1.2 6.7 6 13 9.4 16.8 1.2-.2 7.9-2.3 13-3.3 5.2-12.3 6.8-14.6 6.7-30-.1-6.4-3.7-26.2-6.6-30.3zM880 477.7l12.6 11c-.2-3.4-6.5-23-7.9-28.1-3.6-13.9-7-25.2-5.8-39.5-1.3.4-8.7 4.9-14.5 7.2a166 166 0 0 1-16.4 5.5c-4.1 1.2-33.6 8.4-34.5 9.2l11.7 3.8c21.7 8 37 16.7 54.8 30.9z"/>
  <path d="M791.8 458.6a166 166 0 0 1 39 11.9c2.1 1 2.2 1 4.2.2 3.6-1.4 13.9-5.6 17.9-5 2.7 3.7 3.8 12.5 4.6 18.1.4 3.1.8 2.2 5.5 5.8l3.1 2.5 23.4 22.6c.9 1 1.9 2.6 2.7 3.4l5.3-.2c0-4.7-1.1-17.5-3.3-20.3-1.5-2-4.2-4.3-6-6.1a26.7 26.7 0 0 0-3.2-2.8l-9.4-8.3a213 213 0 0 0-21.4-14.7 159.4 159.4 0 0 0-42-17.8c-2.3-.7-7.2-2.5-9.6-2-3.5.8-15.1 5.3-17 7.2.2 1.2 1.1 3 1.8 3.9 1.1 1.5 2.5 1.3 4.4 1.6zM776 679.7c-1-.8-.4-.6-1-1.8a58.5 58.5 0 0 1-5 15.3c-14.1 22.5-42.4 18.9-58.8 28.2-2.2 1.3-5.9 5-8.5 2.9-.7-1.3-.1-7.6-.3-9.9-.3-3.2-.9-6.3-1.7-9.3-1.4-5.8-3.2-11.3-4.8-17.1-2.4-9-4.3-19.1-1.8-28.6.9-3.3 2.3-5.3 3.4-8 2.3-3.9 7.4-9.5 10.6-11.5-1.2-1 .2.1-2-.7-.8-.3-.7-.5-1.6-.8a42.6 42.6 0 0 0-19.7 44.4c2.3 17.6 10.2 30.2 11.7 53.6 2.9-.5 8.8-3.7 12-4.9 4.2-1.6 9-2.8 13.4-3.9 9.1-2.3 18.2-4.3 26.7-7.6 4-1.6 8-3.6 11.1-5.8a38.3 38.3 0 0 0 14.9-19.4c1.2-3.3 3.9-10.6 2.9-14-.8-.9-1-.6-1.5-1.1zm-125.4 15.5c3.4 0 12.7-2 15.1-3.4-2.2-3.5-4.5-6.6-6.8-10.6-2-3.6-4-8.5-6.3-11.8a49.7 49.7 0 0 0-10.4 11.6c-.2 1.9 5.3 10.3 6.9 12.8.7 1 .5 1.4 1.5 1.4zm22.4 12c2.1-.8 2.2-1.9 2.7-4l.2-.4.4-1.8.3-1.1.4-.7 3.2-7.3c-2.5.4-7.2 2.9-10.2 3.8-3.6 1.2-7.4 2.2-11.1 3.1a70.8 70.8 0 0 1-19 1.5c-2.3-.1-4.4-.5-6.7-.6h-.8l-.5 2.6c-.2.3-.3.6-.3 1.1.2 1.6-.4 3.1-.6 4.7l-.2 3.6-.3.1-.5 5a94 94 0 0 0 26.4-3.8c7.3-1.9 10.2-3.2 16.6-5.8zm142.2-64.6c-4.3-3.3-3.3-2.8-9.5-3.2-4.1-.3-7.2-1.2-11.2-1.8.6 1.3 1.6 2.2 2.6 3.3l2.8 3.3c1.7 2 3.2 5.3 4.8 6.8 2.1 2.1 14 5.8 17.9 5.8 2.1 0 2.5.2 4.1-.5-.4-4.1-7.9-11-11.5-13.7zm-134.8 20.7c.6-6.5 1.8-4.7 2.4-7.9-1.1-1.4-3.5-2.8-4.9-3.9-2-1.5-2.9-2.5-4.6-4.2l-4.4-4.4c-5.5-5.5-16-17.7-24-20.1-.4-.3-.8-.6-1.3-.7-1-1.9-1-2.5.4-4.2 10.9-3.2 21.9-18.7 29-24.7 1.7-1.4 3.2-2.5 4.8-4.1 1.6-1.5 3.3-2.6 5.2-3.9-.2-2.4-.9-2.2-1.6-3.8-.4-1-.6-3.2-.9-4.5-6.6.9-22.3 17.5-25.9 21.2-3.7 3.8-7.7 7.4-11.7 11.7-1.1 1.2-1.9 1.6-3.1 2.6-1.2 1.2-2.1 1.8-3.3 2.7-1.5 1.1-6 3.8-7.1 5 .8 1.4 8 5.3 13 10.4l11.9 11.8c6 6.1 11.3 11.8 18.3 16.8 1.5 1 5.5 3.8 7.8 4.2zm-9.6 26.8c3-.5 7.2-2.6 9.2-3.8-1.1-11.2-.8-7-.7-16.4.1-2.1-2.2-1.7-7.5-5.3-2.3-1.6-4.7-3.6-7.1-4.9a36 36 0 0 0-7.9 5.7c.2 3.8 7.5 15.1 9.8 18.9 1.5 2.2 3 3.9 4.2 5.8z"/>
  <path d="m640.4 635.6-3.5-3.2a57.3 57.3 0 0 0-10-7.6c-1.5-.8-5.4-2.1-6.1-3.2-1.5-3.3 1.9-4.1 4-5 2.3-1 4.2-2.4 6.2-3.7 2.9-2 9-6.8 10.5-9.3a82.3 82.3 0 0 0-22.7 16.6 78.2 78.2 0 0 0 22.5 16.5c-.8-.8-.4-.6-.9-1.1zm96 146a157 157 0 0 1-35.7-10.3c-3-1.3-5.3-3.2-8.3-1.8-2.5 1.2-15 6.1-17.4 5-2.6-1.2-4.3-14.7-4.8-18.2-.4-2.6-2.8-3.7-5.5-5.8-8.3-6.2-11.1-9.4-18.4-16.3l-11.2-12.3-4.8.3c-.5 2.3 1 17.7 3.2 20.2l4.3 4.6 1.8 1.4a329 329 0 0 1 6.2 5.8l13.2 10.5c2.5 1.7 4.6 3.3 7.1 4.9l7.4 4.6a185.2 185.2 0 0 0 32.7 15.1 73.6 73.6 0 0 0 19 4.8c2.9-.7 14.8-5.7 17-7.1-1-5.5-3.7-5.1-5.8-5.4z"/>
  <path d="M691.5 789a196 196 0 0 1-48-30.1c-2.8-2.7-5.6-5.2-8.3-7.5 1.5 7.6 6.6 23.2 8.8 31.8 3.3 12.7 4.8 21.7 4.9 35.9 2.1-.7 9.2-5.2 14.5-7.3 5.4-2.1 10.7-3.8 16.4-5.5 11.5-3.3 23.4-5.7 34.7-8.9-2-1.6-8.8-3-11.7-4-3.8-1.3-7.5-2.8-11.3-4.4zm-74.8-417.1c-1.9-4-10.1-20.7-12.4-23.3 1.9 11.5 3.5 12.4 3.4 26.5 0 6.5-1.3 13.1-3.4 19.1-.7 1.9-1.6 3.7-2.2 5.6 3.4 0 6.8-.1 10.2.2 1.7.2 7.9 1.5 8.7 1.2 1.2-2.9 1.2-12.8.7-16.3a86.7 86.7 0 0 0-5-13zM800 682.6a41 41 0 0 0 .6-19.7c-1-4.1-3.7-13.4-6.3-15.6.2 4.6 1.2 5.1.2 11.9-1.3 9.7-2.9 11.6-14.3 6-6.1-3.1-3.7-2.1-8.3-5.3 1.1 4 8.9 12.3 11.2 14.1a48 48 0 0 0 16.9 8.6z"/>
  <path d="M803.8 682.2c-.5 2.2-.5 4.3-3 4.2-7.1-.2-19.2-9.4-20-9.7 5.8 6.9 17.1 15.4 25.6 16.6.2-2.6.8-5.2 1.1-7.9.6-7.7-.2-16.6-3.4-23.2-.1 4.2 2.1 8.5-.3 20zm-41.1 36c-5 2.7-3.8 3.3-12.4 6.4-2.4.9-2 1.2-1.7 4 1 8.3-.6 6.9 4.8 7.6 5 .6 18.6.3 23.3-.4 1.9-.3 1.3.3 2.1-4.3.4-2.3.4-3.8.4-6.2-9.4-2.4-13.6-8.7-16.5-7.1zm-8.6 46.1a96 96 0 0 1-4.9-10.7c-3.6-9-3.9-15.5-5.6-25.3-1.5 1.6-3.4 5-4.8 6.2l-.4.4-1.5 1.7-.5.9h-.1l-1.8 2.1c-1.6 2-.5 5.3.2 9.4 1.4 8.5 7.2 31 12.3 35.1.9-.4 1.6-.8 2.3-1.4.3 0 .5-.1.8-.3 1.5-1 2.8-2.3 4.1-3.5 1-1 2.2-1.7 3.3-2.6l.2-.2.5-.4.2-.3 2-2c-1-1.8-1.7-2.6-3.1-4.3a30.8 30.8 0 0 1-3.2-4.8zm-3.5-23.4c.6 3.4 3.4 13.5 5.2 15.2 3.7.7 12.3.5 16.1.1a56.7 56.7 0 0 0 5-15.4c-3.9 0-8.2.7-12.7.7-4.6 0-9-.5-13.6-.6zm-78.8-165.2c2.4-1.6 5.2-2.7 7.5-4.2.4-2.9-.2-6 0-8.8.6-9.3 2.9-8.1-3.1-10.7-5.3-2.3-5.1-3.8-10.3 5.3-1.9 3.3-8.6 13.8-9 17.8 2.2.9 6.2 4.7 7.9 5.3 2.5-1.3 4.6-3.1 7-4.7zm-126.4-95.3-.8-4.8a61 61 0 0 1-1-17.3c-2.4.6-5.6 2.5-11.1 3.8-20.2 5-35.9-1.7-40.1-1.6l11.7 6.4 12.3 6.1c5.6 2.8 21.8 9.1 29 7.4zm107.9-110.5-.2-.3c-4.4-1.1-6.8-.5-13.5-2.9a73 73 0 0 1-11.6-5.4 91.1 91.1 0 0 1-14.7-10.8c-.9-.9-1.4-1.1-2.3-1.9-.9-.7-1.3-1.4-2.2-2 .5 1.8 5.8 9.9 7.1 12 2.6 4.3 12.3 19 16.7 21.8 2.5 1.6 10.2 6 13.2 6.6.7-3 1.9-6.3 3.3-9l4.1-7.5.1-.6zM531.8 507.1c-6.1 1.9-16.6 7-21.2 11.7-6.2 6.3-9.3 8.6-14.2 18.7a56.7 56.7 0 0 0 10.1 64.5l.6.5.6-.3c.3 0 .6-.1.9-.4l4-3.3c1-1 2.1-1.8 3-2.9h.1l2.2-2.5c-1-2.1-4.9-4.2-8.3-12.1a43.7 43.7 0 0 1 7.8-48.7c1-1 1.7-1.3 2.7-2.3 6.9-6.4 18.6-11 28.4-10.6l8.6.8c0-5.5 2.9-9.4 4.1-13.8a60.8 60.8 0 0 0-29.4.7zM490.2 465c.8 1 1.4 1.5 2.2 2.3 3.5 3.5 10.3 12.6 12.8 16.9 4.3 7.7 7.5 16 8.4 26 1.5-.6 2.9-1.7 4.5-2.6 7-3.8 8.9-3.7 16-6.2-1.3-2.3-2.1-4-3.6-6-7.2-9.9-22.9-20.4-33.6-26.5-2-1.2-4.6-3.1-6.7-3.9zm235.4-119.9c3.2 1.1 2.5 1.9 8-2.3 2.4-1.9 4.5-3.8 6.5-5.9l2.9-3.4a90.3 90.3 0 0 0 16.1-40c-1.1 1.7-2.1 4.1-3.1 5.9a45.2 45.2 0 0 1-40.3 24.1 41 41 0 0 0-.1 19.1c1.4.7 7.7 1.7 10 2.5zM449.3 622.5l12.9 4.5c6.4 2.7 14 6.7 19.2 11.2l2.5 2.1c1.6 1.5 3 2.8 4.3 4.5l4 4.9.2-.2.2-.2 2.1-3.6a41 41 0 0 1 2.6-4.1l5.8-7.2c-1.1-1.7-6.4-4.7-8.7-6.1-4.5-2.7-4.9-3.1-10.9-4a225 225 0 0 0-34.2-1.8z"/>
  <path d="m574.3 408.4 1.7-1.1c.5-.2.7-.6.8-1l1.8-.5c-4.6-5-9.2-13.7-10.6-22.8-3.6-23.8 11.6-49.6 12.1-70.5 0-2.3-.6-6.3-.4-7.8.3-3.2 3.2-2 4.8-.7 11.9 9.4 34.2 11.7 50.2 17.1a66.7 66.7 0 0 1 22.3 11.3c7.2 6.5 9.2 9.3 13.8 20l2.1-1.1.4-.1a8 8 0 0 0 1.9-1.3l.1-.1v.1l.8-.5 1.2-.8a54.9 54.9 0 0 0-15.4-27.6 71.2 71.2 0 0 0-27.4-15.4c-18.3-6.3-41.2-9.3-57.4-17.2-1.8-.9-5.9-3.5-7-3.8.9 34.4-23.3 68-13.5 100.4a56.6 56.6 0 0 0 15.5 24.5l2.2-1.1zm-50.8 72.8c.7 1.3 3.3 3.2 4.5 4.2 1.6 1.3 2.6 2.9 4.1 4.4a34 34 0 0 1 6.6 10.8c8.1-.9 9-.7 17-.2-.8-2.1-3.1-5.2-4.3-7.4-1.1-2-2.9-6.2-4.1-7.9-14 .7-14.5-2-23.8-3.9zm-30 50.8.1-.2 1-1.5c.4-.4.7-1 .8-1.6l.9-1.5-2.6-1.3C457 510.8 465.3 464.7 448 441c-.4-.6-1.4-1.7-1.5-2.4-1-4.4 5.2-2.3 8.8-2.3 26.8-.3 54.4-21.4 83.7-8.4 2.8 1.2 5.6 3.1 7.9 4.8.8.6 1.5 1.3 2.5 1.9l1-1.3.2-.2 1.1-2.6v-.1l.1-.2v-.1l1.4-1.9c-4.5-3.9-3.8-4.5-10.7-9.1-33.1-21.9-70.9 3.8-104.9 6.8-3.4.3-6.3.1-9.4.2 13.7 23.9 12.5 40.6 21.2 64.6a72.4 72.4 0 0 0 15.5 27.4c6.9 7 17.3 13.6 27.6 15.4l1-1.5z"/>
  <path d="M491.5 433.3c-5.3 1.5-10.1 3-15.4 4.4-2.8.7-5.3 1.4-8.1 1.9-2.9.6-5.7.7-8.6 1.3 12.2 5.2 24.6 9 38.7 6.9a41.3 41.3 0 0 0 23.1-12 36 36 0 0 0 4.9-6.7 78.5 78.5 0 0 0-34.6 4.2zM479 603.7a89 89 0 0 1-30.7 14c13.4-.5 20.8.3 36.1-2.2 6.3-1 9.2-3.2 14.5-6.7 1.6-1 3.2-1.7 3.9-3.4a49.3 49.3 0 0 1-10.7-15c-1.2 1.1-2.9 3.5-3.9 4.9a68 68 0 0 1-9.2 8.4zm269.6-301.5c6.7-8.8 11-22.2 12.4-35.5-.9.8-1.6 2.1-2.5 3.2l-2.8 3.2c-2 2.3-4 4.1-5.7 6.3l-12.2 11.9c-6.4 6.4-18.2 18.1-20.4 27.4 12.6-.1 24-7 31.2-16.5zM501.8 520.3l5-4.9c1.3-1 2.2-.9 2.2-3.3 0-12.6-7.6-27.1-14.9-35.7-3.9-4.6-5.1-6.3-9.8-10.7l-5.6-4.7c.9 1.8 2.6 3.9 3.7 5.9a48 48 0 0 1 6.7 22.9c0 12.1-3.1 15.3-6.1 23.6 2.3 2.6 11.3 9 16.5 9.6 1.3-1 1.3-1.7 2.3-2.7z"/>
  <path d="M459.6 454c2.5 7.1 5 18.2 6.9 25.7 1.8 7 7.8 26.2 13.3 29.9 5.7-13.9 6.8-23.9-.4-38.3a74.4 74.4 0 0 0-12.8-17c-1.2-1.1-2-1.6-3.2-2.8a39.5 39.5 0 0 0-6.9-5.3c.6 2.1 2.3 5.6 3.1 7.8zm71.5-23.6c-1.9 2.2-4.8 6.9-7.6 9.7l-4.8 4a47.4 47.4 0 0 1-34.8 8.4l.8.5c2.9 1.5 13.7 4.1 16.6 4.7a65 65 0 0 0 42.6-4.9c.9-.8.8-2.5 1.2-4.5.7-3.2 1.8-5.9 2.6-8.9-2.4-2.2-11.7-8.8-16.6-9zm232.8-15.1c-1.5 1.5-1.6 2.9-2.6 4.9-.9 1.8-2.2 2.9-2.8 4.8l5.3 3.9c.7.1 4.8-2.9 5.5-3.4-.2-2.1-1.7-3.4-2.7-5-1-1.7-1.6-3.8-2.7-5.2zm3.4-6.4c.3 4.4 4.5 10.4 6.3 13.4 1.9-.3 8.1-3.8 9.3-4.7a22.9 22.9 0 0 0-15.6-8.7zm-7.1-99.8-1 3.2a77.2 77.2 0 0 1-15.9 27.9c-2.9 2.9-3.5 3.7-6.9 6.2-1.1.9-1.8 1.1-2.6 2.1 2.6.8 7.5 4.3 9.4 5.8 3.1 2.3 6 4.8 8.2 7.3 2.1-1.4 4.5-7.6 5.5-10.8a173 173 0 0 0 4.6-45s-.1-.7-.9 1.6l-.4 1.7zm43.5 85.3c-3.1 5.7-4.4 10.5.2 15.1 2.4-.2 7-1.7 9.3-2.4l9.3-2.7c5.7-1.4 13.4-2.9 18.9-4.7-.8-11.8-26.4-25.8-37.7-5.3zm-96.4-15.1c6.8 0 12.2 3 15.7 6.6a24 24 0 0 1 8.1 14.6c1.4-.5 10-6.7 10.8-7.7a38 38 0 0 0-72.7 2.1c1.4 1 9.9 3.1 12.2 3.1 4.3-12.7 12.1-18.7 25.9-18.7z"/>
  <path d="M711.7 384.8a21.6 21.6 0 0 0-16.8 2.5 19.2 19.2 0 0 0-5.3 4.9 16.4 16.4 0 0 0-3.4 7.4l37.7 9.8c7.2-7.9-2.7-21.8-12.2-24.6zm33.2 32.7c1.7 1.2 6.9 4.2 9.2 4.8.5-1.1 1.1-1.7 1.9-2.9 1.9-3 3.6-6.9 4.5-10.5-5.3 0-14 5.4-15.6 8.6z"/>
  <path d="M784.9 398.3a43.8 43.8 0 0 0-21.1-5.6 41.5 41.5 0 0 0-34.6 18.5c1.8 1.5 3.4.9 5.7 1.7 4.7 1.8 3.4 4.6 6.9.3a30.6 30.6 0 0 1 22.1-9.7c7.8.1 13.8 2.8 19.5 7.2 2 1.6 2.9 3.5 4.6 4.6 2.8-.4 3.1-1.7 4.9-2.5 2.2-1 3.5.2 5.7-1.7-1-3.3-10.1-10.8-13.7-12.8zm13.9-24.4a37.5 37.5 0 0 0-7.9 8 27.1 27.1 0 0 0-5.5 11c3.8 2.1 5 2.7 8.3 5.4 1 .8 1.4 1.6 2.6 1.9a31 31 0 0 1 3-8.4c12-21.3 39-13 45.6 2.3.6 1.5.7 2.7 1.8 3.9 2.1-.1 10-2.1 11.5-3.1a38 38 0 0 0-59.4-21zm-7.2-60.5c5 2.8 12 5.3 18.7 5.4-.9-4.6-6.4-12-8.7-15-7.8-9.6-15.3-15.8-23.7-24.1-4-4-7.4-8.7-11.1-12.9 0 5.4 2.6 14.6 4.2 19.5a47.3 47.3 0 0 0 20.6 27.1zM755 365.6c1.2 2.1 3 4.2 4.6 6.8 1.4 2.3 2.5 5.1 3.9 7.4l1.2-1.6.9-1.9 2.1-3.9c1.5-2.7 3.3-4.7 4.8-7.1-2.5-5.5-4.3-5.2-7.1-16.3-.5-1.8-.7-4.8-1.5-6.3-.5 1-1.1 4.9-1.5 6.3l-1.9 6.2c-2.1 5.8-3.8 7.1-5.5 10.4zm20.5-4.3c1.1-.5 1.4-1.1 2.1-1.8l6.4-5.3c3.4-2.4 5.9-4 9.5-6-.8-.9-3.7-2.8-4.7-3.7a75.8 75.8 0 0 1-21.6-36.7l-.3-.8c-.6-1.3-.2-.5-.7-1.1 0 15.6.4 35.7 6.5 50.2.9 1.9 2.1 3.5 2.8 5.2z"/>
  <path d="M768.6 293.1c-.1 4.8 4.5 19 6.4 23.4 2.4 5.5 5.7 12 9.5 16.7 2.6 3.3 6 6.7 9.4 9.3 5.4 4.1 3.6 3.5 10.5 1.6 2.3-.6 3.8-.9 6.1-1.3 2-.3 1.8.3 2.3-5.5a43 43 0 0 0-1-13.9c-15.3-1.3-19.9-3.3-30.1-11.3a54.6 54.6 0 0 1-13.1-19zm17.2 66a64 64 0 0 0-11.5 12.2c-1.8 2.7-7.8 12.2-7.6 16.4 2.6.3 4.6.5 7.2 1l6.7 1.8c4.3-7.7 5.6-13.7 14.6-20.3a44.8 44.8 0 0 1 28.9-8.8 42 42 0 0 1 36.7 25.8c.6 1.3 1.9 5.6 2.5 6.4l2.4-.7h1l3.6-1.5c1.1-.4 2.4-1.2 3.6-1.4.3 0 .6-.2.8-.3l2.3-.6c-.8-9-11.2-23.2-18.7-29.2a57 57 0 0 0-72.5-.8zm-119.4 3.4a57.2 57.2 0 0 0-15.8 26.8l1.7.5.5.2c2.7.5 5.1 1.5 7.7 2.4v.1c1.3.4 2.4 1 4 1 2-8.5 7.4-16.4 13.8-22 6-5.3 15.6-9.2 25.8-9.9a42.7 42.7 0 0 1 39.7 22.6c1.2 2.3 1.6 4.2 2.7 6.4 3.3.2 6.5-2.8 14.3-2.8a57.4 57.4 0 0 0-91.1-28c-1.3.9-2.1 1.8-3.3 2.7zM806.1 547c-5.6-.3-22.1 11.3-25.5 16.7 1.9-1 3.8-3.2 9.4-6 3.2-1.6 7.8-3.9 11.7-4 2.5 1.7 2.7 7.3 3 10.7.6 8.4-.2 6.8-.5 12.5 4-5.8 4.7-22.6 1.9-29.9z"/>
  <path d="M772.3 579.7c1.8-.8 11.9-8.6 18.1-7.8 3.1.4 3.7 5.7 4.1 9 .6 5 .3 7-.3 11.9 2.9-2.1 5.8-12.4 6.4-15.3a47 47 0 0 0-.5-19.8c-9.3.9-25.1 14-27.8 22z"/>
  <path d="m766.4 601.4.2-.2.2-.2 1.2-1.7c1.8-2.9 2.5-4.3 4.9-6.7 1.7-1.7 6.2-5.6 9.7-5.9 3.8 1 .1 13.7-1.5 17-.9 1.8-1.8 2.7-2.4 4.6 8-2.5 12.5-13.6 12.6-22.2.1-4.5-.9-6.8-1.7-10.5-8.7.8-17.4 7.8-21.3 15.3-1.4 3-1.9 6.7-1.9 10.5zm4.7 38c1.7 2.9 6.3 8.5 9.6 9.5-.2-8.7-7.9-22-13.9-23.6a26.4 26.4 0 0 0 4.3 14.1zm-74.6-10.8c-12.6-8.8-10.9-9.1-.7-16.5 3.5-2.5 7.3-3.8 11-5.8-6.1-.2-25.4 9.3-27.5 14.1a59 59 0 0 0 12.6 8.6 50 50 0 0 0 15.9 5 47.1 47.1 0 0 1-11.3-5.4z"/>
  <path d="M683.6 610.2c3.8-2.5 9.4-5.3 14.1-6.8-.8-1.7-1.9-2.1-3.2-3.2-3.8-3.4-5.7-6.4-8.9-10.5-3.9.9-13.5 11.5-17 15.1-1.5 1.5-2.2 2.8-3.9 4.3l-4.3 3.8-4.4 3.7c-1.4 1.2-3.6 2.2-4.6 3.4 1.3 1.5 2.8 2.1 4.4 3.3l4.4 3.8c7.6 6.6 10.1 10.8 16.1 16.1l9.1 7.2c1.7-1.3 4.1-5.3 5.7-7.1 1.5-1.7 4.2-3.3 6.6-6.4-.8-.6-9.4-4.1-13.6-6.8-2.4-1.6-10.5-7-10.7-9.9-.3-2.7 8.1-8.6 10.2-10zm26.1-31.2c5.3.8 6.9 1.9 9.8 2.5-1.6-1.9-1.4 0-1.2-3.7-6.6-2.4-11.1-5.2-20.2-5.2.2 2.6.7.7 1.2 2.6.4 1.6-.5 1.6-.3 3.2 2.2.4 4.9-.3 10.7.6z"/>
  <path d="M725.2 632.9c-5-1.9-16.4-8.6-16.8-12.6-.3-3.3 8.6-9.1 11.4-10.6 1.7-.9 3.8-1.5 5.3-2.4-9.9-1.4-19.6 3-27.7 7.9a23 23 0 0 0-5.6 5.1l5.8 4.8a43 43 0 0 0 27.6 7.8zm25.4 34.7c1.8-2 3.8-4.7 5-7.5-2.7 1.2-3.3 3.9-13.7 7.3-3.8 1.2-6.1 2-7.2-1.2-2.6-7.7-2-11.5-1.2-19l-.2.2-1.5 1.9c-2.7 4.8-5.7 15-5.7 20 0 5.6.6 7.7 1.4 13.3 4.8 0 14.2-6.3 16.7-8.5 1.3-1.2 2.2-1.7 3.4-3 1.3-1.3 1.9-2.3 3-3.5zm-17.1-74.8c-.7-7.6-1.3-14.9 2.4-20.9 4.5-.7 11.6 2.8 15.4 5.1 2.6 1.5 2.8 2.4 4.1 2.9a45.2 45.2 0 0 0-11.2-13.9c-2.4-2.1-12.2-8.3-16.8-8.3l-1.1 10.7c0 5.9.1 9.4 2.4 15.4l4.8 9z"/>
  <path d="M721.4 693.2c7.5-.5 22.5-11.9 24.7-16-3.2 1.8-5.6 3.9-9.5 5.8-2.2 1.1-9 4.4-11.4 2.9-.1-.1-.1-.3-.2-.2l-.2-.2-.1-.2-.5-1.7c-2.7-11.8-1-10.2-.8-20.8-3.8 6.5-4.2 22.6-2 30.4zm45-141.9-1.1-2.1-1.4-1.8c-3 2-6.6 13.7-6.6 18.4 0 6.5 3.5 8.9 5.6 16.6l.6 1.6.5.7c.9-2.6 2.2-6.6 3.3-9.1 3.3-7.4 4.9-7.5.9-19.7l-1.8-4.6zm30.4 68.7c-2.1-2.7-10.5-3.3-13.5-3.3-6.8 0-8.5.7-13.4 3.3 4.3 5.1 21.8 4 26.9 0zm-16.2-28.7c-1.9.8-3.9 2.5-5 3.6-3.5 3.4-8.8 12.6-8.8 17.3l.1 2.7c6.1-3 13.7-13.6 13.7-23.6zm-55.3-37.5c3.8-.3 8.7 2 11.7 3.5 4.3 2.1 8.5 5.5 9.5 5.9-1.8-5-19.5-15.9-25.1-16.4-1.9 9.4-2.2 23.8 2.3 31.4-.3-5.6-1-4.5-.9-12.7.1-4.3 1-8.1 2.5-11.7zm78.4-276.6a57.7 57.7 0 0 0-3.5-3.5c-10.6-10.6-23.7-21.7-32.1-34.2a70 70 0 0 0-8-.8c-14.9 22.1-36.6 34.6-50 55.5a56 56 0 0 0-9.7 29c0 8.8.6 10.3 2.6 18.8l2.7-.1h2.4v.1l2.6.2-.9-9.4c0-20.7 15.4-35.2 24.4-44.2l8.7-8.3 4.2-4.2a66 66 0 0 0 14.5-20.2c1.4-3 3.8-2.1 4.9.8a71.3 71.3 0 0 0 14.5 19.8l4.2 4.2c1.6 1.6 3 2.6 4.6 4.2 8.4 8.4 17.6 16.7 23.4 28.3a46.6 46.6 0 0 1 3.9 28.8l2.6.1h2.5l2.5.1c1.8-7.6 2.6-10.2 2.6-18.4 0-17.9-11.1-32.7-20.5-43-1.8-1-3.6-2-5.6-2.9.8-.5 1.6-.6 2.5-.7zm4.2-2.4 1.5 1.8c4.6-.4 9.4-.5 14.6-.2 9.2.3 19.5 2.5 31.5 2.5-8.9-13.1-40.4-25.6-55.1-30.4-8-2.9-16.5-5.9-25.7-7.9 3 4 6.3 7.6 9.5 10.8l23.7 23.4z"/>
  <path d="M832 321.5c.3 3.5 0 7.6-.5 10.9-.4 3.1-1.8 7.5-1.9 10.1a72 72 0 0 1 16.3 4.2 63 63 0 0 1 10.5-22.4 142.2 142.2 0 0 0-37.6-36.7c3 3.9 6.3 9.5 8.6 14.7 2.7 5.9 4.1 12 4.6 19.2zM486.1 554.4c.7-2.2 1.2-6 1.8-8.4.7-2.6 2.2-5.9 2.6-8.2-8.6-1.1-19-7.6-25.3-12.6a52.5 52.5 0 0 1-8.9-9.8 81.8 81.8 0 0 1-7-12.1c-10.4-21.5-12.7-58.9-26.9-77.2-2.5-3.2-1.7-5.2 1.7-4.9 13.2 1 21-.5 33-3.6 15.2-4 29.8-9.3 45.3-11.2 2.9-.4 5.9-.5 8.8-.7 2.7-.2 6.8.6 9.1.2l.8.3c2.5.7 5 .7 10.2 2.3a63.1 63.1 0 0 1 24.7 15.8c4.9-5.7 5.9-6.5 10.9-11l1-1c-.8-1.5-2.1-2.4-3.3-3.6l-1.5-1.7-1.9-1.9-.1-.3-.2-.3-.4-.6-1.1-1.4c-12.9-17.8-11.6-38.5-6.6-59.1 4-16.4 12.4-38.8 12.4-55.3 0-9-2.3-10 2.5-11.1 2 2.5 10 6.8 14.1 8.6 5.5 2.4 11.1 4.2 17.2 5.8 12.2 3.3 24.4 5.9 36.3 9.7 20 6.3 36.1 17.7 43.4 36.9.8 2 2.2 7.3 3 8.7a63.1 63.1 0 0 1 16.2-4.2c-.2-4.6-2.8-8.6-2.5-20.1a60.1 60.1 0 0 1 12.1-33.2c1.5-2.2 3.4-4.4 4.9-6.4 1.9-2.4 4.8-4.9 5.2-6.3.8-.4.4-.1 1.2-.8l6.8-6.9.4-.6c1.3-.7 8.8-8.2 10.5-9.8 5.9-5.9 12.8-12.5 18.1-19.9l-4.8.1c-23.1 1.4-38.4 6.7-38.4 7.5 3.6-17.8 13.1-30.6 28.7-36.8-25.1-11.7-66.3 4.5-84.4 22.8-6.4-10.3-12.5-10.3-13.4-29.5 0-2.5.8-8.6-2.5-10.3-9.2-.6-20.3 5-28.7 9.5a175.1 175.1 0 0 0-35.9 29.2c-7-3.3 14.5-27.6 15.6-33.4-27 7.5-54 14.5-77.4 30.6a73.8 73.8 0 0 0-26.2 34 358.2 358.2 0 0 0-49.3 17.8c-19.8 10.9-43.2-8.6-55.1-20-9.2-8.1-8.4-6.7-8.4 1.4 0 8.4 8.4 38.4 10.9 48.5 3.9 12.8-10.9 13.1-16.4 28.1a38 38 0 0 0-8.4-1.9c-18.4-3.1-31.5 4.7-39.3 1.9-8.4-2.8-16.2-15.9-32.9-19.5-17-3.3-30.4 5.3-38.4 3.6-7.8-1.4-18.7-15.6-32.3-17.5-13.6-1.9-23.4 3.6-32.3 1.9-9.2-1.4-16.2-13.6-26.2-14.5-10.6-.8-21.7 3.9-27.6 3.3-5.6-.8-11.4-11.7-18.9-11.1-7.2 0-13.1 1.9-18.4.6-5.6-1.4-15-7.8-21.7-7.8-6.4-.3-27.6-1.1-27.6 0 0 1.9 14.8 2.5 18.4 4.2 3.3 1.7 10.6 6.7 15 7.5 4.2.6 10.3 0 12.8 1.4 3.1 1.1 12 15 26.7 16.4 15 1.7 17.5-.3 22.8 1.9 5.3 3.1 8.6 15 22 17.8 13.6 3.1 28.7-1.7 37 1.1 8.9 2.8 15.9 24.2 36.2 27.6 19.8 2.8 28.7-3.9 35.4-1.7 7.8 1.9 21.7 23.4 42.6 27.3 13.9 2.5 34-3.9 42.1 2 4.5 15.3-3.6 32.9 4.7 57.6 35.4 103.1 11.7 31.8 30.4 4.2 1.4 3.1 4.2 3.9 5.6 19.8 1.1 15.6 19.5 59.3 21.7 70.5 2.3 11.5 6.1 22.2 10 32.7a60.9 60.9 0 0 1 57.8-12.9zm392-176.4c1.4 3.1 2.4 5.8 3.5 9.1 3.1-.6 10.6-4.9 13-6.5l-.7-.6a52.7 52.7 0 0 1-11.3-11.8 59 59 0 0 1-8.9 1.5c1.2 2.7 3.1 5.2 4.4 8.3zM691 730.4l-1.7-10c-.3-1.2-.4-2.3-1.2-3.2-.3 5.7.4 24.8 3.2 28.6 4.8-.4 24-9.1 25.8-11.8-5.8 1.6-14 4.4-19 7.8-1.6 1.1-5.4 4.8-6.8 1.3-.7-1.6.2-8.1-.3-12.7zm161.4-380.5.7.4.7.5.8.5 2.2 1.4c2.8-5.7 3.9-9.8 8.6-15l-.9-1.6-5.1-7.5a54 54 0 0 0-9.1 20.4l2.1.9zm10.9 7.9 2.5 2.5c1.8 1.7 3 2.9 4.5 5 3.2.1 6.4-.3 9.5-1-4.6-7.2-8.2-15-12-22.1a44.5 44.5 0 0 0-7 13.5c1 1.1 1.5 1.2 2.5 2.1z"/>
  <path d="M594.9 445.3c-9.8 6.9-12.4 18.2-6.3 28 1.1 1.7 3.5 4 4.9 5.3 2.3 2.1 4.2 2.4 8 1.6.5-.8 2-7.8 2.4-9.3.8-3.2 1.9-6.2 2.7-9.3 1.6-5.7 4.2-13.1 5-18.9-7.5-1.1-11-1.4-16.7 2.6zM714 664.2l4.4-2c-.3-3.2 0-1.6 1-3.6-3.2.5-6 1.9-9.5 2.5-4.4.8-6.8.3-11 .4 0 1.3.7 2 .5 3-.1 1.1-.9 1.2-1.3 2.9a48 48 0 0 0 15.9-3.2zm35.5-159.4c-.5 1.8-.8 3.9-1 6.1-.3 2.9-.4 3.9 1.9 4.8 3.7 1.4 6.7 2.6 9.9 4.6 4 2.6 2.7 2.9 9.6-.8 1.7-.9 8.6-4.1 9.4-5.2.2-.8-.5-7.8-.9-8.8-.6-1.7-5.8-1.5-8.9-1.7a85 85 0 0 0-20 1zm80.2 67.8c-4.7 0-8.4.9-12.6 2.3l-5.6 1.9c-3 1-1.7 1.7-2.2 3.5-.4 1.3-.1-.2-.8 1.1 1.5 0 6.7-1.8 8.8-2.3 3.3-.7 7.6-.5 11.3-.5 0-1.7-.8-1.7-.3-3.3.5-1.3 1-.6 1.4-2.7zM945 511.7c-1.7-4.1-9.4-8.4-15.5-9.5l.5 10.3a36 36 0 0 0 15-.8zM594 761.6a20.3 20.3 0 0 0 .9 33.5c5.3 3.4 9.9 4 16.9 2.7l-5.3-18.5c-1.8-6.3-3.7-12.8-4.8-19.3-4.1-.8-4.9-.4-7.7 1.6zm162.4-122.1c2.5-3.8 4.8-8.2 4.3-14.1-3.2.9-7.4 6.3-9.2 9.2-3.3 5.2-3.3 7.6-4.4 14.2 3.4-.7 7.4-6.5 9.3-9.3zm68.4-94.2c-1-3.6-2-7-2.8-10.6-1-4.3-1.1-7.5-1.6-12.2l-10.1 4.2c-10.7 3.7-22.4 4.7-33.6 10.1.6 2.6 2.3 5.5 3.2 8.2.7 2.1 1.5 7.9 2.4 9.2 5.8-3.5 14.6-11.2 24.1-12.8 3.7-.6 4.1 1.4 4.8 4.4 3.3 15.3 0 21.9.3 25.5 6.4-1.7 10.8-3.5 18.3-3.6-.1-6.9-3.2-16-5-22.4zm-159 2.9a64.7 64.7 0 0 0-15.5-3.3 65 65 0 0 0-8.1 14.2c.2 1.9 9 11.1 10.6 11.8.7-1.9 2-3.9 3-5.9 2.1-4.1 3.8-7.4 6.4-11.2 1.3-1.9 2.7-3.5 3.6-5.6zm102.7-13.8c-12.8-17.3-39.1-18.5-59.9-25.7-3.7-1.3-8.7-4.3-12.2-5.1-2.2 32-19.3 53.8-8.8 78.5a43.8 43.8 0 0 0 9.6 13.7l4.5 3.6c1 1 1.5 1.8 3.2 2.2 2.2-1.1.3-1.1 3.5-.7-1.1-1.4-6.2-5-7.4-7.5l-.1.2a2 2 0 0 0-.4-.6l-.3-.2c-.6-1.2-1.4-2.2-2.1-3.3-.1-.5-.4-1-.8-1.4-.9-2.3-2.2-4.4-3-7.3a55.2 55.2 0 0 1 1.6-28.5c2-7.5 5.9-19.1 6.5-26.4.2-3-.4-8.5.3-10.4l2.8-.5c.2.2.4.4.8.4h.1c11.5 9.9 35.3 9.3 51.7 19.1a37 37 0 0 1 11.1 11.2l.3.4.5.6 2 4.3c.3.5.2.4.5.5.2 3.1 2.3 6 2.3 10.5l1.2-1.7c.6-.5 1-.5 1.6-1.1.5-4.5-1.5-9.9-3-13.9a37.8 37.8 0 0 0-6.1-10.9zm-4.6 158.3c3.3-2.5 6-13.5 6.5-18.7.4-3.7-1.7-6.3-3.1-9.3-1.3-2.9-2.3-6.4-3.5-9.3-.8 1.2-2.4 7-3.3 9-1.5 3.3-3.5 5.2-3.2 9.3.4 5.1 3 16.7 6.6 19zm25.7-28.2c2-7.9 2.8-12 0-20.1-1.7-5-5.7-10.5-10.7-12.6.2 1.7 2.9 5.1 4.3 10.2.6 2.2.8 4.2.8 6.6 0 2.4.6 5.2-2.2 4.8-2.4-.4-7.6-4.7-8.9-6-3.6-3.6-5-7.3-6.5-8.7-.8 14.6 14 25.5 23.2 25.8z"/>
  <path d="M698.7 498.7c5.4 3.5 12.2 5.1 18 7.2a76.8 76.8 0 0 0-25.7-11.6c-2 8.7-4 18.5-2.7 28.4 1.9-2.7 2.4-9.9 2.8-13.8.3-2.8.4-5 0-7.9-1.1-9.9 5.8-3.5 7.6-2.3zm101.4 131.1c4.6-1.4 14.5-7 14.8-9.5.3-2.3-12.7-12.4-24.8-10.8-2.5.3-7.2 2-8.4 3.7 4.3.2 8.2.3 11.9 1.5 2.8.9 8.3 2.8 8.4 5.3.1 3-5.3 4.4-8.1 5.3a37.4 37.4 0 0 1-12.3 1.5c.8 1.7 5.5 3.3 8.1 3.7 3.7.7 7 .3 10.4-.7z"/>
  <path d="M823 628.9a61 61 0 0 0 6.8-3.8c1.8-1.2 5-3.6 6-4.9a45.3 45.3 0 0 0-33.4-13.1c2.7 1.5 16.7 8.2 16.7 13 0 2.1-5.4 6.4-7 7.6-2.7 2.1-6.3 4-9.7 5.3 7.5.6 14.3-1.1 20.6-4.1zm-87-118.1c-1.6-4-11.1-12.8-14.6-16.1a76.7 76.7 0 0 0-10.3-8.1 160 160 0 0 0-15.4-9 71.3 71.3 0 0 0-17.9-6.4 108.6 108.6 0 0 0 3.5 65.8l.7 1.8.8 1.8.2.2c2.9-4.8 1.3-8 .7-13.3a97.4 97.4 0 0 1 3.3-36.7c1.2-2.9 2.6-2.3 5.3-1.6a96 96 0 0 1 32.9 16c3.9 3 4.5 4.7 10.8 5.6zm-96.6-25.9a181.7 181.7 0 0 1 74.8-41.6c-1.3-1.4-6.5-2.3-8.3-2.7-15.4-3.7-36.2-8.5-49.9-15.5-2.2-1.1-5-3-7.1-3.9-1 15.9-.2 19.3-4.8 35.5-1.6 5.7-8.3 27.8-8.8 31.9 1.6-.8 2.3-2.1 4.1-3.7zm40.9 63.3c-.6-1.9-1.5-3.9-2.3-5.7-.1-1-.3-1.9-.7-2.9-.4-1.1-.8-2.3-1.7-3.1-1.2-3.3.7-2.2-7.6-5.6a107 107 0 0 0-37.8-7.8c.5 2.9 0 4.1.1 4.6-.1.4 0 .8.3 1.3.5.8.4 2 .6 2.9l.8 4.4.1.3h-.1l.7 3.8c2 .1 4.4-.4 6.3-.5 2.4-.2 4.6-.2 7.1-.2 17 0 30.6 8.2 34.2 8.5z"/>
  <path d="m639.7 513.2 14.2-14.5 9.4-7.9c1-.7 6.1-4.3 6.5-5.2.4-.9 2.2-16.5 4.3-19.1 2.2-2.7 15.1 2.8 17.6 3.8 4.1 1.7 4.4.6 8.4-1.2a162 162 0 0 1 36-10.4l2.4-.4c1.5-.3 1.1-.1 1.8-1.1.4-.6 1.8-3.2 2-4a76.2 76.2 0 0 0-18.4-7.1c-6.2 0-25.7 7.6-31.4 10.1-15.8 7-34.9 18-46.9 30.6l-8.2 7.4c-1.2 1.2-4.2 3.8-4.8 5.4a95 95 0 0 0-2.5 18.5c6 .3 4.9 1.1 9.6-4.9zm95.9-11.3c.1.2.3.5.6.6l.1.1.2.1 1 1.4 1.3 1.2h-.1c.7 1.3 3.6 5.3 4.6 6.3.8-1.1 1.8-10.7 2.3-12.9 1.7-8.4 4.3-15 8.3-22.5 1.5-2.7 5.8-8.4 6.2-9.5l-2.5-2.8-.2.1a12 12 0 0 0-2.2-2.3l-4.4-3.2c-1.1-.8-2.2-2-3.9-2.4-5.5 5.5-13.1 32.8-13.1 41 0 2.8.6 3.5 1.8 4.8zm15.1-2.6c4.3 0 8.8-.6 13.2-.6 4.4 0 8.9.6 13.1.6a36 36 0 0 0-2.1-7.8c-.9-2.3-2.2-5.4-2.8-7.5-2.5-.2-15.7-1.3-16.9.7-1 1.8-4.2 11.8-4.5 14.6zm76 84c-7.8 0-14.7 1.5-20.8 4.8-1.9 1.1-4.4 4.9-6 7.1l-2.6 3.7c-.9 1.2-2.5 2.2-3.1 3.6 3.4-.3 7.1-1.5 10.8-1.9 6.2-.7 5.5.5 10-3 3.2-2.4 11.6-10 11.7-14.3zM712.6 620c.6 1.6 4.4 4.6 6.2 5.7 2.3 1.5 5.3 3 8.1 4 5.4 1.7 16.9 1.4 19.1-2.8-5-.1-7.9-.1-12.3-1.5-12.4-3.9-8.9-8.3.3-10.7 4.1-1.1 7.8-.9 12-1.5-8.3-8.2-27.6-1.9-33.4 6.8zm40.9-37a30 30 0 0 0-15.5-7.3c-.7 2.2-1.6 4.7-1.6 7.2v3.6c0 9.4 5.8 19.8 12.6 21.9-.6-2.2-2.7-3.6-4.4-10.1-.8-3.1-2.4-9.9.5-11.6 3.3-.8 11.5 7.1 14.3 12 .7 1.1.6 1.4 1.7 2.4a23 23 0 0 0-7.6-18.1zm7.6 56.1c-3.1 2.2-.8 4.7-10.4 11.6-.9.7-1.6 1.3-2.7 1.9-9 5-2.5-14.3-1-17.3.6-1.1 1.6-2.3 1.9-3.5-4.6 1.3-9.2 7.5-10.9 12.6-3 9.2-1.3 11.6-.1 20.2 5.6-.6 12.1-4.6 15.2-7.3 4.1-3.7 8.2-9.5 8.1-16.8l-.1-1.4z"/>
  <path d="M730.6 620c5.7 4.9 20.6 4.1 27 .4-3.1-5.8-22.4-4-27-.4zm16.6-28.6a30.7 30.7 0 0 0 8.2 19.5c.3.3 4 4.2 5.5 3.5 1.6-6.2-7.9-21.4-13.7-23zm-39.8-68.9c-.5 1.9-.4 4.1-.7 6.1-1.3 11-4.4 17-6.8 27.1-1.1 4.5-1.3 7.4-1.9 12.1 9.9 0 12.6 2.6 18.3 3.6-.1-6-1.8-6.3-1-16.8.2-2.9.6-5.4 1.1-8.1.6-2.8.9-5.5 4.6-5 5.4.7 14.6 5.6 19.1 8.9l5.3 4.1c.9-3.2 1.4-6.1 2.5-9.2 1-2.9 2.7-5.8 3.3-8.5-10.2-5.2-27.2-7.3-38.8-12-1.7-.7-3.6-2-5-2.3zm48.7 17.2c-2.8 1.4-6.3 15.7-6 19.9 2 1.3 1.1.1 2.6 2.3l.2.2c.8-2.6.9-5.2 1.9-8.1.8-2.5 2.6-5.3 3-7.2 1.1-.9 2-2.5 2.3-4-3.7-.8-2.4-.5-4-3.1zm-50.4 165.8c1.4 6.2 1 9.4 1.6 12.2 1.6-.4 3.2-1.5 4.8-2.2 5-2.1 11.5-3.8 16.8-5.1a115 115 0 0 0 19.6-5.9c1.1-.4 1.8-.6 2.6-1.3-.9-3-2.2-5.1-3.3-8.1-1.1-3.2-1.4-6.2-2.3-9.3-2 .8-3.8 2.7-5.4 3.9-4.4 3.3-14 8.3-19.3 9-3.3.4-3.8-1.8-4.4-4.5a60.9 60.9 0 0 1-.1-25.5c-2.4.2-5.8 1.8-8.5 2.4-3.4.7-6.2.9-9.8 1.2-.1 7.9 5.6 24 7.7 33.2zm.2-56.7c-1.2 1.8-4.9 5.3-4.9 7.9 7.5 0 14.9-1.3 20.6-4.6 2.4-1.4 4.1-5.3 7.1-8.8l4.5-5.6c-3.7.4-7.2 1.5-11.1 1.9-6.3.6-5.6-.2-9.7 3.1-2.3 1.8-4.5 3.2-6.5 6.1zm2.8-54.3c1.3 1.1 2.5 1.8 3.7 3 3.5 3.2 4.2 2.7 9.8 3.2 4 .3 7.5 1.7 11.2 1.9l-5.7-6.9c-1.7-2.2-3.8-6.3-5.7-7.4a42.6 42.6 0 0 0-21-4.9c-.2 2.4 6.1 9.8 7.7 11.1zm47.4 105.9c1-1.1.4-1.4 1.4-2.2.8-.7 1.4-.4 2.5-1-.2-1.4-1.4-3-2.1-3.8-.8-3-2.8-4.3-5-15.4-1.6 2 .5.7-2.7 2.6-.4 3.2.9 7.9 1.8 10.8.4 1.7 2.1 8.4 4.1 9z"/>
</svg>