<?xml version="1.0" encoding="utf-8"?>
<svg version="1.1" id="Layer_1" xmlns="http://www.w3.org/2000/svg" x="0px" y="0px"
	 width="1000px" height="1000px" viewBox="0 0 1000 1000" style="enable-background:new 0 0 1000 1000;" xml:space="preserve">
	<path d="M613.4,621.8c0.2-1.4,0.3-2.8,0.5-4.2c-0.7,0.9-1.1,1.8-1.1,2.4C612.7,620.6,613,621.2,613.4,621.8z"/>
	<path d="M954,490.4c0.7,1.3,6.4,6,8.7,9.6c3.2-2.9,6.2-5.9,8.6-8.8c0.8-1.3,1.4-2.5,1.9-3.4c1.3-2.7,2.5-5.6,3.5-8.7
		c-2.8,1.3-9.7,2.4-17.1,3.2C957.9,485.4,955.8,487.7,954,490.4z"/>
	<path d="M614.2,554.2c3.9,7,6.1,9.1,10.5,14.2c7.1,8.3,10,9.3,17.6,16c2.2,1.9,2.5,1.5,5,1.1c0.2,0,0.3,0,0.5,0
		c0.2,0,0.3-0.1,0.5-0.1c0,0,0.1,0,0.1,0v0c0.6-0.2,1.1-0.4,1.7-0.6c0.9-0.3,1.9-0.2,2.8-0.2c0.3,0,0.6-0.1,0.9-0.2l5.8-0.5
		c-0.8-1.6-4.9-4.3-6.4-5.3c-5.3-4-13.3-12.8-16.8-18.2c-3.2-4.8-5.7-9.6-7.7-15.6c-8.8-25.9-0.8-48.1,6.1-73.5
		c4.5-16.5,9.2-30,9.2-48.2c-0.1-3.1-1-6.7-0.2-9.3c3.8-1.2,4.5,1.2,9.9,4.5c3.1,1.8,6.3,3.5,9.8,5c25.8,11.2,66.6,14.5,89.2,30.5
		c1.5,1.1,2.7,2,4.2,3.2c1.7,1.3,6.7,5.4,7.9,6.9c1.2,1.5,2.2,2.5,3.6,4.2c3.9,5,7.9,12.1,10.4,19.3c1.3,3.8,2.5,7.6,3.2,11.6
		c0.5,2.8,1.3,11.3,2.3,12.9c1.1-1.6,2.5-3.2,3.7-4.9c0.2-0.1,0.4-0.3,0.6-0.6c0.5-0.8,0.9-1.7,1.5-2.3c0.4-0.4,0.8-0.8,1.1-1.3
		c2.2-1.7,3-3.4,2.7-5.8c-0.6-7-3.1-15.7-5-22.3c-2.7-9.4-7.1-17.4-11.9-24.5c-0.7-1-1.2-1.8-1.8-2.5c-0.5-0.9-1-1.8-1.6-2.6
		c-0.6-0.8-1.3-1.5-2.1-2.1c-0.5-0.4-1.1-0.7-1.6-1.1c-0.3-0.5-0.6-0.9-1.1-1.4c-1.5-1.5-3.1-2.7-4.8-4.1
		c-9.7-7.9-16.7-12.1-28.7-16.9c-34.1-13.6-74.6-16.8-102.8-33.1c-1.8-1-3.9-2.7-6-3.4l0.4,6.2c0,35.3-19.6,74.1-23.5,111.3
		c-0.4,4-0.6,10.6-0.3,17.2c2.4,8.7,4.5,18.1,6.4,27.8C610.8,548.4,612.7,551.7,614.2,554.2z"/>
	<path d="M886.6,390.6c-5.2,2.5-11.1,4.5-16.7,6.3c-22.7,7.4-49.8,11.8-71.7,19.9c-7.6,2.8-26.7,11.1-30,15.9c1.2,1.1,3.1,3,4.6,3.8
		c0.6,0.5,1.1,1.1,1.7,1.6c0.8,0.7,1.6,1.2,2.4,2c0.9,0.9,1.7,2.3,2.3,3.7c0,0.1,0.1,0.3,0.3,0.6c0.3,0.7,0.7,1.5,1,2.1
		c0.3,0.5,0.6,0.8,1.1,0.9c0.3,0.5,0.6,0.9,1.2,1.5c16-8.2,34.2-12.2,52.9-16.8c12.3-3,27.6-7.6,38.4-14c2.1-1.2,3.5-2.5,5.2-3.6
		c6.7-4.6,4.6,2.7,4.5,6.7c-0.6,12.2,1.3,21,4.4,32.9c8.9,35.5,25.9,71,3.4,105.7c-4,6.2-11.6,13.5-17.1,18.6
		c-2.2,2.1-6.2,4-6.4,5.3l7.3,0.9c1.2,0.4,2.6,0.4,3.9,0.7c0,0,0,0,0,0c5.1,0.5,2.2,2.2,10.9-4.7c3.2-2.6,6.3-4.9,9.1-7.9
		c1.5-1.6,2.4-2.7,4-4.4c5.4-5.8,15.1-19.6,16.2-26.7c1-6.7,1.8-1.4,4-13.4c1.9-10.4,2.1-21.3,0.6-31.8c-0.7-5.1-1.8-10.6-3.1-16.3
		c-7.5-2.5-14.7-6.8-15.2-13.5c3.5-0.8,7.3-1.8,11.1-2.8c-3-11.1-6.3-22.3-9.2-32.8c-5.4-1.5-10.9-2.5-16.4-2.9
		c-3.9-5.6,6.8-10.7,12.6-12.7c-1.3-6-2.2-11.6-2.5-16.3c-0.3-4.1,0-9,0-13.2c-0.8-0.6-1.7-1.3-2.5-1.9c-1.5,0.9-2.9,1.9-4.6,2.8
		C891.9,388.2,889.2,389.3,886.6,390.6z"/>
	<path d="M644.1,596.5c1.8-0.8,5-1.7,6.6-2.6c1.6-0.9,3.8-3.1,4.5-4.6c-11,0.7-27.3,6.5-36,10.9c-1.6,0.8-3,1.7-4.5,2.6
		c-0.1,5-0.4,9.9-0.8,14.8C618.6,611.3,637.1,599.5,644.1,596.5z"/>
	<path d="M943.1,489.6c-3.3-1.6-11.8-4.6-16-4l1.6,6.6c-0.2,4.8-0.1,5.1,2.5,5.4c4.6,0.7,8.6,2.7,11.9,5.1c2.3,1.7,4.9,4.3,7.2,7.5
		c2.8-2.1,5.7-4.4,8.5-6.7c-1.3-1.9-2.7-3.6-4.2-5.1C951.5,495.2,948,491.9,943.1,489.6z"/>
	<path d="M619.1,639.9c6.7,3.5,27.4,11.3,36,10.8c-3.7-5.4-6.6-5.1-10.8-7c-4.2-1.9-8.4-4-12-6.4c-3.9-2.5-7.4-4.9-10.8-7.6
		c-2.1-1.8-6.5-5.2-8.1-7.9c-0.5,4.6-1.3,9.1-2.2,13.5C613.7,636.9,616.2,638.3,619.1,639.9z"/>
	<path d="M485.8,566.9l-0.2-2.6c0,0,0,0,0,0c0-0.1,0-0.2,0-0.3c-0.1-0.6,0-1.2,0-1.8c0-0.2-0.1-0.3-0.1-0.5c0,0,0.1,0,0.1,0.1
		l0.2-2.5c-7.1-1.6-11.2-2.7-19.1-2.6c-13.5,0.2-26.4,7-36.4,15.3c1.9,5,3.7,9.9,5.3,14.9c0.1-0.1,0.1-0.1,0.2-0.2
		C446.4,576,462.4,562.6,485.8,566.9z"/>
	<path d="M955.2,526.7v1.7c0,4-1.5,6.7-2,9.7c4-2.7,8.1-5.3,12.3-7.7C962,529.2,958.6,528,955.2,526.7z"/>
	<path d="M943.7,484.4c2.1,0.9,4.1,2.4,5.9,3c1.4-1.3,2.6-2.9,3.7-4.6c-4.7,0.3-9.3,0.5-13,0.6C941.5,483.7,942.7,484,943.7,484.4z"
		/>
	<path d="M922.8,436.9c-3.1-1.5-6.3-2.8-9.6-4c0.6,2.1,1.1,4,1.4,4.4C915.6,437.4,918.8,436.8,922.8,436.9z"/>
	<path d="M515.9,645c-0.1-0.1-0.1-0.2-0.2-0.3c-1-1.2-2.4-2-3.6-2.9c-1-0.8-1.8-1.6-2.9-2.3c0,0,0,0,0-0.1l-1.9-1.7
		c-1.9,0.8-7.7,9.1-9.3,12c-1.2,2.1-2.2,4.2-3.1,6.4c3.1,0.4,6.1,0.9,9.3,1.8c1.9,0.5,3.8,0.6,5.8,0.4c3.7-7.1,7.2-9.4,7.9-11.6
		C517,646.1,516.9,645.7,515.9,645z"/>
	<path d="M907.3,406.3l0.3,2.2c-0.1,0.4-0.1,0.9,0.2,1.4c0.5,0.7,0.3,2,0.4,2.8c0,0.6,0.1,1.1,0.2,1.7c11.2-2.1,21.1-0.9,31.5-0.9
		c-3.9-3-7.6-5.8-11.4-8.4C921.5,404.1,914.4,404.3,907.3,406.3z"/>
	<path d="M517.1,656.5c2.4-1.1,4.5-2.6,6.3-4.4c-0.5-0.4-1-0.8-1.5-1.1C520.6,651.8,518.8,653.9,517.1,656.5z"/>
	<path d="M457.2,592.5c2.6-4.5,5.5-12.5,5.4-18.9c-7.3,1.7-18,11.1-25.4,18.3c1.6,5.2,2.9,10.6,3.8,16
		C447.8,603.9,453.6,598.8,457.2,592.5z"/>
	<path d="M906.5,401.3c3-0.3,5.5-1.2,8.8-1.4c1.8-0.1,3.6-0.2,5.4-0.2c-5.2-3.5-10.3-6.9-15.1-10.4
		C905.6,393.5,906.1,398.9,906.5,401.3z"/>
	<path d="M479.3,597.6c2.5-2.4,5-4.7,7.2-7.6c4.2-5.6,3.3-3.4,1.4-10.3c-0.6-2.1-1-4-1.3-6.1c-0.3-2.1-0.5-2.1-5.3-2.5
		c-6.1-0.6-8.7,0.3-14,0.8c-1.4,16.8-6.1,27.3-18.5,36.7c-1.6,1.2-4.4,3-7.1,4.5c0.1,0.6,0.1,1.1,0.2,1.7c8.8-1.7,21.9-7,28.4-10.8
		C473.3,602.2,477.3,599.5,479.3,597.6z"/>
	<path d="M540.2,543.6c-15.3,7.7-15.5,27.1-6.3,33.4c1.9-1.2,2.7-2.9,4.2-4.3c1.5-1.5,2.7-2.8,4.2-4.3c2.5-2.5,8.4-8.5,12.8-12.8
		c0-3.9,0.1-8,0.3-12.2C551.3,541.7,545.3,541,540.2,543.6z"/>
	<path d="M556.1,525.3c-9.2-1-16.2-1.8-25.6,3.6c-18.9,10.9-26.1,32.5-15.7,51.8c1.4,2.6,5,8,7,8.7c1.6-1.1,7.5-6.8,8.2-8.6
		c-9-9.2-9.6-21-2.9-31.9c2.7-4.4,6.4-7.9,11.8-10.2c8-3.3,12.8-1.3,16.8-0.4c0.2-3.1,0.4-6.2,0.7-9.2
		C556.3,527.7,556.3,526.4,556.1,525.3z"/>
	<path d="M955.5,463.8c-3.2-4.4-6.9-8.4-10.9-12.1c1.3,3,2.1,5.9,2.2,8.9C949.8,461.2,952.7,462.2,955.5,463.8z"/>
	<path d="M563.1,466.6c-1.2-14.3,4.8-29,14.8-36.8c9.9-7.7,19.1-11.2,32.4-10c2.5,0.2,4.9,1.1,7.3,1.2l0.3-1.9
		c0.1-0.1,0.1-0.2,0.2-0.4c0.5-1.7,0.6-3.5,1.1-5.3c0.5-1.7,1.1-3.3,1-5c0-0.1,0-0.1,0-0.2c0.1-0.5,0.2-1,0.2-1.8
		c-15.5-3.1-25.8-2.3-39.2,3.8c-21.8,10.1-36.1,35.2-32.5,59.4c1,6.4,2.9,12.7,5.5,17.9c2,4,6.7,11.8,9.5,13.7
		c0.7-0.3,1.9-1.8,3.3-3.6c1.9-3.4,3.4-6.7,4.5-9.9C568.6,483.8,564,476.9,563.1,466.6z"/>
	<path d="M916.2,442.4c0.9,5.1,3.3,13.1,5.3,20.2c6.8-1.7,13.7-2.9,20.4-2.6c-0.1-1.1-0.2-2.1-0.4-3.1
		C938.9,447.2,927.8,439.1,916.2,442.4z"/>
	<path d="M939.9,517.5c-3.4,0.2-6.7,0-10,0.2l-0.7,6.8c1.1,0.8,4.9,2.7,6.3,2.9c1.2-1.5,1.8-3.4,2.8-5.1c0.4-0.7,0.9-1.3,1.3-2
		c-0.8-0.4-1.7-0.7-2.5-1.1C937.9,518.7,938.9,518.1,939.9,517.5z"/>
	<path d="M599,491.2c0.1-1.2,0.6-1.6,0.9-2.6c0.3-1,0.4-2.1,0.5-3.2c-2.6,0.1-5.1,0.5-7.5,1.1c1.3,3.4,2.6,7,4,10.9
		C600.4,496.6,598.7,494.1,599,491.2z"/>
	<path d="M646,853c-3.7,1.2-9.4,4.6-12.7,6.6c-4.9,2.9-12.1,13.7-17.1,21.7c4-0.7,8-1.5,12-2.6c7.1-4.1,14.6-6.7,23.9-8
		c0.5-0.2,1.1-0.5,1.6-0.7c-0.6-1.6-3.4-6.1-4.1-7.8C648.2,859.1,647.3,855.8,646,853z"/>
	<path d="M616.3,814.6l-3-12.1c-7.7,0.8-11.8,1.6-18.8-1.9c-3.4-1.7-6.4-4.3-8.7-7.4c0.5,6,1.1,12,1.8,17.9
		c5.6,3.1,12.2,4.9,20.2,4.9C610.9,816.1,613.5,815.3,616.3,814.6z"/>
	<path d="M691.3,849.3c7.1-4.8,13.9-9.9,20.6-15.4c-9.4,2.6-21.5,5.9-25.6,6.5C686.7,843.6,688.6,846.7,691.3,849.3z"/>
	<path d="M620.5,833.7l-0.4-2.7c0,0,0,0,0,0c-0.2-1.6-0.7-3.1-0.8-4.7c-0.1-1.2-0.2-2.8-0.9-3.9l-0.6-2.9c-5.8,1-6.6,1.5-12,1.4
		c-6.4-0.2-12.1-1.6-17.3-3.8c0.8,5.7,1.7,11.3,2.8,16.7c4.5,1.4,8.9,1.9,15.6,1.9C610.1,835.7,617.7,834.7,620.5,833.7z"/>
	<path d="M596.4,675.6c3,2.6,8.7,7.6,12.2,9.1c0.5-0.5,1.8-2.5,2.3-3.3c0.9-1.7,0.2-2.5-0.5-4.1c-1-2.5-2.1-5.9-3-8.7
		c-1-3.5-2-7.2-2.9-10.9c-1.2,2.8-2.4,5.6-3.8,8.3C599.1,669,597.7,672.2,596.4,675.6z"/>
	<path d="M680.1,842c-1.1,0.1-9.3,2.3-10.6,2.9c0.2,4.1,3.4,9.6,6.6,13.8c3.6-2.1,7.2-4.3,10.8-6.6c-0.6-0.7-1.3-1.5-1.8-2.3
		C681,843.4,682.3,841.8,680.1,842z"/>
	<path d="M664.4,846.5l-3.4,0.9c0,0,0,0,0,0c-2.7,0.6-5.5,1.3-7.9,2.7l-2.4,0.7c0.3,4.5,3.7,11.1,7.8,17c4.5-2,8.9-4.2,13.2-6.6
		c-0.5-0.8-1.1-1.5-1.6-2.3C666.3,852.6,665.7,848.2,664.4,846.5z"/>
	<path d="M621.5,856c0.8-3.5,0.3-13.5-0.4-17c-2.2,0-6.1,1-8.5,1.3c-3.4,0.4-6.9,0.3-10.4,0.3c5.2,14.5,6.9,21.9,4.7,38.2l-0.7,3.7
		c0,0.1,0.1,0.2,0.1,0.3c1.1-0.1,2.2-0.3,3.3-0.4c0.3-0.7,0.7-1.3,1-1.9C613.3,875.1,620.3,861.4,621.5,856z"/>
	<path d="M598.5,843.8c-2.2-4.8-1.3-3.7-6.2-4.7c2.8,13.2,6.3,25.3,10.4,35.6C603.7,864.2,602.8,853.3,598.5,843.8z"/>
	<path d="M528,638.2c0-2.6-1.7-10-1.7-16.1c-0.7-0.5-1.2-1.2-1.1-2.1c0-0.8,0.6-1.5,1.5-2.1c0.3-1.3,0.6-2.4,1.3-3.1
		c0.2,0.7,0.4,1.4,0.5,2.1c2.2-1,5.1-2.2,8.1-4.1c7.4-4.9,9.7-7.1,15.8-12.2c1-0.8,3.4-3.1,6.2-5.9c0.2-6.1-0.4-12.5-2.5-18.7
		c-0.5-2.5-0.8-7.4-0.9-13.6l-29.6,30.4c-8.5,8.4-17.3,15.9-27.5,22.4l-8,4.7c1.3,1.7,5.6,3.3,7.7,4.6c3.6,2.1,11.5,7.8,14.4,10.4
		c1.2,1.1,1.9,1.9,3.1,2.9c1.1,0.9,2.6,2,3.5,2.9l7.5,7.4C527.9,645.2,528.7,641.8,528,638.2z"/>
	<path d="M600.4,705.3c0.1-0.4,0.1-0.7,0.2-0.9c0.4-1.5,0.6-2.9,1-4.4c0.4-1.7,1.4-3.3,2-4.9c0,0,0,0,0,0l2.6-5.6
		c-1-0.8-1.9-1.3-2.9-1.9c-2.3-1.6-5.5-4.1-8.8-6.8c-2.4,7.3-4.3,15.4-5.9,24.2c3.8,2.4,8.4,4.9,10.6,5
		C599.8,708.7,600.1,706.7,600.4,705.3z"/>
	<path d="M573.6,466.6c-0.5-5.5,2.2-8,6.8-3.8c0-12.1,8.9-24.3,22.2-25.7c6.1-0.6,8.2,0.6,10.4,0.6c0.9-3.1,3-9,3.1-11.9
		c-28.8-8.7-58.4,20.2-44.8,52.3c0.6,1.4,1.2,2.5,1.8,3.4C574.1,476.5,574.3,471.5,573.6,466.6z"/>
	<path d="M597.8,722.6c0.8-8.4,1.5-6.9-2.3-8.5c-1.2-0.5-2.1-1-3.3-1.3c-1.1,1.2-1.9,3.4-2.8,5c-1.5,2.6-2.7,3.4-3.2,5c0,0,0,0,0,0
		C590.7,722.2,593.7,722.6,597.8,722.6z"/>
	<path d="M940.2,529.8c0.7,0.9,7.5,5,8.7,5.6c0.5-3.6,1.5-6.9,1.4-10.5c-2.1-0.8-4.1-1.7-6.1-2.6
		C942.4,524.9,940.7,527.9,940.2,529.8z"/>
	<path d="M599.2,745.3c0.2-3.5-3.7-2-9.6-4.8c-1.6-0.7-3.1-1.7-4.5-2.7c-0.2,4.2-0.4,8.4-0.5,12.6c4.9,2.5,10.4,4.3,15.9,4.4
		C600.6,749.6,598.8,753.6,599.2,745.3z"/>
	<path d="M597.7,727.6c-3,0-8.2-0.5-11.9,0.1c-0.1,1.4-0.2,2.8-0.3,4.2c3.3,2.8,8.7,5.6,12.7,6L597.7,727.6z"/>
	<path d="M584.5,764.6c2-3,4.3-4.4,5.6-6.6c-1.7-0.8-3.7-1.5-5.6-2.2C584.4,758.8,584.4,761.7,584.5,764.6z"/>
	<path d="M851.5,578.7c-1.3-0.8-2.5-1.7-4.2-2c-0.3,1.5-0.3,3.3-0.8,4.5c-0.7,1.6-1.4,1.6-1.6,3.9c1.2,0.5,5.3,4,6.8,5.1
		c2.8,2.2,8.8,8.9,12.3,12.4c3.2,3.2,7.6,7.6,11.9,10.9c1.9-2.4,3.8-4.8,5.7-7.2c-2.7-2.6-5.3-5.4-8.1-8.2
		C865.2,589.8,861.7,585.3,851.5,578.7z"/>
	<path d="M486.6,650.3c-7.3-9.5-17.8-16.1-29.2-20.3c-3.4-1.2-9.1-3.1-14-4.2c0.2,1,0.5,1.8,0.7,2.6c9,5.4,14.8,11.6,18.5,19.5
		c8.7,6.5,17.7,6.8,27.1,7.6C489.7,654.5,489,653.5,486.6,650.3z"/>
	<path d="M867.4,613c-2.7-2.1-5.8-5.7-8.2-8.1l-12.4-11.7c-1.3-1.3-2.9-2.9-4.4-3.7c-1,0.6-2.2,2.5-2.9,3.5c-1,1.4-1.7,2.6-2.9,3.8
		l-6.7,6.6c6.8,1.9,24.5,12,24.5,16.6c0,3.6-12.7,11.7-17,13.8c-2,1-6.1,2.1-7.5,3.2c0.7,1.1,2.3,2.2,3.4,3c1.4,1.2,1.8,2.1,3,3.3
		c2.2,2.3,3.9,4.5,5.5,7.2c3.8-0.8,13.6-11.5,20.4-18.5c3.5-4.9,7.1-9.8,10.7-14.6L867.4,613z"/>
	<path d="M883.3,596.4c1.5,0.6,3,1.4,4.5,2.1c1.4-1.7,2.8-3.3,4.3-5c-6.7-2.3-13.5-3.9-19.6-4.3
		C874.9,593.7,878.3,594.3,883.3,596.4z"/>
	<path d="M927,535.9c0,0.1-0.1,0.2-0.2,0.4c-0.6,3.4-1.7,6.6-3.2,9.7c-0.9,0.9-1.7,2.2-2,4.7c0.7,0.9,4.5,3.5,7.5,5.7
		c6.2-5.2,12.5-10.2,19.1-14.8c-7.1-5.2-15.2-10.5-19.9-11.5C928.1,531.3,927,534.7,927,535.9z"/>
	<path d="M829.4,661.5c-3.8,0.6-7.8,0.4-11.6-0.3c-3.1-0.6-7.1-2.4-9.6-2.5c0.6,1,0.6,0.3,1,1.2c0.5,1.2-0.1,1,0.4,2.5
		c7,4.4,19.8,6.1,29,4.2c0.1,0,0.2-0.1,0.4-0.1c2.9-4.5,5.8-9,8.8-13.4C842.4,657.1,836.4,660.4,829.4,661.5z"/>
	<path d="M916.8,558.9c-0.8,1.5,0.2,2.7,0.7,4.1c0.4,0.9,0.7,1.9,1.1,2.9c2.3-2.1,4.5-4.3,6.8-6.3c-2.3-1.7-4.6-3.3-6.2-4
		C918.5,556.2,917.4,557.7,916.8,558.9z"/>
	<path d="M541.9,615.3c-2.5,1.6-5.2,3.1-7.7,4.6c1.6,2,5,3.2,7.4,4.7c2.3,1.4,4.3,3,6.3,4.6c3.8-6,8.1-15.7,9.9-26.7l-2.2,2.1
		C551.1,608,547.5,611.8,541.9,615.3z"/>
	<path d="M834.6,673.3c0.2-0.3,0.4-0.7,0.6-1c-0.2,0-0.4,0-0.6,0C834.7,672.6,834.6,673,834.6,673.3z"/>
	<path d="M779.9,710.1c-2.1-0.8-4.3-2.1-6.5-2.4c-3,6.1-3.2,3.6-5.1,6.4c3.7,4.7,24.4,10.2,30.8,11.8c0.8,0.2,1.6,0.4,2.4,0.6
		c1.8-2.9,3.6-5.9,5.5-8.8C797.8,715,787.5,713.2,779.9,710.1z"/>
	<path d="M791.3,737.6c-0.2-0.3-0.4-0.6-0.7-0.9c-0.6-0.7-1.1-1.4-1.7-2.2c0,0,0,0,0,0l-4.6-6.2c-0.9,1.5-1.8,10.1-2.2,12.5
		c-1.7,9.1-3.8,14-7.7,22c-3.4,7-10.9,15.7-17,20.5c-1.5,1.2-2.7,2.1-4.5,3.3c-17.9,12.2-46.4,17.4-66.8,23.1
		c-9.4,2.6-24.5,7.1-32.5,12.5c-2.9,2-7.7,6.4-9.6,4.1c-1.1-1.3-0.4-4.4-0.2-6.1c2.8-22.5-14.2-62.8-17.8-87
		c-2.7-18.4-0.4-32.8,6.9-47.5c1.6-3.2,3.4-5.7,5.4-8.4l13.7-14.7c2.2-1.7,6.2-4.3,7.9-6.2l-7.4-1l0,0c-1.3-0.4-2.7-0.3-4-0.7h0
		c0,0,0,0,0,0c-4.6-1.3-5.3-0.1-11.1,4.8c-1,0.9-1.4,1.2-2.3,2l-4.4,4c-1,0.8-1.4,1-2.3,2c-1.3,1.5-2.6,3.1-3.8,4.7
		c-5.6,7.4-5.6,5.6-10.9,14.9c-1.1,1.9-5.2,9.7-5.4,11.6c-0.6,4.4-0.7,2.8-2.2,6.2c-3.7,8.1-3.4,28.8-2.1,38.2
		c2.5,19.2,8.2,37.3,13.4,54.9c3.8,12.8,8.1,28.5,9.2,42.2c0.5,5.7,0,11.4,0.3,17l11.6-6.4c22.6-11.4,55.1-16.5,83.1-25.2
		c29.3-26,53.9-57.3,72.1-86.2C792.6,738.5,792.1,738,791.3,737.6z"/>
	<path d="M796.1,735.3c0.8-1.2,1.5-2.4,2.3-3.7c-1.7-1.2-3.6-2.1-6.6-2.2C792,730.3,794.1,732.9,796.1,735.3z"/>
	<path d="M829.7,672.8c-3.2-0.8-6.1-0.9-9.4-1.5c-2.9-0.6-6.3-2.1-8.9-2.4c0.2,6.1,1.8,6.6,1,17c-0.2,2.7-0.7,5.5-1.2,8.1
		c-0.5,2.6-1.1,5.3-4.4,4.9c-6-0.7-16.8-6.8-21.7-10.9c-1.4-1.1-1.3-1.4-3-2.1c-0.9,2.8-1.4,6-2.2,9c-0.9,3.3-2.4,5.4-3.3,8.4
		c0.1,0,0.2,0,0.2,0.2l0.4,0.3c0,0,0.1,0.1,0.2,0.1l3.7,1.6c9.1,3.3,19.2,5.2,28.5,8.2c6-9.7,12.1-19.6,18.3-29.5
		C829,679.6,829.7,675.6,829.7,672.8z"/>
	<path d="M531.4,624.5c3.2,6,7.1,7.8,10.5,10.9c0.5,0.5,1.6-0.3,3.1-2.1c-2.7-2.1-4.3-3.2-8.3-5.9
		C535.1,626.4,533.3,625.4,531.4,624.5z"/>
	<path d="M683.2,699c-1,0.6-1.3,2.1-1.8,3.1c-0.5,1.3-0.9,2.6-1.4,3.9c-2.6,7.7-4.6,17.6-5.4,25.7c-0.9,9-0.8,19.5,0.9,28.5
		c0.6,2.9,1.6,6,2,8.7c7.4,0.2,27.5-11.3,33.6-15.5c5.4-3.8,15.6-12.2,19.5-17.3c1.8-2.3,3.9-4.3,5.4-6.8c-5.7,0.1-9.4,4.6-15.9,9
		c-4.6,3.1-11.1,6.4-16.8,8.7c-2.9,1.2-6.1,2.3-9.4,3.3c-5.1,1.6-6.3,1.8-7.8-3.3c-3.1-10.7-4.3-26.2-2.2-37.8
		C684.8,705.6,684.9,702.4,683.2,699z"/>
	<path d="M850,471.3l-0.5-0.1c-3.1,0.2-14.9,5.1-17.3,6.2c-6,2.8-10.6,5.9-15.4,9l-10.2,7.9c-3.1,3.2-13.7,12.6-14.9,16.4
		c9.3-1.6,9.6-6.2,20.5-11.9c7.8-4,13.8-7.1,22.9-9.6c5.3-1.4,5.6,0,7.2,7.9c2.1,10,2.8,19.7,1.7,30c-0.5,4.8-2.1,9.4,0.4,13.9
		l1-1.5c3.5-7.4,6.9-23.7,7.7-31.1C854.1,499.8,853.2,478.3,850,471.3z"/>
	<path d="M856.6,550c-1.3,0.4-8.3,3.4-9.1,4.2c1,6.5,0.6,10.7,0.7,17.2c1.7,1,3.5,1.6,6.2,3.3c13,8.4,5.6,6.9,16.6,0
		C869.9,569.8,859,551.7,856.6,550z"/>
	<path d="M820.6,639.6c-0.9,0.2-0.2-0.1-0.8,0.2c1.1,0.7,4.8,4.4,6,5.7l4.5,6.1c0.5,0.6,0.3,0.3,0.5,0.5c0.2,1.3,0.8,2.7,1.8,3.2
		c2.6-1.6-0.4-1.7,5-1.7c-0.6-4.1-12.6-15.2-14.5-15.1L820.6,639.6z"/>
	<path d="M831.1,611.5c1.9,1.3,8.6,6.3,8.9,8.2c0.5,3.7-10.5,10-13.9,11.6c-1.7,0.8-4.5,1.9-5.9,2.7c4.9-0.1,11.7-3.3,15.7-5.2
		c5.5-2.7,8.6-5.1,12.3-8.7c-4-4.1-7.5-6-12.5-8.7c-3.7-2-11.6-5.2-16-5.4C823.8,608,827.5,609.1,831.1,611.5z"/>
	<path d="M871.2,527c-3.9,1.1-7.5,2.4-11.3,3.9c-1.8,0.7-3.6,1.3-5.3,2.1c-1.6,0.7-2.2,1.7-2.7,4c-0.1,0.2-0.1,0.4-0.1,0.6
		c0,0.1,0,0.2-0.1,0.3c0,0,0,0,0,0c0,0.1-0.1,0.2-0.2,0.3c-0.2,0.3-0.3,0.7-0.5,1c-0.4,0.9-1,1.9-1.2,2.9c0,0,0,0,0,0.1
		c-0.9,1.8-2.1,4.8-2.5,6c3.6-0.9,6.8-2.8,10.3-4c9.7-3.2,20.3-5.4,30.7-4.6c2,0.2,4.6,0.7,6.6,0.5l0.5-2.3c0,0,0,0,0-0.1
		c1-3.3,2.3-6.4,1.7-9.9c0-0.1-0.1-0.1-0.1-0.2l0.3-4.9C888.1,522.9,879.5,524.6,871.2,527z"/>
	<path d="M839.4,522.6c1.3-8.3-0.9-21-2.7-28.3c-5.9,0-22.7,8.7-26.2,11.6c4.1-0.2,14.1-4.6,18-7c2.2-1.4,3.7-3,5.2-3.3
		c3.3-0.6,3.1,2.6,2.8,4.8C835.7,507.1,837.3,516.6,839.4,522.6z"/>
	<path d="M824.3,506.6c-5.6,2.7-18.6,5.9-24.7,7.5c-5.8,1.5-11.4,2.8-16.9,4.7c-3.2,1.1-12.9,5.1-14.4,7c1,2.2,1.9,1.5,3,2.8
		c0.7,0.8,1.1,2.4,2.5,3.6c3.9-1.3,7.5-3,11.8-4.2c11.2-3.1,23.6-4.9,33.6-10.9c1.1-0.7,1.5-1.2,2.4-1.9c6.3-1.7,2.8,4.7,4.2,13.1
		c1.7,10.9,6.4,21.6,8.3,33.5c1.3,8.4,1.2,16.4-2.1,23.5c-4.6,9.9-8.7,10.6-12.4,15.4c5.3-0.9,0.5,4.2,10.4-4.3
		c1.5-1.3,6.5-7.5,7.6-9.4c16.1-26.8-5.4-53.8-6.1-83.8C829.6,503.7,826.1,505.8,824.3,506.6z"/>
	<path d="M862.3,548.2c0.1,1.2,0.8,1.7,1.5,2.7c0.8,1.1,1.2,1.7,1.8,2.8c1.2,1.9,2.3,3.4,3.4,5.5l6,11.6c3-0.9,10.3-10.9,10.4-11.5
		c0.6-2.6-6.4-11.8-7.5-14.5C873.6,545.4,865.7,546.5,862.3,548.2z"/>
	<path d="M610.5,338.5c-1.8-1.1-3.7-2.6-5.4-3.4c0.7,1.8,7.8,8.7,9.6,10.5c10.1,10.1,26.5,19.2,42,19.6c1.4-0.8,2.9-3,4.7-4.8
		c1.9-1.9,3-2.9,5.2-4.8c0-2.4-2.7-7.1-3.8-9c-2.2-3.9-3.5-4.6-5.4-7.3C653.5,340,635.5,353.2,610.5,338.5z"/>
	<path d="M639.8,327.9c-5.2-2.2-10.9-3.9-16.6-5.3c-11.9-3-22.7-5.4-33.3-10c1.7,3.6,8.2,9.8,11.1,12.8c11.4,11.4,27,18.2,43.6,14
		c2.1-0.5,7.4-2.4,8.7-3.5C651.6,333.4,642.9,329.2,639.8,327.9z"/>
	<path d="M577,347.8c-2.7,9.4-5.8,22.4-4.5,32.5l0.3,1.4c0,0.1,0.1,0.2,0.1,0.3c0,0.1,0.1,0.2,0.1,0.2c4-2.1,9.1-7.4,11.7-11.3
		c7.7-11.5,8.5-24.5,5.6-37.9c-1-4.5-3.8-14.3-5.9-17.4C581.7,332.1,581.6,331.9,577,347.8z"/>
	<path d="M596.5,340.1c-0.3,4.2,0.8,8.3-0.6,16c-1,5.5-2.2,8.5-4.5,13.1c-2.4,4.8-5.7,8.7-9.6,12c-0.9,0.8-1.5,1.4-2.4,2.2
		c-1.4,1.1-3.7,3-5.4,3.5c1.2,6.7,6,13,9.4,16.8c1.2-0.2,7.9-2.3,13-3.3c5.2-12.3,6.8-14.6,6.7-30C603,364,599.4,344.2,596.5,340.1z
		"/>
	<path d="M880,477.7l12.6,11c-0.2-3.4-6.5-23-7.9-28.1c-3.6-13.9-7-25.2-5.8-39.5c-1.3,0.4-8.7,4.9-14.5,7.2
		c-5.3,2.1-10.7,3.9-16.4,5.5c-4.1,1.2-33.6,8.4-34.5,9.2l11.7,3.8C846.9,454.8,862.2,463.5,880,477.7z"/>
	<path d="M791.8,458.6c12.1,2,27.9,6.7,39,11.9c2.1,1,2.2,1,4.2,0.2c3.6-1.4,13.9-5.6,17.9-5c2.7,3.7,3.8,12.5,4.6,18.1
		c0.4,3.1,0.8,2.2,5.5,5.8c1.1,0.9,2,1.6,3.1,2.5l23.4,22.6c0.9,1,1.9,2.6,2.7,3.4l5.3-0.2c0-4.7-1.1-17.5-3.3-20.3
		c-1.5-2-4.2-4.3-6-6.1c-1.3-1.3-1.9-1.8-3.2-2.8l-9.4-8.3c-3.7-3.3-17-12.2-21.4-14.7c-16.1-9.5-24.6-12.5-42-17.8
		c-2.3-0.7-7.2-2.5-9.6-2c-3.5,0.8-15.1,5.3-17,7.2c0.2,1.2,1.1,3,1.8,3.9C788.5,458.5,789.9,458.3,791.8,458.6z"/>
	<path d="M776,679.7c-1-0.8-0.4-0.6-1-1.8c-1.3,6.7-2.5,9.7-5,15.3c-14.1,22.5-42.4,18.9-58.8,28.2c-2.2,1.3-5.9,5-8.5,2.9
		c-0.7-1.3-0.1-7.6-0.3-9.9c-0.3-3.2-0.9-6.3-1.7-9.3c-1.4-5.8-3.2-11.3-4.8-17.1c-2.4-9-4.3-19.1-1.8-28.6c0.9-3.3,2.3-5.3,3.4-8
		c2.3-3.9,7.4-9.5,10.6-11.5c-1.2-1,0.2,0.1-2-0.7c-0.8-0.3-0.7-0.5-1.6-0.8c-1.4,0.6-8,6.2-8.9,7.3c-9.3,11.1-12.9,21-10.8,37.1
		c2.3,17.6,10.2,30.2,11.7,53.6c2.9-0.5,8.8-3.7,12-4.9c4.2-1.6,9-2.8,13.4-3.9c9.1-2.3,18.2-4.3,26.7-7.6c4-1.6,8-3.6,11.1-5.8
		c3-2.1,6.7-5.7,8.9-8.4c2.5-3.2,4.3-6.4,6-11c1.2-3.3,3.9-10.6,2.9-14C776.7,679.9,776.5,680.2,776,679.7z"/>
	<path d="M650.6,695.2c3.4,0,12.7-2,15.1-3.4c-2.2-3.5-4.5-6.6-6.8-10.6c-2-3.6-4-8.5-6.3-11.8c-2.3,1.8-10.2,9.7-10.4,11.6
		c-0.2,1.9,5.3,10.3,6.9,12.8C649.8,694.8,649.6,695.2,650.6,695.2z"/>
	<path d="M673,707.2c2.1-0.8,2.2-1.9,2.7-4c0.1-0.1,0.2-0.3,0.2-0.4c0.2-0.6,0.2-1.2,0.4-1.8c0.1-0.3,0.3-1.1,0.3-1.1
		c0.2-0.2,0.3-0.5,0.4-0.7c0,0,0,0,0,0l3.2-7.3c-2.5,0.4-7.2,2.9-10.2,3.8c-3.6,1.2-7.4,2.2-11.1,3.1c-5.8,1.4-12.9,1.8-19,1.5
		c-2.3-0.1-4.4-0.5-6.7-0.6l-0.8,0l-0.5,2.6c-0.2,0.3-0.3,0.6-0.3,1.1c0.2,1.6-0.4,3.1-0.6,4.7c-0.1,1.2-0.2,2.4-0.2,3.6
		c-0.1,0-0.2,0.1-0.3,0.1l-0.5,5c9.5,0,18-1.4,26.4-3.8C663.7,711.1,666.6,709.8,673,707.2z"/>
	<path d="M815.2,642.6c-4.3-3.3-3.3-2.8-9.5-3.2c-4.1-0.3-7.2-1.2-11.2-1.8c0.6,1.3,1.6,2.2,2.6,3.3c0.9,1,1.8,2.1,2.8,3.3
		c1.7,2,3.2,5.3,4.8,6.8c2.1,2.1,14,5.8,17.9,5.8c2.1,0,2.5,0.2,4.1-0.5C826.3,652.2,818.8,645.3,815.2,642.6z"/>
	<path d="M680.4,663.3c0.6-6.5,1.8-4.7,2.4-7.9c-1.1-1.4-3.5-2.8-4.9-3.9c-2-1.5-2.9-2.5-4.6-4.2c-1.6-1.6-2.9-2.9-4.4-4.4
		c-5.5-5.5-16-17.7-24-20.1c-0.4-0.3-0.8-0.6-1.3-0.7c-1-1.9-1-2.5,0.4-4.2c10.9-3.2,21.9-18.7,29-24.7c1.7-1.4,3.2-2.5,4.8-4.1
		c1.6-1.5,3.3-2.6,5.2-3.9c-0.2-2.4-0.9-2.2-1.6-3.8c-0.4-1-0.6-3.2-0.9-4.5c-6.6,0.9-22.3,17.5-25.9,21.2
		c-3.7,3.8-7.7,7.4-11.7,11.7c-1.1,1.2-1.9,1.6-3.1,2.6c-1.2,1.2-2.1,1.8-3.3,2.7c-1.5,1.1-6,3.8-7.1,5c0.8,1.4,8,5.3,13,10.4
		c4,4,7.8,7.8,11.9,11.8c6,6.1,11.3,11.8,18.3,16.8C674.1,660.1,678.1,662.9,680.4,663.3z"/>
	<path d="M670.8,690.1c3-0.5,7.2-2.6,9.2-3.8c-1.1-11.2-0.8-7-0.7-16.4c0.1-2.1-2.2-1.7-7.5-5.3c-2.3-1.6-4.7-3.6-7.1-4.9
		c-2,0.6-6.3,4.3-7.9,5.7c0.2,3.8,7.5,15.1,9.8,18.9C668.1,686.5,669.6,688.2,670.8,690.1z"/>
	<path d="M640.4,635.6l-3.5-3.2c-3.1-2.8-6.3-5.5-10-7.6c-1.5-0.8-5.4-2.1-6.1-3.2c-1.5-3.3,1.9-4.1,4-5c2.3-1,4.2-2.4,6.2-3.7
		c2.9-2,9-6.8,10.5-9.3c-4.9,1.5-21.2,13.6-22.7,16.6c2.5,4.3,19.4,15.9,22.5,16.5C640.5,635.9,640.9,636.1,640.4,635.6z"/>
	<path d="M736.4,781.6c-11.5-1.7-25.1-5.8-35.7-10.3c-3-1.3-5.3-3.2-8.3-1.8c-2.5,1.2-15,6.1-17.4,5c-2.6-1.2-4.3-14.7-4.8-18.2
		c-0.4-2.6-2.8-3.7-5.5-5.8c-8.3-6.2-11.1-9.4-18.4-16.3l-11.2-12.3l-4.8,0.3c-0.5,2.3,1,17.7,3.2,20.2l4.3,4.6
		c0.6,0.5,1.1,0.8,1.8,1.4c2.3,2.1,3.9,3.6,6.2,5.8l13.2,10.5c2.5,1.7,4.6,3.3,7.1,4.9c2.3,1.5,4.9,3.1,7.4,4.6
		c10.2,6.2,20.6,10.6,32.7,15.1c3.2,1.2,16.2,5.5,19,4.8c2.9-0.7,14.8-5.7,17-7.1C741.2,781.5,738.5,781.9,736.4,781.6z"/>
	<path d="M691.5,789c-12.3-5.5-19.8-9.7-30.4-16.6c-5.2-3.5-13.3-9.4-17.6-13.5c-2.8-2.7-5.6-5.2-8.3-7.5c1.5,7.6,6.6,23.2,8.8,31.8
		c3.3,12.7,4.8,21.7,4.9,35.9c2.1-0.7,9.2-5.2,14.5-7.3c5.4-2.1,10.7-3.8,16.4-5.5c11.5-3.3,23.4-5.7,34.7-8.9c-2-1.6-8.8-3-11.7-4
		C699,792.1,695.3,790.6,691.5,789z"/>
	<path d="M616.7,371.9c-1.9-4-10.1-20.7-12.4-23.3c1.9,11.5,3.5,12.4,3.4,26.5c0,6.5-1.3,13.1-3.4,19.1c-0.7,1.9-1.6,3.7-2.2,5.6
		c3.4,0,6.8-0.1,10.2,0.2c1.7,0.2,7.9,1.5,8.7,1.2c1.2-2.9,1.2-12.8,0.7-16.3C621.3,382.3,617.9,374.5,616.7,371.9z"/>
	<path d="M800,682.6c1.8-5.5,2-13.9,0.6-19.7c-1-4.1-3.7-13.4-6.3-15.6c0.2,4.6,1.2,5.1,0.2,11.9c-1.3,9.7-2.9,11.6-14.3,6
		c-6.1-3.1-3.7-2.1-8.3-5.3c1.1,4,8.9,12.3,11.2,14.1C786.5,676.5,794.4,681.8,800,682.6z"/>
	<path d="M803.8,682.2c-0.5,2.2-0.5,4.3-3,4.2c-7.1-0.2-19.2-9.4-20-9.7c5.8,6.9,17.1,15.4,25.6,16.6c0.2-2.6,0.8-5.2,1.1-7.9
		c0.6-7.7-0.2-16.6-3.4-23.2C804,666.4,806.2,670.7,803.8,682.2z"/>
	<path d="M762.7,718.2c-5,2.7-3.8,3.3-12.4,6.4c-2.4,0.9-2,1.2-1.7,4c1,8.3-0.6,6.9,4.8,7.6c5,0.6,18.6,0.3,23.3-0.4
		c1.9-0.3,1.3,0.3,2.1-4.3c0.4-2.3,0.4-3.8,0.4-6.2C769.8,722.9,765.6,716.6,762.7,718.2z"/>
	<path d="M754.1,764.3c-1.8-3.3-3.4-6.9-4.9-10.7c-3.6-9-3.9-15.5-5.6-25.3c-1.5,1.6-3.4,5-4.8,6.2h0c-0.2,0.1-0.3,0.2-0.4,0.4
		c-0.4,0.6-1,1.1-1.5,1.7c-0.2,0.3-0.3,0.6-0.5,0.9l-0.1,0c-0.7,0.7-1.2,1.4-1.8,2.1c-1.6,2-0.5,5.3,0.2,9.4
		c1.4,8.5,7.2,31,12.3,35.1c0.9-0.4,1.6-0.8,2.3-1.4c0.3,0,0.5-0.1,0.8-0.3c1.5-1,2.8-2.3,4.1-3.5c1-1,2.2-1.7,3.3-2.6
		c0.1-0.1,0.2-0.1,0.2-0.2c0.2-0.1,0.3-0.3,0.5-0.4c0.1-0.1,0.1-0.2,0.2-0.3l2-2c-1-1.8-1.7-2.6-3.1-4.3
		C756.1,767.6,755,766,754.1,764.3z"/>
	<path d="M750.6,740.9c0.6,3.4,3.4,13.5,5.2,15.2c3.7,0.7,12.3,0.5,16.1,0.1c1.6-3.6,4.8-11.1,5-15.4c-3.9,0-8.2,0.7-12.7,0.7
		C759.6,741.5,755.2,741,750.6,740.9z"/>
	<path d="M671.8,575.7c2.4-1.6,5.2-2.7,7.5-4.2c0.4-2.9-0.2-6,0-8.8c0.6-9.3,2.9-8.1-3.1-10.7c-5.3-2.3-5.1-3.8-10.3,5.3
		c-1.9,3.3-8.6,13.8-9,17.8c2.2,0.9,6.2,4.7,7.9,5.3C667.3,579.1,669.4,577.3,671.8,575.7z"/>
	<path d="M545.4,480.4l-0.8-4.8c-0.4-1.7-0.7-3.4-0.9-5.2c-0.4-3.5-0.5-8.4-0.1-12.1c-2.4,0.6-5.6,2.5-11.1,3.8
		c-20.2,5-35.9-1.7-40.1-1.6l11.7,6.4c4.2,2.1,8.1,4.1,12.3,6.1C522,475.8,538.2,482.1,545.4,480.4z"/>
	<path d="M653.3,369.9c0,0-0.1,0-0.2-0.3c-4.4-1.1-6.8-0.5-13.5-2.9c-4.3-1.6-8-3.3-11.6-5.4c-4.2-2.4-11.2-7.4-14.7-10.8
		c-0.9-0.9-1.4-1.1-2.3-1.9c-0.9-0.7-1.3-1.4-2.2-2c0.5,1.8,5.8,9.9,7.1,12c2.6,4.3,12.3,19,16.7,21.8c2.5,1.6,10.2,6,13.2,6.6
		c0.7-3,1.9-6.3,3.3-9l4.1-7.5C653.3,370,653.3,370,653.3,369.9z"/>
	<path d="M531.8,507.1c-6.1,1.9-16.6,7-21.2,11.7c-6.2,6.3-9.3,8.6-14.2,18.7c-5.4,10.9-7.2,23.4-4.6,36.6
		c2,10.1,8.2,21.5,13.9,27.2c0.2,0.3,0.4,0.5,0.8,0.7c0.2,0.2,0.4,0.4,0.6,0.5c0.2-0.1,0.4-0.2,0.6-0.3c0.3,0,0.6-0.1,0.9-0.4
		c1.4-1.1,2.7-2.1,4-3.3c1-1,2.1-1.8,3-2.9c0,0,0.1,0,0.1,0l2.2-2.5c-1-2.1-4.9-4.2-8.3-12.1c-3.7-8.4-4.2-10.9-4.2-19.8
		c0-10.4,5-21.8,12-28.9c1-1,1.7-1.3,2.7-2.3c6.9-6.4,18.6-11,28.4-10.6l8.6,0.8c0-5.5,2.9-9.4,4.1-13.8
		C553.3,503.8,539,504.9,531.8,507.1z"/>
	<path d="M490.2,465c0.8,1,1.4,1.5,2.2,2.3c3.5,3.5,10.3,12.6,12.8,16.9c4.3,7.7,7.5,16,8.4,26c1.5-0.6,2.9-1.7,4.5-2.6
		c7-3.8,8.9-3.7,16-6.2c-1.3-2.3-2.1-4-3.6-6c-7.2-9.9-22.9-20.4-33.6-26.5C494.9,467.7,492.3,465.8,490.2,465z"/>
	<path d="M725.6,345.1c3.2,1.1,2.5,1.9,8-2.3c2.4-1.9,4.5-3.8,6.5-5.9l2.9-3.4c7.5-9.1,15.1-28.4,16.1-40c-1.1,1.7-2.1,4.1-3.1,5.9
		c-3.1,5.6-7.7,11.2-12.7,14.9c-8.5,6.4-15.1,8.2-27.6,9.2c-1.4,5.5-1.7,13.5-0.1,19.1C717,343.3,723.3,344.3,725.6,345.1z"/>
	<path d="M449.3,622.5l12.9,4.5c6.4,2.7,14,6.7,19.2,11.2c1,0.9,1.6,1.3,2.5,2.1c1.6,1.5,3,2.8,4.3,4.5l4,4.9
		c0.1-0.1,0.2-0.2,0.2-0.2c0,0.1,0.1-0.2,0.2-0.2l2.1-3.6c0.8-1.5,1.7-2.8,2.6-4.1l5.8-7.2c-1.1-1.7-6.4-4.7-8.7-6.1
		c-4.5-2.7-4.9-3.1-10.9-4C474,623,459.6,622.1,449.3,622.5z"/>
	<path d="M574.3,408.4C574.3,408.4,574.3,408.4,574.3,408.4C574.3,408.4,574.3,408.4,574.3,408.4c0.6-0.4,1.1-0.8,1.7-1.1
		c0.5-0.2,0.7-0.6,0.8-1l1.8-0.5c-4.6-5-9.2-13.7-10.6-22.8c-3.6-23.8,11.6-49.6,12.1-70.5c0-2.3-0.6-6.3-0.4-7.8
		c0.3-3.2,3.2-2,4.8-0.7c11.9,9.4,34.2,11.7,50.2,17.1c8.4,2.8,16.9,6.5,22.3,11.3c7.2,6.5,9.2,9.3,13.8,20l2.1-1.1c0,0,0,0,0,0
		c0.1,0,0.3-0.1,0.4-0.1c0.7-0.3,1.3-0.8,1.9-1.3c0,0,0.1-0.1,0.1-0.1c0,0,0,0,0,0.1c0.3-0.3,0.4-0.3,0.8-0.5l1.2-0.8
		c-1.8-10.4-8.4-20.6-15.4-27.6c-7.1-7.1-17.5-12.1-27.4-15.4c-18.3-6.3-41.2-9.3-57.4-17.2c-1.8-0.9-5.9-3.5-7-3.8
		c0.9,34.4-23.3,68-13.5,100.4c3.2,10.5,8.3,17.1,15.5,24.5L574.3,408.4z"/>
	<path d="M523.5,481.2c0.7,1.3,3.3,3.2,4.5,4.2c1.6,1.3,2.6,2.9,4.1,4.4c1.8,1.9,5.8,7.5,6.6,10.8c8.1-0.9,9-0.7,17-0.2
		c-0.8-2.1-3.1-5.2-4.3-7.4c-1.1-2-2.9-6.2-4.1-7.9C533.3,485.8,532.8,483.1,523.5,481.2z"/>
	<path d="M493.5,532c0-0.1,0.1-0.1,0.1-0.2c0.4-0.5,0.6-1,1-1.5c0.4-0.4,0.7-1,0.8-1.6c0.3-0.6,0.5-0.8,0.9-1.5l-2.6-1.3
		c-36.7-15.1-28.4-61.2-45.7-84.9c-0.4-0.6-1.4-1.7-1.5-2.4c-1-4.4,5.2-2.3,8.8-2.3c26.8-0.3,54.4-21.4,83.7-8.4
		c2.8,1.2,5.6,3.1,7.9,4.8c0.8,0.6,1.5,1.3,2.5,1.9c0.6-0.8,0.9-1.1,1-1.3c0.1-0.1,0.2-0.1,0.2-0.2c0.4-0.9,0.7-1.7,1.1-2.6
		c0,0,0-0.1,0-0.1c0-0.1,0.1-0.1,0.1-0.2c0,0,0-0.1,0-0.1c0,0,0,0,0,0l1.4-1.9c-4.5-3.9-3.8-4.5-10.7-9.1
		c-33.1-21.9-70.9,3.8-104.9,6.8c-3.4,0.3-6.3,0.1-9.4,0.2c13.7,23.9,12.5,40.6,21.2,64.6c4.2,11.6,8.5,20.2,15.5,27.4
		c6.9,7,17.3,13.6,27.6,15.4L493.5,532z"/>
	<path d="M491.5,433.3c-5.3,1.5-10.1,3-15.4,4.4c-2.8,0.7-5.3,1.4-8.1,1.9c-2.9,0.6-5.7,0.7-8.6,1.3c12.2,5.2,24.6,9,38.7,6.9
		c8.5-1.3,17.9-6.1,23.1-12c1-1.1,4.4-5.2,4.9-6.7C511.8,428,505.3,429.2,491.5,433.3z"/>
	<path d="M479,603.7c-7.8,5.9-21.3,12.1-30.7,14c13.4-0.5,20.8,0.3,36.1-2.2c6.3-1,9.2-3.2,14.5-6.7c1.6-1,3.2-1.7,3.9-3.4
		c-3.3-2.5-8.6-10.2-10.7-15c-1.2,1.1-2.9,3.5-3.9,4.9C486,597.9,482,601.4,479,603.7z"/>
	<path d="M748.6,302.2c6.7-8.8,11-22.2,12.4-35.5c-0.9,0.8-1.6,2.1-2.5,3.2c-1,1.2-1.8,2.1-2.8,3.2c-2,2.3-4,4.1-5.7,6.3l-12.2,11.9
		c-6.4,6.4-18.2,18.1-20.4,27.4C730,318.6,741.4,311.7,748.6,302.2z"/>
	<path d="M501.8,520.3l5-4.9c1.3-1,2.2-0.9,2.2-3.3c0-12.6-7.6-27.1-14.9-35.7c-3.9-4.6-5.1-6.3-9.8-10.7l-5.6-4.7
		c0.9,1.8,2.6,3.9,3.7,5.9c3.8,6.7,6.7,14.9,6.7,22.9c0,12.1-3.1,15.3-6.1,23.6c2.3,2.6,11.3,9,16.5,9.6
		C500.8,522,500.8,521.3,501.8,520.3z"/>
	<path d="M459.6,454c2.5,7.1,5,18.2,6.9,25.7c1.8,7,7.8,26.2,13.3,29.9c5.7-13.9,6.8-23.9-0.4-38.3c-2.5-4.9-8.8-13.5-12.8-17
		c-1.2-1.1-2-1.6-3.2-2.8c-1.4-1.3-5.1-4.5-6.9-5.3C457.1,448.3,458.8,451.8,459.6,454z"/>
	<path d="M531.1,430.4c-1.9,2.2-4.8,6.9-7.6,9.7l-4.8,4c-10.1,7.6-21.3,9.6-34.8,8.4c0.3,0.2,0.2,0.2,0.8,0.5
		c2.9,1.5,13.7,4.1,16.6,4.7c13.1,2.5,26.6,2.4,38.8-3c0.5-0.2,3.5-1.7,3.8-1.9c0.9-0.8,0.8-2.5,1.2-4.5c0.7-3.2,1.8-5.9,2.6-8.9
		C545.3,437.2,536,430.6,531.1,430.4z"/>
	<path d="M763.9,415.3c-1.5,1.5-1.6,2.9-2.6,4.9c-0.9,1.8-2.2,2.9-2.8,4.8l5.3,3.9c0.7,0.1,4.8-2.9,5.5-3.4c-0.2-2.1-1.7-3.4-2.7-5
		C765.6,418.8,765,416.7,763.9,415.3z"/>
	<path d="M767.3,408.9c0.3,4.4,4.5,10.4,6.3,13.4c1.9-0.3,8.1-3.8,9.3-4.7C779.3,413.4,775.2,410,767.3,408.9z"/>
	<path d="M760.2,309.1c-0.4,1.2-0.6,2.1-1,3.2c-3.5,9.8-8.7,20.7-15.9,27.9c-2.9,2.9-3.5,3.7-6.9,6.2c-1.1,0.9-1.8,1.1-2.6,2.1
		c2.6,0.8,7.5,4.3,9.4,5.8c3.1,2.3,6,4.8,8.2,7.3c2.1-1.4,4.5-7.6,5.5-10.8c3.9-12.1,4.6-32.1,4.6-45c0,0-0.1-0.7-0.9,1.6
		C760.5,307.9,760.3,308.5,760.2,309.1z"/>
	<path d="M803.7,394.4c-3.1,5.7-4.4,10.5,0.2,15.1c2.4-0.2,7-1.7,9.3-2.4c3.2-0.9,6.2-1.9,9.3-2.7c5.7-1.4,13.4-2.9,18.9-4.7
		C840.6,387.9,815,373.9,803.7,394.4z"/>
	<path d="M707.3,379.3c6.8,0,12.2,3,15.7,6.6c4.5,4.6,6.2,6.5,8.1,14.6c1.4-0.5,10-6.7,10.8-7.7c-0.8-6.2-8.6-15.2-13.2-18.6
		c-23.1-17.2-54-3.3-59.5,20.7c1.4,1,9.9,3.1,12.2,3.1C685.7,385.3,693.5,379.3,707.3,379.3z"/>
	<path d="M711.7,384.8c-5.5-1.7-12.6-0.3-16.8,2.5c-2.4,1.6-3.7,2.8-5.3,4.9c-1.3,1.7-3.1,4.6-3.4,7.4l37.7,9.8
		C731.1,401.5,721.2,387.6,711.7,384.8z"/>
	<path d="M744.9,417.5c1.7,1.2,6.9,4.2,9.2,4.8c0.5-1.1,1.1-1.7,1.9-2.9c1.9-3,3.6-6.9,4.5-10.5
		C755.2,408.9,746.5,414.3,744.9,417.5z"/>
	<path d="M784.9,398.3c-5.6-3.3-13.6-5.6-21.1-5.6c-9.1-0.1-18.4,3.1-24.9,8.1c-2.9,2.2-8.9,7.5-9.7,10.4c1.8,1.5,3.4,0.9,5.7,1.7
		c4.7,1.8,3.4,4.6,6.9,0.3c4.6-5.6,13.8-9.7,22.1-9.7c7.8,0.1,13.8,2.8,19.5,7.2c2,1.6,2.9,3.5,4.6,4.6c2.8-0.4,3.1-1.7,4.9-2.5
		c2.2-1,3.5,0.2,5.7-1.7C797.6,407.8,788.5,400.3,784.9,398.3z"/>
	<path d="M798.8,373.9c-3.2,2.3-5.5,4.9-7.9,8c-1.9,2.5-4.9,6.9-5.5,11c3.8,2.1,5,2.7,8.3,5.4c1,0.8,1.4,1.6,2.6,1.9
		c0.8-3.2,1.5-5.8,3-8.4c12-21.3,39-13,45.6,2.3c0.6,1.5,0.7,2.7,1.8,3.9c2.1-0.1,10-2.1,11.5-3.1c-1.3-5.2-2.3-7-4.8-11
		C842,365.9,817.3,360.6,798.8,373.9z"/>
	<path d="M791.6,313.4c5,2.8,12,5.3,18.7,5.4c-0.9-4.6-6.4-12-8.7-15c-7.8-9.6-15.3-15.8-23.7-24.1c-4-4-7.4-8.7-11.1-12.9
		c0,5.4,2.6,14.6,4.2,19.5C774.6,297.3,781.5,307.8,791.6,313.4z"/>
	<path d="M755,365.6c1.2,2.1,3,4.2,4.6,6.8c1.4,2.3,2.5,5.1,3.9,7.4l1.2-1.6c0.4-0.7,0.6-1.3,0.9-1.9c0.6-1.3,1.4-2.5,2.1-3.9
		c1.5-2.7,3.3-4.7,4.8-7.1c-2.5-5.5-4.3-5.2-7.1-16.3c-0.5-1.8-0.7-4.8-1.5-6.3c-0.5,1-1.1,4.9-1.5,6.3c-0.6,2.2-1.2,4.2-1.9,6.2
		C758.4,361,756.7,362.3,755,365.6z"/>
	<path d="M775.5,361.3c1.1-0.5,1.4-1.1,2.1-1.8l6.4-5.3c3.4-2.4,5.9-4,9.5-6c-0.8-0.9-3.7-2.8-4.7-3.7
		c-10.8-8.9-17.6-23.3-21.6-36.7c-0.1-0.3-0.1-0.5-0.3-0.8c-0.6-1.3-0.2-0.5-0.7-1.1c0,15.6,0.4,35.7,6.5,50.2
		C773.6,358,774.8,359.6,775.5,361.3z"/>
	<path d="M768.6,293.1c-0.1,4.8,4.5,19,6.4,23.4c2.4,5.5,5.7,12,9.5,16.7c2.6,3.3,6,6.7,9.4,9.3c5.4,4.1,3.6,3.5,10.5,1.6
		c2.3-0.6,3.8-0.9,6.1-1.3c2-0.3,1.8,0.3,2.3-5.5c0.5-5.1,0-9.1-1-13.9c-15.3-1.3-19.9-3.3-30.1-11.3
		C777.2,308.5,769.6,297.4,768.6,293.1z"/>
	<path d="M785.8,359.1c-4.3,3.8-7.9,7-11.5,12.2c-1.8,2.7-7.8,12.2-7.6,16.4c2.6,0.3,4.6,0.5,7.2,1c2.2,0.5,4.5,1.3,6.7,1.8
		c4.3-7.7,5.6-13.7,14.6-20.3c8.2-6.1,16.8-8.8,28.9-8.8c13.6,0,27.3,9.2,33.7,19.9c1.3,2.2,2,3.5,3,5.9c0.6,1.3,1.9,5.6,2.5,6.4
		l2.4-0.7c0.3,0.1,0.6,0.1,1,0c1.2-0.4,2.4-1,3.6-1.5c1.1-0.4,2.4-1.2,3.6-1.4c0.3,0,0.6-0.2,0.8-0.3l2.3-0.6
		c-0.8-9-11.2-23.2-18.7-29.2c-16.1-12.9-37.4-17.3-57.2-9.4C795.2,352.9,789.5,355.9,785.8,359.1z"/>
	<path d="M666.4,362.5c-5.9,4.6-15.1,19.7-15.8,26.8l1.7,0.5c0.2,0.1,0.3,0.2,0.5,0.2c2.7,0.5,5.1,1.5,7.7,2.4c0,0,0,0.1,0,0.1
		c1.3,0.4,2.4,1,4,1c2-8.5,7.4-16.4,13.8-22c6-5.3,15.6-9.2,25.8-9.9c10.6-0.8,21,3.6,27.4,8.4c4.5,3.3,9.6,9.1,12.3,14.2
		c1.2,2.3,1.6,4.2,2.7,6.4c3.3,0.2,6.5-2.8,14.3-2.8c-0.4-4.8-5.6-13.2-7.8-16.4c-9.7-14.3-28.8-25.4-47.8-24.5
		c-16.7,0.8-24.9,5-35.5,12.9C668.4,360.7,667.6,361.6,666.4,362.5z"/>
	<path d="M806.1,547c-5.6-0.3-22.1,11.3-25.5,16.7c1.9-1,3.8-3.2,9.4-6c3.2-1.6,7.8-3.9,11.7-4c2.5,1.7,2.7,7.3,3,10.7
		c0.6,8.4-0.2,6.8-0.5,12.5C808.2,571.1,808.9,554.3,806.1,547z"/>
	<path d="M772.3,579.7c1.8-0.8,11.9-8.6,18.1-7.8c3.1,0.4,3.7,5.7,4.1,9c0.6,5,0.3,7-0.3,11.9c2.9-2.1,5.8-12.4,6.4-15.3
		c1.4-7,0.9-13.3-0.5-19.8C790.8,558.6,775,571.7,772.3,579.7z"/>
	<path d="M766.4,601.4c0.1-0.1,0.2-0.2,0.2-0.2c0,0.1,0.2-0.1,0.2-0.2l1.2-1.7c1.8-2.9,2.5-4.3,4.9-6.7c1.7-1.7,6.2-5.6,9.7-5.9
		c3.8,1,0.1,13.7-1.5,17c-0.9,1.8-1.8,2.7-2.4,4.6c8-2.5,12.5-13.6,12.6-22.2c0.1-4.5-0.9-6.8-1.7-10.5c-8.7,0.8-17.4,7.8-21.3,15.3
		C766.9,593.9,766.4,597.6,766.4,601.4z"/>
	<path d="M771.1,639.4c1.7,2.9,6.3,8.5,9.6,9.5c-0.2-8.7-7.9-22-13.9-23.6C766.7,630.7,768.7,635.4,771.1,639.4z"/>
	<path d="M696.5,628.6c-12.6-8.8-10.9-9.1-0.7-16.5c3.5-2.5,7.3-3.8,11-5.8c-6.1-0.2-25.4,9.3-27.5,14.1c3.3,2.9,7.7,6.2,12.6,8.6
		c3.1,1.5,12.3,5.3,15.9,5C703.9,632.6,699.7,630.9,696.5,628.6z"/>
	<path d="M683.6,610.2c3.8-2.5,9.4-5.3,14.1-6.8c-0.8-1.7-1.9-2.1-3.2-3.2c-3.8-3.4-5.7-6.4-8.9-10.5c-3.9,0.9-13.5,11.5-17,15.1
		c-1.5,1.5-2.2,2.8-3.9,4.3l-4.3,3.8c-1.6,1.3-2.7,2.3-4.4,3.7c-1.4,1.2-3.6,2.2-4.6,3.4c1.3,1.5,2.8,2.1,4.4,3.3
		c1.6,1.3,2.8,2.4,4.4,3.8c7.6,6.6,10.1,10.8,16.1,16.1l9.1,7.2c1.7-1.3,4.1-5.3,5.7-7.1c1.5-1.7,4.2-3.3,6.6-6.4
		c-0.8-0.6-9.4-4.1-13.6-6.8c-2.4-1.6-10.5-7-10.7-9.9C673.1,617.5,681.5,611.6,683.6,610.2z"/>
	<path d="M709.7,579c5.3,0.8,6.9,1.9,9.8,2.5c-1.6-1.9-1.4,0-1.2-3.7c-6.6-2.4-11.1-5.2-20.2-5.2c0.2,2.6,0.7,0.7,1.2,2.6
		c0.4,1.6-0.5,1.6-0.3,3.2C701.2,578.8,703.9,578.1,709.7,579z"/>
	<path d="M725.2,632.9c-5-1.9-16.4-8.6-16.8-12.6c-0.3-3.3,8.6-9.1,11.4-10.6c1.7-0.9,3.8-1.5,5.3-2.4c-9.9-1.4-19.6,3-27.7,7.9
		c-1.6,1-4.8,3.7-5.6,5.1l5.8,4.8C705.3,630.3,715.3,633.9,725.2,632.9z"/>
	<path d="M750.6,667.6c1.8-2,3.8-4.7,5-7.5c-2.7,1.2-3.3,3.9-13.7,7.3c-3.8,1.2-6.1,2-7.2-1.2c-2.6-7.7-2-11.5-1.2-19
		c0,0.1-0.2,0.1-0.2,0.2l-1.5,1.9c-2.7,4.8-5.7,15-5.7,20c0,5.6,0.6,7.7,1.4,13.3c4.8,0,14.2-6.3,16.7-8.5c1.3-1.2,2.2-1.7,3.4-3
		C748.9,669.8,749.5,668.8,750.6,667.6z"/>
	<path d="M733.5,592.8c-0.7-7.6-1.3-14.9,2.4-20.9c4.5-0.7,11.6,2.8,15.4,5.1c2.6,1.5,2.8,2.4,4.1,2.9c-0.9-3.9-8.7-11.8-11.2-13.9
		c-2.4-2.1-12.2-8.3-16.8-8.3l-1.1,10.7c0,5.9,0.1,9.4,2.4,15.4L733.5,592.8z"/>
	<path d="M721.4,693.2c7.5-0.5,22.5-11.9,24.7-16c-3.2,1.8-5.6,3.9-9.5,5.8c-2.2,1.1-9,4.4-11.4,2.9c-0.1-0.1-0.1-0.3-0.2-0.2
		c0,0.1-0.1-0.2-0.2-0.2c0,0-0.1-0.2-0.1-0.2l-0.5-1.7c-2.7-11.8-1-10.2-0.8-20.8C719.6,669.3,719.2,685.4,721.4,693.2z"/>
	<path d="M766.4,551.3c-0.3-0.7-0.7-1.4-1.1-2.1l-1.4-1.8c-3,2-6.6,13.7-6.6,18.4c0,6.5,3.5,8.9,5.6,16.6l0.6,1.6
		c0.3,0.5,0.2,0.4,0.5,0.7c0.9-2.6,2.2-6.6,3.3-9.1c3.3-7.4,4.9-7.5,0.9-19.7C767.6,554.3,767,552.7,766.4,551.3z"/>
	<path d="M796.8,620c-2.1-2.7-10.5-3.3-13.5-3.3c-6.8,0-8.5,0.7-13.4,3.3C774.2,625.1,791.7,624,796.8,620z"/>
	<path d="M780.6,591.3c-1.9,0.8-3.9,2.5-5,3.6c-3.5,3.4-8.8,12.6-8.8,17.3l0.1,2.7C773,611.9,780.6,601.3,780.6,591.3z"/>
	<path d="M725.3,553.8c3.8-0.3,8.7,2,11.7,3.5c4.3,2.1,8.5,5.5,9.5,5.9c-1.8-5-19.5-15.9-25.1-16.4c-1.9,9.4-2.2,23.8,2.3,31.4
		c-0.3-5.6-1-4.5-0.9-12.7C722.9,561.2,723.8,557.4,725.3,553.8z"/>
	<path d="M803.7,277.2c-1.2-1.3-2.4-2.5-3.5-3.5c-10.6-10.6-23.7-21.7-32.1-34.2c-2.6-0.4-5.3-0.7-8-0.8
		c-14.9,22.1-36.6,34.6-50,55.5c-4.8,7.5-9.7,18-9.7,29c0,8.8,0.6,10.3,2.6,18.8l2.7-0.1c0,0,0,0,0,0c0.8,0.1,1.6,0,2.4,0
		c0,0,0,0,0,0.1l2.6,0.2l-0.9-9.4c0-20.7,15.4-35.2,24.4-44.2l8.7-8.3c1.5-1.5,2.7-2.7,4.2-4.2c6.1-6.1,10.7-11.9,14.5-20.2
		c1.4-3,3.8-2.1,4.9,0.8c2.8,6.9,9.5,14.7,14.5,19.8c1.5,1.5,2.7,2.7,4.2,4.2c1.6,1.6,3,2.6,4.6,4.2c8.4,8.4,17.6,16.7,23.4,28.3
		c4.3,8.6,5.6,18.4,3.9,28.8l2.6,0.1c0,0,0,0,0,0c0.8,0.1,1.7,0.1,2.5,0l2.5,0.1c1.8-7.6,2.6-10.2,2.6-18.4
		c0-17.9-11.1-32.7-20.5-43c-1.8-1-3.6-2-5.6-2.9C802,277.4,802.8,277.3,803.7,277.2z"/>
	<path d="M807.9,274.8l1.5,1.8c4.6-0.4,9.4-0.5,14.6-0.2c9.2,0.3,19.5,2.5,31.5,2.5c-8.9-13.1-40.4-25.6-55.1-30.4
		c-8-2.9-16.5-5.9-25.7-7.9c3,4,6.3,7.6,9.5,10.8C792.1,259.3,800.1,267,807.9,274.8z"/>
	<path d="M832,321.5c0.3,3.5,0,7.6-0.5,10.9c-0.4,3.1-1.8,7.5-1.9,10.1c7,1,10.3,2.1,16.3,4.2c2.4-9.1,6-16.5,10.5-22.4
		c-11.2-15.4-22.9-27-37.6-36.7c3,3.9,6.3,9.5,8.6,14.7C830.1,308.2,831.5,314.3,832,321.5z"/>
	<path d="M486.1,554.4c0.7-2.2,1.2-6,1.8-8.4c0.7-2.6,2.2-5.9,2.6-8.2c-8.6-1.1-19-7.6-25.3-12.6c-2.9-2.3-6.6-6.5-8.9-9.8
		c-2.7-3.7-4.7-7.5-7-12.1c-10.4-21.5-12.7-58.9-26.9-77.2c-2.5-3.2-1.7-5.2,1.7-4.9c13.2,1,21-0.5,33-3.6
		c15.2-4,29.8-9.3,45.3-11.2c2.9-0.4,5.9-0.5,8.8-0.7c2.7-0.2,6.8,0.6,9.1,0.2l0.8,0.3c2.5,0.7,5,0.7,10.2,2.3
		c8.9,2.8,18.4,9.2,24.7,15.8c4.9-5.7,5.9-6.5,10.9-11l1-1c-0.8-1.5-2.1-2.4-3.3-3.6c-0.7-0.8-0.8-0.9-1.5-1.7l-1.9-1.9
		c0-0.2-0.1-0.3-0.1-0.3c0,0-0.1-0.1-0.2-0.3c0-0.1-0.4-0.6-0.4-0.6c-0.3-0.5-0.7-1-1.1-1.4c-12.9-17.8-11.6-38.5-6.6-59.1
		c4-16.4,12.4-38.8,12.4-55.3c0-9-2.3-10,2.5-11.1c2,2.5,10,6.8,14.1,8.6c5.5,2.4,11.1,4.2,17.2,5.8c12.2,3.3,24.4,5.9,36.3,9.7
		c20,6.3,36.1,17.7,43.4,36.9c0.8,2,2.2,7.3,3,8.7c4.5-2.1,10.8-3.4,16.2-4.2c-0.2-4.6-2.8-8.6-2.5-20.1
		c0.4-13.4,5.3-22.9,12.1-33.2c1.5-2.2,3.4-4.4,4.9-6.4c1.9-2.4,4.8-4.9,5.2-6.3c0.8-0.4,0.4-0.1,1.2-0.8l6.8-6.9
		c0.3-0.4,0.2-0.2,0.4-0.6c1.3-0.7,8.8-8.2,10.5-9.8c5.9-5.9,12.8-12.5,18.1-19.9c-1.6,0-3.2,0-4.8,0.1c-23.1,1.4-38.4,6.7-38.4,7.5
		c3.6-17.8,13.1-30.6,28.7-36.8c-25.1-11.7-66.3,4.5-84.4,22.8c-6.4-10.3-12.5-10.3-13.4-29.5c0-2.5,0.8-8.6-2.5-10.3
		c-9.2-0.6-20.3,5-28.7,9.5c-13.1,7.5-25.6,18.7-35.9,29.2c-7-3.3,14.5-27.6,15.6-33.4c-27,7.5-54,14.5-77.4,30.6
		c-12.5,8.6-21.2,21.2-26.2,34c-25.3,7.5-43.4,14.8-49.3,17.8c-19.8,10.9-43.2-8.6-55.1-20c-9.2-8.1-8.4-6.7-8.4,1.4
		c0,8.4,8.4,38.4,10.9,48.5c3.9,12.8-10.9,13.1-16.4,28.1c-2.5-0.8-5.6-1.7-8.4-1.9c-18.4-3.1-31.5,4.7-39.3,1.9
		c-8.4-2.8-16.2-15.9-32.9-19.5c-17-3.3-30.4,5.3-38.4,3.6c-7.8-1.4-18.7-15.6-32.3-17.5c-13.6-1.9-23.4,3.6-32.3,1.9
		c-9.2-1.4-16.2-13.6-26.2-14.5c-10.6-0.8-21.7,3.9-27.6,3.3c-5.6-0.8-11.4-11.7-18.9-11.1c-7.2,0-13.1,1.9-18.4,0.6
		c-5.6-1.4-15-7.8-21.7-7.8c-6.4-0.3-27.6-1.1-27.6,0c0,1.9,14.8,2.5,18.4,4.2c3.3,1.7,10.6,6.7,15,7.5c4.2,0.6,10.3,0,12.8,1.4
		c3.1,1.1,12,15,26.7,16.4c15,1.7,17.5-0.3,22.8,1.9c5.3,3.1,8.6,15,22,17.8c13.6,3.1,28.7-1.7,37,1.1c8.9,2.8,15.9,24.2,36.2,27.6
		c19.8,2.8,28.7-3.9,35.4-1.7c7.8,1.9,21.7,23.4,42.6,27.3c13.9,2.5,34-3.9,42.1,2c4.5,15.3-3.6,32.9,4.7,57.6
		c35.4,103.1,11.7,31.8,30.4,4.2c1.4,3.1,4.2,3.9,5.6,19.8c1.1,15.6,19.5,59.3,21.7,70.5c2.3,11.5,6.1,22.2,10,32.7
		C445.9,552.9,463.6,548.9,486.1,554.4z"/>
	<path d="M878.1,378c1.4,3.1,2.4,5.8,3.5,9.1c3.1-0.6,10.6-4.9,13-6.5c0,0,0,0,0,0c-0.2-0.2-0.5-0.4-0.7-0.6
		c-4.5-3.3-8.1-7.4-11.3-11.8c-2.8,0.7-5.7,1.2-8.9,1.5C874.9,372.4,876.8,374.9,878.1,378z"/>
	<path d="M691,730.4l-1.7-10c-0.3-1.2-0.4-2.3-1.2-3.2c-0.3,5.7,0.4,24.8,3.2,28.6c4.8-0.4,24-9.1,25.8-11.8c-5.8,1.6-14,4.4-19,7.8
		c-1.6,1.1-5.4,4.8-6.8,1.3C690.6,741.5,691.5,735,691,730.4z"/>
	<path d="M852.4,349.9c0.2,0.2,0.4,0.3,0.7,0.4c0.3,0.1,0.5,0.4,0.7,0.5c0.3,0.2,0.5,0.3,0.8,0.5l2.2,1.4c2.8-5.7,3.9-9.8,8.6-15
		c-0.3-0.5-0.6-1.1-0.9-1.6c-1.7-2.6-3.4-5.1-5.1-7.5c-4.3,5.8-6.9,11.7-9.1,20.4L852.4,349.9z"/>
	<path d="M863.3,357.8c1.1,1,1.6,1.6,2.5,2.5c1.8,1.7,3,2.9,4.5,5c3.2,0.1,6.4-0.3,9.5-1c-4.6-7.2-8.2-15-12-22.1
		c-2.8,3.7-5.7,8.9-7,13.5C861.8,356.8,862.3,356.9,863.3,357.8z"/>
	<path d="M594.9,445.3c-9.8,6.9-12.4,18.2-6.3,28c1.1,1.7,3.5,4,4.9,5.3c2.3,2.1,4.2,2.4,8,1.6c0.5-0.8,2-7.8,2.4-9.3
		c0.8-3.2,1.9-6.2,2.7-9.3c1.6-5.7,4.2-13.1,5-18.9C604.1,441.6,600.6,441.3,594.9,445.3z"/>
	<path d="M714,664.2c1.7-0.7,3.1-1.5,4.4-2c-0.3-3.2,0-1.6,1-3.6c-3.2,0.5-6,1.9-9.5,2.5c-4.4,0.8-6.8,0.3-11,0.4c0,1.3,0.7,2,0.5,3
		c-0.1,1.1-0.9,1.2-1.3,2.9C703.1,667.4,709.4,666,714,664.2z"/>
	<path d="M749.5,504.8c-0.5,1.8-0.8,3.9-1,6.1c-0.3,2.9-0.4,3.9,1.9,4.8c3.7,1.4,6.7,2.6,9.9,4.6c4,2.6,2.7,2.9,9.6-0.8
		c1.7-0.9,8.6-4.1,9.4-5.2c0.2-0.8-0.5-7.8-0.9-8.8c-0.6-1.7-5.8-1.5-8.9-1.7C767.1,503.6,752.3,503.4,749.5,504.8z"/>
	<path d="M829.7,572.6c-4.7,0-8.4,0.9-12.6,2.3c-1.9,0.7-3.7,1.3-5.6,1.9c-3,1-1.7,1.7-2.2,3.5c-0.4,1.3-0.1-0.2-0.8,1.1
		c1.5,0,6.7-1.8,8.8-2.3c3.3-0.7,7.6-0.5,11.3-0.5c0-1.7-0.8-1.7-0.3-3.3C828.8,574,829.3,574.7,829.7,572.6z"/>
	<path d="M945,511.7c-1.7-4.1-9.4-8.4-15.5-9.5l0.5,10.3C933.5,513.7,941.8,512.6,945,511.7z"/>
	<path d="M594,761.6c-6.5,4.5-9.8,13.2-7.7,21.5c1.4,5.5,4.9,9.6,8.6,12c5.3,3.4,9.9,4,16.9,2.7l-5.3-18.5
		c-1.8-6.3-3.7-12.8-4.8-19.3C597.6,759.2,596.8,759.6,594,761.6z"/>
	<path d="M756.4,639.5c2.5-3.8,4.8-8.2,4.3-14.1c-3.2,0.9-7.4,6.3-9.2,9.2c-3.3,5.2-3.3,7.6-4.4,14.2
		C750.5,648.1,754.5,642.3,756.4,639.5z"/>
	<path d="M824.8,545.3c-1-3.6-2-7-2.8-10.6c-1-4.3-1.1-7.5-1.6-12.2l-10.1,4.2c-10.7,3.7-22.4,4.7-33.6,10.1
		c0.6,2.6,2.3,5.5,3.2,8.2c0.7,2.1,1.5,7.9,2.4,9.2c5.8-3.5,14.6-11.2,24.1-12.8c3.7-0.6,4.1,1.4,4.8,4.4c3.3,15.3,0,21.9,0.3,25.5
		c6.4-1.7,10.8-3.5,18.3-3.6C829.7,560.8,826.6,551.7,824.8,545.3z"/>
	<path d="M665.8,548.2c-4.6-1.4-10.3-3.1-15.5-3.3c-1.2,1.6-8.2,12.1-8.1,14.2c0.2,1.9,9,11.1,10.6,11.8c0.7-1.9,2-3.9,3-5.9
		c2.1-4.1,3.8-7.4,6.4-11.2C663.5,551.9,664.9,550.3,665.8,548.2z"/>
	<path d="M768.5,534.4c-12.8-17.3-39.1-18.5-59.9-25.7c-3.7-1.3-8.7-4.3-12.2-5.1c-2.2,32-19.3,53.8-8.8,78.5
		c1.9,4.6,6.2,10.7,9.6,13.7l4.5,3.6c1,1,1.5,1.8,3.2,2.2c2.2-1.1,0.3-1.1,3.5-0.7c-1.1-1.4-6.2-5-7.4-7.5c0,0.1-0.1,0.1-0.1,0.2
		c-0.1-0.2-0.2-0.4-0.4-0.6c-0.1-0.1-0.2-0.1-0.3-0.2c-0.6-1.2-1.4-2.2-2.1-3.3c-0.1-0.5-0.4-1-0.8-1.4c-0.9-2.3-2.2-4.4-3-7.3
		c-2.6-9.3-0.8-19.5,1.6-28.5c2-7.5,5.9-19.1,6.5-26.4c0.2-3-0.4-8.5,0.3-10.4l2.8-0.5c0.2,0.2,0.4,0.4,0.8,0.4c0,0,0.1,0,0.1,0
		c11.5,9.9,35.3,9.3,51.7,19.1c4.7,2.8,8.1,6.9,11.1,11.2l0.3,0.4c0.3,0.5,0.2,0.3,0.5,0.6l2,4.3c0.3,0.5,0.2,0.4,0.5,0.5
		c0.2,3.1,2.3,6,2.3,10.5l1.2-1.7c0.6-0.5,1-0.5,1.6-1.1c0.5-4.5-1.5-9.9-3-13.9C772.8,540.5,771.1,537.8,768.5,534.4z"/>
	<path d="M763.9,692.7c3.3-2.5,6-13.5,6.5-18.7c0.4-3.7-1.7-6.3-3.1-9.3c-1.3-2.9-2.3-6.4-3.5-9.3c-0.8,1.2-2.4,7-3.3,9
		c-1.5,3.3-3.5,5.2-3.2,9.3C757.7,678.8,760.3,690.4,763.9,692.7z"/>
	<path d="M789.6,664.5c2-7.9,2.8-12,0-20.1c-1.7-5-5.7-10.5-10.7-12.6c0.2,1.7,2.9,5.1,4.3,10.2c0.6,2.2,0.8,4.2,0.8,6.6
		c0,2.4,0.6,5.2-2.2,4.8c-2.4-0.4-7.6-4.7-8.9-6c-3.6-3.6-5-7.3-6.5-8.7C765.6,653.3,780.4,664.2,789.6,664.5z"/>
	<path d="M698.7,498.7c5.4,3.5,12.2,5.1,18,7.2c-1.7-2.6-21.1-11.5-25.7-11.6c-2,8.7-4,18.5-2.7,28.4c1.9-2.7,2.4-9.9,2.8-13.8
		c0.3-2.8,0.4-5,0-7.9C690,491.1,696.9,497.5,698.7,498.7z"/>
	<path d="M800.1,629.8c4.6-1.4,14.5-7,14.8-9.5c0.3-2.3-12.7-12.4-24.8-10.8c-2.5,0.3-7.2,2-8.4,3.7c4.3,0.2,8.2,0.3,11.9,1.5
		c2.8,0.9,8.3,2.8,8.4,5.3c0.1,3-5.3,4.4-8.1,5.3c-3.9,1.3-7.7,1.5-12.3,1.5c0.8,1.7,5.5,3.3,8.1,3.7
		C793.4,631.2,796.7,630.8,800.1,629.8z"/>
	<path d="M823,628.9c2.5-1.2,4.8-2.5,6.8-3.8c1.8-1.2,5-3.6,6-4.9c-0.9-2.5-9.3-7.6-12.9-9.1c-6-2.6-13.9-4.6-20.5-4
		c2.7,1.5,16.7,8.2,16.7,13c0,2.1-5.4,6.4-7,7.6c-2.7,2.1-6.3,4-9.7,5.3C809.9,633.6,816.7,631.9,823,628.9z"/>
	<path d="M736,510.8c-1.6-4-11.1-12.8-14.6-16.1c-3.5-3.2-6.1-5.3-10.3-8.1c-4.8-3.2-9.8-6.1-15.4-9c-3.1-1.5-14.8-6.7-17.9-6.4
		c-3.4,8.9-3.9,26.7-3.2,36.6c0.7,9.6,3.2,20.3,6.7,29.2c0.3,0.8,0.4,1.1,0.7,1.8l0.8,1.8c0,0.1,0.1,0.2,0.2,0.2
		c2.9-4.8,1.3-8,0.7-13.3c-0.5-4.8-0.6-10.8-0.3-15.9c0.2-4.2,1.9-16.9,3.6-20.8c1.2-2.9,2.6-2.3,5.3-1.6c12,3.1,23.2,8.8,32.9,16
		C729.1,508.2,729.7,509.9,736,510.8z"/>
	<path d="M639.4,484.9c15.2-13.8,32.4-25.4,51.7-33.5c6.5-2.7,16.1-6.6,23.1-8.1c-1.3-1.4-6.5-2.3-8.3-2.7
		c-15.4-3.7-36.2-8.5-49.9-15.5c-2.2-1.1-5-3-7.1-3.9c-1,15.9-0.2,19.3-4.8,35.5c-1.6,5.7-8.3,27.8-8.8,31.9
		C636.9,487.8,637.6,486.5,639.4,484.9z"/>
	<path d="M680.3,548.2c-0.6-1.9-1.5-3.9-2.3-5.7c-0.1-1-0.3-1.9-0.7-2.9c-0.4-1.1-0.8-2.3-1.7-3.1c-1.2-3.3,0.7-2.2-7.6-5.6
		c-3.6-1.5-7.5-2.7-11.3-3.8c-8.1-2.4-17.4-4-26.5-4c0.5,2.9,0,4.1,0.1,4.6c-0.1,0.4,0,0.8,0.3,1.3c0.5,0.8,0.4,2,0.6,2.9
		c0.3,1.5,0.6,2.9,0.8,4.4c0,0.1,0.1,0.2,0.1,0.3c0,0,0,0-0.1,0l0.7,3.8c2,0.1,4.4-0.4,6.3-0.5c2.4-0.2,4.6-0.2,7.1-0.2
		C663.1,539.7,676.7,547.9,680.3,548.2z"/>
	<path d="M639.7,513.2l14.2-14.5l9.4-7.9c1-0.7,6.1-4.3,6.5-5.2c0.4-0.9,2.2-16.5,4.3-19.1c2.2-2.7,15.1,2.8,17.6,3.8
		c4.1,1.7,4.4,0.6,8.4-1.2c9.7-4.5,25.2-8.6,36-10.4c0.9-0.2,1.7-0.2,2.4-0.4c1.5-0.3,1.1-0.1,1.8-1.1c0.4-0.6,1.8-3.2,2-4
		c-2.9-1.6-14.9-7.1-18.4-7.1c-6.2,0-25.7,7.6-31.4,10.1c-15.8,7-34.9,18-46.9,30.6l-8.2,7.4c-1.2,1.2-4.2,3.8-4.8,5.4
		c-1.2,2.8-2.4,14.7-2.5,18.5C636.1,518.4,635,519.2,639.7,513.2z"/>
	<path d="M735.6,501.9c0.1,0.2,0.3,0.5,0.6,0.6c0,0,0,0,0,0c0,0,0,0,0.1,0.1c0,0,0,0,0,0c0.1,0,0.1,0.1,0.2,0.1c0.3,0.5,0.6,1,1,1.4
		c0.4,0.4,0.9,0.8,1.3,1.2c0,0,0,0-0.1,0c0.7,1.3,3.6,5.3,4.6,6.3c0.8-1.1,1.8-10.7,2.3-12.9c1.7-8.4,4.3-15,8.3-22.5
		c1.5-2.7,5.8-8.4,6.2-9.5l-2.5-2.8c-0.1,0-0.1,0.1-0.2,0.1c-0.6-0.9-1.4-1.6-2.2-2.3c-1.4-1.1-2.9-2.1-4.4-3.2c0,0,0,0,0,0
		c-1.1-0.8-2.2-2-3.9-2.4c-5.5,5.5-13.1,32.8-13.1,41C733.8,499.9,734.4,500.6,735.6,501.9z"/>
	<path d="M750.7,499.3c4.3,0,8.8-0.6,13.2-0.6c4.4,0,8.9,0.6,13.1,0.6c-0.3-2.5-1.2-5.4-2.1-7.8c-0.9-2.3-2.2-5.4-2.8-7.5
		c-2.5-0.2-15.7-1.3-16.9,0.7C754.2,486.5,751,496.5,750.7,499.3z"/>
	<path d="M826.7,583.3c-7.8,0-14.7,1.5-20.8,4.8c-1.9,1.1-4.4,4.9-6,7.1c-0.9,1.3-1.7,2.5-2.6,3.7c-0.9,1.2-2.5,2.2-3.1,3.6
		c3.4-0.3,7.1-1.5,10.8-1.9c6.2-0.7,5.5,0.5,10-3C818.2,595.2,826.6,587.6,826.7,583.3z"/>
	<path d="M712.6,620c0.6,1.6,4.4,4.6,6.2,5.7c2.3,1.5,5.3,3,8.1,4c5.4,1.7,16.9,1.4,19.1-2.8c-5-0.1-7.9-0.1-12.3-1.5
		c-12.4-3.9-8.9-8.3,0.3-10.7c4.1-1.1,7.8-0.9,12-1.5C737.7,605,718.4,611.3,712.6,620z"/>
	<path d="M753.5,583c-2.7-2.5-10.1-7.2-15.5-7.3c-0.7,2.2-1.6,4.7-1.6,7.2v3.6c0,9.4,5.8,19.8,12.6,21.9c-0.6-2.2-2.7-3.6-4.4-10.1
		c-0.8-3.1-2.4-9.9,0.5-11.6c3.3-0.8,11.5,7.1,14.3,12c0.7,1.1,0.6,1.4,1.7,2.4C761.4,593.3,758.1,587.3,753.5,583z"/>
	<path d="M761.1,639.1c-3.1,2.2-0.8,4.7-10.4,11.6c-0.9,0.7-1.6,1.3-2.7,1.9c-9,5-2.5-14.3-1-17.3c0.6-1.1,1.6-2.3,1.9-3.5
		c-4.6,1.3-9.2,7.5-10.9,12.6c-3,9.2-1.3,11.6-0.1,20.2c5.6-0.6,12.1-4.6,15.2-7.3c4.1-3.7,8.2-9.5,8.1-16.8L761.1,639.1z"/>
	<path d="M730.6,620c5.7,4.9,20.6,4.1,27,0.4C754.5,614.6,735.2,616.4,730.6,620z"/>
	<path d="M747.2,591.4c1.3,9.9,2.6,12.3,8.2,19.5c0.3,0.3,4,4.2,5.5,3.5C762.5,608.2,753,593,747.2,591.4z"/>
	<path d="M707.4,522.5c-0.5,1.9-0.4,4.1-0.7,6.1c-1.3,11-4.4,17-6.8,27.1c-1.1,4.5-1.3,7.4-1.9,12.1c9.9,0,12.6,2.6,18.3,3.6
		c-0.1-6-1.8-6.3-1-16.8c0.2-2.9,0.6-5.4,1.1-8.1c0.6-2.8,0.9-5.5,4.6-5c5.4,0.7,14.6,5.6,19.1,8.9l5.3,4.1c0.9-3.2,1.4-6.1,2.5-9.2
		c1-2.9,2.7-5.8,3.3-8.5c-10.2-5.2-27.2-7.3-38.8-12C710.7,524.1,708.8,522.8,707.4,522.5z"/>
	<path d="M756.1,539.7c-2.8,1.4-6.3,15.7-6,19.9c2,1.3,1.1,0.1,2.6,2.3c0,0,0.1,0.2,0.2,0.2c0.8-2.6,0.9-5.2,1.9-8.1
		c0.8-2.5,2.6-5.3,3-7.2c1.1-0.9,2-2.5,2.3-4C756.4,542,757.7,542.3,756.1,539.7z"/>
	<path d="M705.7,705.5c1.4,6.2,1,9.4,1.6,12.2c1.6-0.4,3.2-1.5,4.8-2.2c5-2.1,11.5-3.8,16.8-5.1c9.4-2.2,11.1-2.7,19.6-5.9
		c1.1-0.4,1.8-0.6,2.6-1.3c-0.9-3-2.2-5.1-3.3-8.1c-1.1-3.2-1.4-6.2-2.3-9.3c-2,0.8-3.8,2.7-5.4,3.9c-4.4,3.3-14,8.3-19.3,9
		c-3.3,0.4-3.8-1.8-4.4-4.5c-2.1-9.8-1.6-15.9-0.1-25.5c-2.4,0.2-5.8,1.8-8.5,2.4c-3.4,0.7-6.2,0.9-9.8,1.2
		C697.9,680.2,703.6,696.3,705.7,705.5z"/>
	<path d="M705.9,648.8c-1.2,1.8-4.9,5.3-4.9,7.9c7.5,0,14.9-1.3,20.6-4.6c2.4-1.4,4.1-5.3,7.1-8.8l4.5-5.6
		c-3.7,0.4-7.2,1.5-11.1,1.9c-6.3,0.6-5.6-0.2-9.7,3.1C710.1,644.5,707.9,645.9,705.9,648.8z"/>
	<path d="M708.7,594.5c1.3,1.1,2.5,1.8,3.7,3c3.5,3.2,4.2,2.7,9.8,3.2c4,0.3,7.5,1.7,11.2,1.9l-5.7-6.9c-1.7-2.2-3.8-6.3-5.7-7.4
		c-5.8-3.4-13.5-4.9-21-4.9C700.8,585.8,707.1,593.2,708.7,594.5z"/>
	<path d="M756.1,700.4c1-1.1,0.4-1.4,1.4-2.2c0.8-0.7,1.4-0.4,2.5-1c-0.2-1.4-1.4-3-2.1-3.8c-0.8-3-2.8-4.3-5-15.4
		c-1.6,2,0.5,0.7-2.7,2.6c-0.4,3.2,0.9,7.9,1.8,10.8C752.4,693.1,754.1,699.8,756.1,700.4z"/>
</svg>
